NotoSansTelugu-CondensedBold.ufo
<glyph name="exclam.telu" format="2">
  <advance width="334"/>
  <unicode hex="0021"/>
  <outline>
    <contour>
      <point x="238" y="237" type="line"/>
      <point x="261" y="656" type="line"/>
      <point x="73" y="656" type="line"/>
      <point x="97" y="237" type="line"/>
    </contour>
    <contour>
      <point x="74" y="81" type="curve" smooth="yes"/>
      <point x="74" y="22"/>
      <point x="110" y="-12"/>
      <point x="167" y="-12" type="curve" smooth="yes"/>
      <point x="223" y="-12"/>
      <point x="258" y="22"/>
      <point x="258" y="81" type="curve" smooth="yes"/>
      <point x="258" y="141"/>
      <point x="225" y="176"/>
      <point x="167" y="176" type="curve" smooth="yes"/>
      <point x="106" y="176"/>
      <point x="74" y="141"/>
    </contour>
  </outline>
</glyph>
<glyph name="quotedbl.telu" format="2">
  <advance width="513"/>
  <unicode hex="0022"/>
  <outline>
    <contour>
      <point x="82" y="515" type="line"/>
      <point x="211" y="515" type="line"/>
      <point x="231" y="773" type="line"/>
      <point x="62" y="773" type="line"/>
    </contour>
    <contour>
      <point x="302" y="515" type="line"/>
      <point x="431" y="515" type="line"/>
      <point x="451" y="773" type="line"/>
      <point x="282" y="773" type="line"/>
    </contour>
  </outline>
</glyph>
<glyph name="numbersign.telu" format="2">
  <advance width="570"/>
  <unicode hex="0023"/>
  <outline>
    <contour>
      <point x="63" y="0" type="line"/>
      <point x="180" y="0" type="line"/>
      <point x="214" y="170" type="line"/>
      <point x="289" y="170" type="line"/>
      <point x="254" y="0" type="line"/>
      <point x="371" y="0" type="line"/>
      <point x="405" y="170" type="line"/>
      <point x="517" y="170" type="line"/>
      <point x="517" y="281" type="line"/>
      <point x="427" y="281" type="line"/>
      <point x="446" y="373" type="line"/>
      <point x="540" y="373" type="line"/>
      <point x="540" y="484" type="line"/>
      <point x="468" y="484" type="line"/>
      <point x="502" y="649" type="line"/>
      <point x="385" y="649" type="line"/>
      <point x="352" y="484" type="line"/>
      <point x="277" y="484" type="line"/>
      <point x="311" y="649" type="line"/>
      <point x="194" y="649" type="line"/>
      <point x="161" y="484" type="line"/>
      <point x="53" y="484" type="line"/>
      <point x="53" y="373" type="line"/>
      <point x="139" y="373" type="line"/>
      <point x="120" y="281" type="line"/>
      <point x="30" y="281" type="line"/>
      <point x="30" y="170" type="line"/>
      <point x="98" y="170" type="line"/>
    </contour>
    <contour>
      <point x="236" y="281" type="line"/>
      <point x="255" y="373" type="line"/>
      <point x="330" y="373" type="line"/>
      <point x="311" y="281" type="line"/>
    </contour>
  </outline>
</glyph>
<glyph name="percent.telu" format="2">
  <advance width="840"/>
  <unicode hex="0025"/>
  <outline>
    <contour>
      <point x="213" y="0" type="line"/>
      <point x="333" y="0" type="line"/>
      <point x="627" y="649" type="line"/>
      <point x="507" y="649" type="line"/>
    </contour>
    <contour>
      <point x="187" y="276" type="curve" smooth="yes"/>
      <point x="294" y="276"/>
      <point x="346" y="346"/>
      <point x="346" y="469" type="curve" smooth="yes"/>
      <point x="346" y="587"/>
      <point x="292" y="661"/>
      <point x="191" y="661" type="curve" smooth="yes"/>
      <point x="84" y="661"/>
      <point x="32" y="591"/>
      <point x="32" y="468" type="curve" smooth="yes"/>
      <point x="32" y="352"/>
      <point x="86" y="276"/>
    </contour>
    <contour>
      <point x="189" y="385" type="curve" smooth="yes"/>
      <point x="167" y="385"/>
      <point x="157" y="406"/>
      <point x="157" y="469" type="curve" smooth="yes"/>
      <point x="157" y="530"/>
      <point x="167" y="552"/>
      <point x="189" y="552" type="curve" smooth="yes"/>
      <point x="211" y="552"/>
      <point x="221" y="531"/>
      <point x="221" y="468" type="curve" smooth="yes"/>
      <point x="221" y="405"/>
      <point x="211" y="385"/>
    </contour>
    <contour>
      <point x="649" y="-12" type="curve" smooth="yes"/>
      <point x="756" y="-12"/>
      <point x="808" y="58"/>
      <point x="808" y="181" type="curve" smooth="yes"/>
      <point x="808" y="298"/>
      <point x="754" y="373"/>
      <point x="653" y="373" type="curve" smooth="yes"/>
      <point x="546" y="373"/>
      <point x="494" y="303"/>
      <point x="494" y="180" type="curve" smooth="yes"/>
      <point x="494" y="64"/>
      <point x="548" y="-12"/>
    </contour>
    <contour>
      <point x="657" y="97" type="curve" smooth="yes"/>
      <point x="635" y="97"/>
      <point x="625" y="120"/>
      <point x="625" y="181" type="curve" smooth="yes"/>
      <point x="625" y="242"/>
      <point x="635" y="264"/>
      <point x="657" y="264" type="curve" smooth="yes"/>
      <point x="679" y="264"/>
      <point x="689" y="243"/>
      <point x="689" y="180" type="curve" smooth="yes"/>
      <point x="689" y="118"/>
      <point x="679" y="97"/>
    </contour>
  </outline>
</glyph>
<glyph name="quotesingle.telu" format="2">
  <advance width="293"/>
  <unicode hex="0027"/>
  <outline>
    <contour>
      <point x="82" y="515" type="line"/>
      <point x="211" y="515" type="line"/>
      <point x="231" y="773" type="line"/>
      <point x="62" y="773" type="line"/>
    </contour>
  </outline>
</glyph>
<glyph name="parenleft.telu" format="2">
  <advance width="411"/>
  <unicode hex="0028"/>
  <outline>
    <contour>
      <point x="44" y="209" type="curve" smooth="yes"/>
      <point x="44" y="-7"/>
      <point x="110" y="-212"/>
      <point x="232" y="-361" type="curve"/>
      <point x="382" y="-361" type="line"/>
      <point x="274" y="-212"/>
      <point x="204" y="-33"/>
      <point x="204" y="208" type="curve" smooth="yes"/>
      <point x="204" y="458"/>
      <point x="284" y="645"/>
      <point x="381" y="773" type="curve"/>
      <point x="232" y="773" type="line"/>
      <point x="123" y="650"/>
      <point x="44" y="444"/>
    </contour>
  </outline>
</glyph>
<glyph name="parenright.telu" format="2">
  <advance width="411"/>
  <unicode hex="0029"/>
  <outline>
    <contour>
      <point x="367" y="202" type="curve"/>
      <point x="367" y="419"/>
      <point x="301" y="623"/>
      <point x="179" y="772" type="curve"/>
      <point x="29" y="772" type="line"/>
      <point x="137" y="623"/>
      <point x="207" y="444"/>
      <point x="207" y="203" type="curve" smooth="yes"/>
      <point x="207" y="-46"/>
      <point x="127" y="-233"/>
      <point x="30" y="-361" type="curve"/>
      <point x="179" y="-361" type="line"/>
      <point x="288" y="-238"/>
      <point x="367" y="-32"/>
    </contour>
  </outline>
</glyph>
<glyph name="asterisk.telu" format="2">
  <advance width="544"/>
  <unicode hex="002A"/>
  <outline>
    <contour>
      <point x="349" y="773" type="line"/>
      <point x="207" y="773" type="line"/>
      <point x="225" y="608" type="line"/>
      <point x="62" y="655" type="line"/>
      <point x="41" y="519" type="line"/>
      <point x="188" y="507" type="line"/>
      <point x="91" y="377" type="line"/>
      <point x="218" y="314" type="line"/>
      <point x="276" y="445" type="line"/>
      <point x="343" y="313" type="line"/>
      <point x="465" y="377" type="line"/>
      <point x="368" y="507" type="line"/>
      <point x="515" y="517" type="line"/>
      <point x="498" y="655" type="line"/>
      <point x="331" y="608" type="line"/>
    </contour>
  </outline>
</glyph>
<glyph name="plus.telu" format="2">
  <advance width="496"/>
  <unicode hex="002B"/>
  <outline>
    <contour>
      <point x="181" y="260" type="line"/>
      <point x="181" y="83" type="line"/>
      <point x="314" y="83" type="line"/>
      <point x="314" y="260" type="line"/>
      <point x="462" y="260" type="line"/>
      <point x="462" y="389" type="line"/>
      <point x="314" y="389" type="line"/>
      <point x="314" y="569" type="line"/>
      <point x="181" y="569" type="line"/>
      <point x="181" y="389" type="line"/>
      <point x="34" y="389" type="line"/>
      <point x="34" y="260" type="line"/>
    </contour>
  </outline>
</glyph>
<glyph name="comma.telu" format="2">
  <advance width="298"/>
  <unicode hex="002C"/>
  <outline>
    <contour>
      <point x="234" y="142" type="line"/>
      <point x="87" y="142" type="line"/>
      <point x="78" y="61"/>
      <point x="56" y="-45"/>
      <point x="35" y="-129" type="curve"/>
      <point x="158" y="-129" type="line"/>
      <point x="189" y="-58"/>
      <point x="227" y="57"/>
      <point x="239" y="131" type="curve"/>
    </contour>
  </outline>
</glyph>
<glyph name="hyphen.telu" format="2">
  <advance width="338"/>
  <unicode hex="002D"/>
  <outline>
    <contour>
      <point x="36" y="192" type="line"/>
      <point x="302" y="192" type="line"/>
      <point x="302" y="337" type="line"/>
      <point x="36" y="337" type="line"/>
    </contour>
  </outline>
</glyph>
<glyph name="slash.telu" format="2">
  <advance width="447"/>
  <unicode hex="002F"/>
  <outline>
    <contour>
      <point x="415" y="773" type="line"/>
      <point x="269" y="773" type="line"/>
      <point x="32" y="-361" type="line"/>
      <point x="178" y="-361" type="line"/>
    </contour>
  </outline>
</glyph>
<glyph name="zero.telu" format="2">
  <advance width="496"/>
  <unicode hex="0030"/>
  <outline>
    <contour>
      <point x="461" y="324" type="curve" smooth="yes"/>
      <point x="461" y="547"/>
      <point x="390" y="661"/>
      <point x="247" y="661" type="curve" smooth="yes"/>
      <point x="104" y="661"/>
      <point x="35" y="555"/>
      <point x="35" y="324" type="curve" smooth="yes"/>
      <point x="35" y="104"/>
      <point x="106" y="-12"/>
      <point x="247" y="-12" type="curve" smooth="yes"/>
      <point x="417" y="-12"/>
      <point x="461" y="136"/>
    </contour>
    <contour>
      <point x="201" y="324" type="curve" smooth="yes"/>
      <point x="201" y="456"/>
      <point x="209" y="521"/>
      <point x="247" y="521" type="curve" smooth="yes"/>
      <point x="289" y="521"/>
      <point x="295" y="462"/>
      <point x="295" y="324" type="curve" smooth="yes"/>
      <point x="295" y="191"/>
      <point x="289" y="128"/>
      <point x="247" y="128" type="curve" smooth="yes"/>
      <point x="207" y="128"/>
      <point x="201" y="187"/>
    </contour>
  </outline>
</glyph>
<glyph name="one.telu" format="2">
  <advance width="496"/>
  <unicode hex="0031"/>
  <outline>
    <contour>
      <point x="397" y="0" type="line"/>
      <point x="397" y="649" type="line"/>
      <point x="246" y="649" type="line"/>
      <point x="28" y="419" type="line"/>
      <point x="135" y="324" type="line"/>
      <point x="196" y="391" type="line" smooth="yes"/>
      <point x="210" y="407"/>
      <point x="222" y="422"/>
      <point x="231" y="436" type="curve"/>
      <point x="230" y="398"/>
      <point x="229" y="356"/>
      <point x="229" y="310" type="curve" smooth="yes"/>
      <point x="229" y="0" type="line"/>
    </contour>
  </outline>
</glyph>
<glyph name="two.telu" format="2">
  <advance width="496"/>
  <unicode hex="0032"/>
  <outline>
    <contour>
      <point x="458" y="0" type="line"/>
      <point x="458" y="145" type="line"/>
      <point x="235" y="145" type="line"/>
      <point x="235" y="148" type="line"/>
      <point x="320" y="243" type="line" smooth="yes"/>
      <point x="414" y="349"/>
      <point x="446" y="406"/>
      <point x="446" y="488" type="curve" smooth="yes"/>
      <point x="446" y="593"/>
      <point x="357" y="661"/>
      <point x="241" y="661" type="curve" smooth="yes"/>
      <point x="155" y="661"/>
      <point x="87" y="628"/>
      <point x="24" y="586" type="curve"/>
      <point x="96" y="465" type="line"/>
      <point x="138" y="494"/>
      <point x="175" y="512"/>
      <point x="217" y="512" type="curve" smooth="yes"/>
      <point x="250" y="512"/>
      <point x="277" y="499"/>
      <point x="277" y="459" type="curve" smooth="yes"/>
      <point x="277" y="418"/>
      <point x="252" y="384"/>
      <point x="196" y="320" type="curve" smooth="yes"/>
      <point x="20" y="118" type="line"/>
      <point x="20" y="0" type="line"/>
    </contour>
  </outline>
</glyph>
<glyph name="three.telu" format="2">
  <advance width="496"/>
  <unicode hex="0033"/>
  <outline>
    <contour>
      <point x="442" y="497" type="curve" smooth="yes"/>
      <point x="442" y="611"/>
      <point x="357" y="661"/>
      <point x="235" y="661" type="curve" smooth="yes"/>
      <point x="157" y="661"/>
      <point x="98" y="641"/>
      <point x="30" y="599" type="curve"/>
      <point x="102" y="488" type="line"/>
      <point x="141" y="511"/>
      <point x="173" y="521"/>
      <point x="204" y="521" type="curve" smooth="yes"/>
      <point x="248" y="521"/>
      <point x="276" y="502"/>
      <point x="276" y="464" type="curve" smooth="yes"/>
      <point x="276" y="417"/>
      <point x="236" y="397"/>
      <point x="146" y="397" type="curve" smooth="yes"/>
      <point x="115" y="397" type="line"/>
      <point x="115" y="269" type="line"/>
      <point x="152" y="269" type="line" smooth="yes"/>
      <point x="236" y="269"/>
      <point x="286" y="248"/>
      <point x="286" y="198" type="curve" smooth="yes"/>
      <point x="286" y="152"/>
      <point x="250" y="128"/>
      <point x="186" y="128" type="curve" smooth="yes"/>
      <point x="131" y="128"/>
      <point x="85" y="140"/>
      <point x="30" y="163" type="curve"/>
      <point x="30" y="19" type="line"/>
      <point x="78" y="-2"/>
      <point x="141" y="-12"/>
      <point x="209" y="-12" type="curve" smooth="yes"/>
      <point x="365" y="-12"/>
      <point x="454" y="64"/>
      <point x="454" y="186" type="curve" smooth="yes"/>
      <point x="454" y="269"/>
      <point x="403" y="323"/>
      <point x="315" y="341" type="curve"/>
      <point x="315" y="344" type="line"/>
      <point x="399" y="371"/>
      <point x="442" y="431"/>
    </contour>
  </outline>
</glyph>
<glyph name="four.telu" format="2">
  <advance width="496"/>
  <unicode hex="0034"/>
  <outline>
    <contour>
      <point x="481" y="123" type="line"/>
      <point x="481" y="252" type="line"/>
      <point x="414" y="252" type="line"/>
      <point x="414" y="649" type="line"/>
      <point x="251" y="649" type="line"/>
      <point x="17" y="249" type="line"/>
      <point x="17" y="123" type="line"/>
      <point x="249" y="123" type="line"/>
      <point x="249" y="0" type="line"/>
      <point x="414" y="0" type="line"/>
      <point x="414" y="123" type="line"/>
    </contour>
    <contour>
      <point x="249" y="252" type="line"/>
      <point x="152" y="252" type="line"/>
      <point x="212" y="355" type="line" smooth="yes"/>
      <point x="227" y="381"/>
      <point x="237" y="404"/>
      <point x="248" y="431" type="curve"/>
      <point x="252" y="431" type="line"/>
      <point x="250" y="414"/>
      <point x="249" y="385"/>
      <point x="249" y="352" type="curve" smooth="yes"/>
    </contour>
  </outline>
</glyph>
<glyph name="five.telu" format="2">
  <advance width="496"/>
  <unicode hex="0035"/>
  <outline>
    <contour>
      <point x="265" y="425" type="curve" smooth="yes"/>
      <point x="245" y="425"/>
      <point x="230" y="424"/>
      <point x="210" y="421" type="curve"/>
      <point x="217" y="503" type="line"/>
      <point x="416" y="503" type="line"/>
      <point x="416" y="649" type="line"/>
      <point x="77" y="649" type="line"/>
      <point x="53" y="321" type="line"/>
      <point x="108" y="277" type="line"/>
      <point x="136" y="287"/>
      <point x="165" y="292"/>
      <point x="193" y="292" type="curve" smooth="yes"/>
      <point x="256" y="292"/>
      <point x="286" y="257"/>
      <point x="286" y="210" type="curve" smooth="yes"/>
      <point x="286" y="157"/>
      <point x="254" y="128"/>
      <point x="186" y="128" type="curve" smooth="yes"/>
      <point x="125" y="128"/>
      <point x="86" y="142"/>
      <point x="46" y="163" type="curve"/>
      <point x="46" y="18" type="line"/>
      <point x="86" y="0"/>
      <point x="151" y="-12"/>
      <point x="206" y="-12" type="curve" smooth="yes"/>
      <point x="373" y="-12"/>
      <point x="454" y="68"/>
      <point x="454" y="222" type="curve" smooth="yes"/>
      <point x="454" y="351"/>
      <point x="382" y="425"/>
    </contour>
  </outline>
</glyph>
<glyph name="six.telu" format="2">
  <advance width="496"/>
  <unicode hex="0036"/>
  <outline>
    <contour>
      <point x="31" y="294" type="curve" smooth="yes"/>
      <point x="31" y="96"/>
      <point x="117" y="-12"/>
      <point x="256" y="-12" type="curve" smooth="yes"/>
      <point x="389" y="-12"/>
      <point x="468" y="81"/>
      <point x="468" y="219" type="curve" smooth="yes"/>
      <point x="468" y="354"/>
      <point x="408" y="437"/>
      <point x="308" y="437" type="curve" smooth="yes"/>
      <point x="253" y="437"/>
      <point x="212" y="411"/>
      <point x="189" y="357" type="curve"/>
      <point x="185" y="357" type="line"/>
      <point x="193" y="471"/>
      <point x="241" y="521"/>
      <point x="346" y="521" type="curve" smooth="yes"/>
      <point x="376" y="521"/>
      <point x="405" y="518"/>
      <point x="432" y="512" type="curve"/>
      <point x="432" y="653" type="line"/>
      <point x="398" y="658"/>
      <point x="364" y="661"/>
      <point x="330" y="661" type="curve" smooth="yes"/>
      <point x="89" y="661"/>
      <point x="31" y="460"/>
    </contour>
    <contour>
      <point x="250" y="128" type="curve" smooth="yes"/>
      <point x="216" y="128"/>
      <point x="195" y="159"/>
      <point x="195" y="224" type="curve" smooth="yes"/>
      <point x="195" y="266"/>
      <point x="218" y="301"/>
      <point x="251" y="301" type="curve" smooth="yes"/>
      <point x="288" y="301"/>
      <point x="304" y="270"/>
      <point x="304" y="214" type="curve" smooth="yes"/>
      <point x="304" y="144"/>
      <point x="282" y="128"/>
    </contour>
  </outline>
</glyph>
<glyph name="seven.telu" format="2">
  <advance width="496"/>
  <unicode hex="0037"/>
  <outline>
    <contour>
      <point x="85" y="0" type="line"/>
      <point x="263" y="0" type="line"/>
      <point x="463" y="536" type="line"/>
      <point x="463" y="649" type="line"/>
      <point x="28" y="649" type="line"/>
      <point x="28" y="503" type="line"/>
      <point x="292" y="503" type="line"/>
    </contour>
  </outline>
</glyph>
<glyph name="eight.telu" format="2">
  <advance width="496"/>
  <unicode hex="0038"/>
  <outline>
    <contour>
      <point x="248" y="661" type="curve" smooth="yes"/>
      <point x="124" y="661"/>
      <point x="46" y="602"/>
      <point x="46" y="503" type="curve" smooth="yes"/>
      <point x="46" y="440"/>
      <point x="77" y="389"/>
      <point x="138" y="341" type="curve"/>
      <point x="61" y="294"/>
      <point x="28" y="241"/>
      <point x="28" y="171" type="curve" smooth="yes"/>
      <point x="28" y="55"/>
      <point x="107" y="-12"/>
      <point x="246" y="-12" type="curve" smooth="yes"/>
      <point x="384" y="-12"/>
      <point x="468" y="59"/>
      <point x="468" y="172" type="curve" smooth="yes"/>
      <point x="468" y="236"/>
      <point x="429" y="302"/>
      <point x="350" y="344" type="curve"/>
      <point x="415" y="381"/>
      <point x="450" y="433"/>
      <point x="450" y="502" type="curve" smooth="yes"/>
      <point x="450" y="602"/>
      <point x="376" y="661"/>
    </contour>
    <contour>
      <point x="189" y="176" type="curve" smooth="yes"/>
      <point x="189" y="208"/>
      <point x="204" y="234"/>
      <point x="245" y="262" type="curve"/>
      <point x="255" y="255" type="line" smooth="yes"/>
      <point x="298" y="223"/>
      <point x="306" y="199"/>
      <point x="306" y="172" type="curve" smooth="yes"/>
      <point x="306" y="135"/>
      <point x="287" y="117"/>
      <point x="247" y="117" type="curve" smooth="yes"/>
      <point x="208" y="117"/>
      <point x="189" y="139"/>
    </contour>
    <contour>
      <point x="249" y="532" type="curve" smooth="yes"/>
      <point x="274" y="532"/>
      <point x="290" y="517"/>
      <point x="290" y="491" type="curve" smooth="yes"/>
      <point x="290" y="464"/>
      <point x="277" y="446"/>
      <point x="246" y="424" type="curve"/>
      <point x="222" y="444"/>
      <point x="206" y="464"/>
      <point x="206" y="492" type="curve" smooth="yes"/>
      <point x="206" y="516"/>
      <point x="222" y="532"/>
    </contour>
  </outline>
</glyph>
<glyph name="nine.telu" format="2">
  <advance width="496"/>
  <unicode hex="0039"/>
  <outline>
    <contour>
      <point x="465" y="359" type="curve" smooth="yes"/>
      <point x="465" y="554"/>
      <point x="377" y="661"/>
      <point x="241" y="661" type="curve" smooth="yes"/>
      <point x="106" y="661"/>
      <point x="28" y="566"/>
      <point x="28" y="427" type="curve" smooth="yes"/>
      <point x="28" y="296"/>
      <point x="88" y="213"/>
      <point x="189" y="213" type="curve" smooth="yes"/>
      <point x="241" y="213"/>
      <point x="283" y="238"/>
      <point x="306" y="292" type="curve"/>
      <point x="311" y="292" type="line"/>
      <point x="306" y="173"/>
      <point x="252" y="128"/>
      <point x="149" y="128" type="curve" smooth="yes"/>
      <point x="119" y="128"/>
      <point x="90" y="131"/>
      <point x="63" y="138" type="curve"/>
      <point x="63" y="-3" type="line"/>
      <point x="96" y="-9"/>
      <point x="130" y="-12"/>
      <point x="165" y="-12" type="curve" smooth="yes"/>
      <point x="393" y="-12"/>
      <point x="465" y="161"/>
    </contour>
    <contour>
      <point x="245" y="521" type="curve" smooth="yes"/>
      <point x="289" y="521"/>
      <point x="301" y="472"/>
      <point x="301" y="420" type="curve" smooth="yes"/>
      <point x="301" y="394"/>
      <point x="285" y="349"/>
      <point x="244" y="349" type="curve" smooth="yes"/>
      <point x="212" y="349"/>
      <point x="192" y="376"/>
      <point x="192" y="430" type="curve" smooth="yes"/>
      <point x="192" y="499"/>
      <point x="215" y="521"/>
    </contour>
  </outline>
</glyph>
<glyph name="colon.telu" format="2">
  <advance width="288"/>
  <unicode hex="003A"/>
  <outline>
    <contour>
      <point x="52" y="81" type="curve" smooth="yes"/>
      <point x="52" y="22"/>
      <point x="88" y="-12"/>
      <point x="145" y="-12" type="curve" smooth="yes"/>
      <point x="202" y="-12"/>
      <point x="236" y="22"/>
      <point x="236" y="81" type="curve" smooth="yes"/>
      <point x="236" y="141"/>
      <point x="203" y="176"/>
      <point x="145" y="176" type="curve" smooth="yes"/>
      <point x="85" y="176"/>
      <point x="52" y="141"/>
    </contour>
    <contour>
      <point x="52" y="360" type="curve" smooth="yes"/>
      <point x="52" y="301"/>
      <point x="88" y="267"/>
      <point x="145" y="267" type="curve" smooth="yes"/>
      <point x="202" y="267"/>
      <point x="236" y="301"/>
      <point x="236" y="360" type="curve" smooth="yes"/>
      <point x="236" y="420"/>
      <point x="203" y="455"/>
      <point x="145" y="455" type="curve" smooth="yes"/>
      <point x="85" y="455"/>
      <point x="52" y="420"/>
    </contour>
  </outline>
</glyph>
<glyph name="semicolon.telu" format="2">
  <advance width="298"/>
  <unicode hex="003B"/>
  <outline>
    <contour>
      <point x="234" y="142" type="line"/>
      <point x="87" y="142" type="line"/>
      <point x="78" y="61"/>
      <point x="56" y="-45"/>
      <point x="35" y="-129" type="curve"/>
      <point x="158" y="-129" type="line"/>
      <point x="189" y="-58"/>
      <point x="227" y="57"/>
      <point x="239" y="131" type="curve"/>
    </contour>
    <contour>
      <point x="57" y="360" type="curve" smooth="yes"/>
      <point x="57" y="301"/>
      <point x="93" y="267"/>
      <point x="150" y="267" type="curve" smooth="yes"/>
      <point x="207" y="267"/>
      <point x="241" y="301"/>
      <point x="241" y="360" type="curve" smooth="yes"/>
      <point x="241" y="420"/>
      <point x="208" y="455"/>
      <point x="150" y="455" type="curve" smooth="yes"/>
      <point x="90" y="455"/>
      <point x="57" y="420"/>
    </contour>
  </outline>
</glyph>
<glyph name="less.telu" format="2">
  <advance width="496"/>
  <unicode hex="003C"/>
  <outline>
    <contour>
      <point x="462" y="88" type="line"/>
      <point x="462" y="233" type="line"/>
      <point x="221" y="333" type="line"/>
      <point x="462" y="435" type="line"/>
      <point x="462" y="579" type="line"/>
      <point x="34" y="378" type="line"/>
      <point x="34" y="288" type="line"/>
    </contour>
  </outline>
</glyph>
<glyph name="equal.telu" format="2">
  <advance width="496"/>
  <unicode hex="003D"/>
  <outline>
    <contour>
      <point x="34" y="372" type="line"/>
      <point x="462" y="372" type="line"/>
      <point x="462" y="501" type="line"/>
      <point x="34" y="501" type="line"/>
    </contour>
    <contour>
      <point x="34" y="150" type="line"/>
      <point x="462" y="150" type="line"/>
      <point x="462" y="279" type="line"/>
      <point x="34" y="279" type="line"/>
    </contour>
  </outline>
</glyph>
<glyph name="greater.telu" format="2">
  <advance width="496"/>
  <unicode hex="003E"/>
  <outline>
    <contour>
      <point x="34" y="232" type="line"/>
      <point x="34" y="88" type="line"/>
      <point x="462" y="289" type="line"/>
      <point x="462" y="379" type="line"/>
      <point x="34" y="579" type="line"/>
      <point x="34" y="434" type="line"/>
      <point x="275" y="334" type="line"/>
    </contour>
  </outline>
</glyph>
<glyph name="question.telu" format="2">
  <advance width="429"/>
  <unicode hex="003F"/>
  <outline>
    <contour>
      <point x="206" y="661" type="curve" smooth="yes"/>
      <point x="143" y="661"/>
      <point x="86" y="642"/>
      <point x="37" y="616" type="curve"/>
      <point x="97" y="495" type="line"/>
      <point x="123" y="509"/>
      <point x="156" y="519"/>
      <point x="184" y="519" type="curve" smooth="yes"/>
      <point x="217" y="519"/>
      <point x="241" y="508"/>
      <point x="241" y="476" type="curve" smooth="yes"/>
      <point x="241" y="447"/>
      <point x="230" y="433"/>
      <point x="186" y="389" type="curve" smooth="yes"/>
      <point x="137" y="341"/>
      <point x="118" y="301"/>
      <point x="118" y="241" type="curve" smooth="yes"/>
      <point x="118" y="225" type="line"/>
      <point x="255" y="225" type="line"/>
      <point x="255" y="228" type="line" smooth="yes"/>
      <point x="255" y="254"/>
      <point x="262" y="267"/>
      <point x="310" y="315" type="curve" smooth="yes"/>
      <point x="366" y="371"/>
      <point x="400" y="414"/>
      <point x="400" y="496" type="curve" smooth="yes"/>
      <point x="400" y="593"/>
      <point x="331" y="661"/>
    </contour>
    <contour>
      <point x="187" y="-12" type="curve" smooth="yes"/>
      <point x="245" y="-12"/>
      <point x="278" y="22"/>
      <point x="278" y="81" type="curve" smooth="yes"/>
      <point x="278" y="141"/>
      <point x="246" y="176"/>
      <point x="187" y="176" type="curve" smooth="yes"/>
      <point x="127" y="176"/>
      <point x="94" y="141"/>
      <point x="94" y="81" type="curve" smooth="yes"/>
      <point x="94" y="22"/>
      <point x="130" y="-12"/>
    </contour>
  </outline>
</glyph>
<glyph name="bracketleft.telu" format="2">
  <advance width="361"/>
  <unicode hex="005B"/>
  <outline>
    <contour>
      <point x="321" y="-361" type="line"/>
      <point x="321" y="-237" type="line"/>
      <point x="220" y="-237" type="line"/>
      <point x="220" y="649" type="line"/>
      <point x="321" y="649" type="line"/>
      <point x="321" y="773" type="line"/>
      <point x="70" y="773" type="line"/>
      <point x="70" y="-361" type="line"/>
    </contour>
  </outline>
</glyph>
<glyph name="backslash.telu" format="2">
  <advance width="447"/>
  <unicode hex="005C"/>
  <outline>
    <contour>
      <point x="178" y="773" type="line"/>
      <point x="32" y="773" type="line"/>
      <point x="269" y="-361" type="line"/>
      <point x="415" y="-361" type="line"/>
    </contour>
  </outline>
</glyph>
<glyph name="bracketright.telu" format="2">
  <advance width="361"/>
  <unicode hex="005D"/>
  <outline>
    <contour>
      <point x="40" y="-237" type="line"/>
      <point x="40" y="-361" type="line"/>
      <point x="291" y="-361" type="line"/>
      <point x="291" y="773" type="line"/>
      <point x="40" y="773" type="line"/>
      <point x="40" y="649" type="line"/>
      <point x="141" y="649" type="line"/>
      <point x="141" y="-237" type="line"/>
    </contour>
  </outline>
</glyph>
<glyph name="asciicircum.telu" format="2">
  <advance width="496"/>
  <unicode hex="005E"/>
  <outline>
    <contour>
      <point x="11" y="301" type="line"/>
      <point x="158" y="301" type="line"/>
      <point x="249" y="504" type="line"/>
      <point x="338" y="301" type="line"/>
      <point x="485" y="301" type="line"/>
      <point x="290" y="714" type="line"/>
      <point x="206" y="714" type="line"/>
    </contour>
  </outline>
</glyph>
<glyph name="braceleft.telu" format="2">
  <advance width="431"/>
  <unicode hex="007B"/>
  <outline>
    <contour>
      <point x="391" y="-361" type="curve"/>
      <point x="391" y="-227" type="line"/>
      <point x="320" y="-227"/>
      <point x="298" y="-213"/>
      <point x="298" y="-167" type="curve" smooth="yes"/>
      <point x="298" y="79" type="line" smooth="yes"/>
      <point x="298" y="155"/>
      <point x="257" y="191"/>
      <point x="181" y="203" type="curve"/>
      <point x="181" y="209" type="line"/>
      <point x="257" y="221"/>
      <point x="298" y="257"/>
      <point x="298" y="333" type="curve" smooth="yes"/>
      <point x="298" y="579" type="line" smooth="yes"/>
      <point x="298" y="625"/>
      <point x="320" y="639"/>
      <point x="391" y="639" type="curve"/>
      <point x="391" y="773" type="line"/>
      <point x="191" y="773"/>
      <point x="145" y="722"/>
      <point x="145" y="605" type="curve" smooth="yes"/>
      <point x="145" y="362" type="line" smooth="yes"/>
      <point x="145" y="302"/>
      <point x="113" y="283"/>
      <point x="25" y="279" type="curve"/>
      <point x="25" y="133" type="line"/>
      <point x="113" y="129"/>
      <point x="145" y="110"/>
      <point x="145" y="50" type="curve" smooth="yes"/>
      <point x="145" y="-193" type="line" smooth="yes"/>
      <point x="145" y="-310"/>
      <point x="191" y="-361"/>
    </contour>
  </outline>
</glyph>
<glyph name="braceright.telu" format="2">
  <advance width="431"/>
  <unicode hex="007D"/>
  <outline>
    <contour>
      <point x="40" y="773" type="curve"/>
      <point x="40" y="639" type="line"/>
      <point x="111" y="639"/>
      <point x="133" y="625"/>
      <point x="133" y="579" type="curve" smooth="yes"/>
      <point x="133" y="333" type="line" smooth="yes"/>
      <point x="133" y="257"/>
      <point x="174" y="221"/>
      <point x="250" y="209" type="curve"/>
      <point x="250" y="203" type="line"/>
      <point x="174" y="191"/>
      <point x="133" y="155"/>
      <point x="133" y="79" type="curve" smooth="yes"/>
      <point x="133" y="-167" type="line" smooth="yes"/>
      <point x="133" y="-213"/>
      <point x="111" y="-227"/>
      <point x="40" y="-227" type="curve"/>
      <point x="40" y="-361" type="line"/>
      <point x="240" y="-361"/>
      <point x="286" y="-310"/>
      <point x="286" y="-193" type="curve" smooth="yes"/>
      <point x="286" y="50" type="line" smooth="yes"/>
      <point x="286" y="110"/>
      <point x="318" y="129"/>
      <point x="406" y="133" type="curve"/>
      <point x="406" y="279" type="line"/>
      <point x="318" y="283"/>
      <point x="286" y="302"/>
      <point x="286" y="362" type="curve" smooth="yes"/>
      <point x="286" y="605" type="line" smooth="yes"/>
      <point x="286" y="722"/>
      <point x="240" y="773"/>
    </contour>
  </outline>
</glyph>
<glyph name="asciitilde.telu" format="2">
  <advance width="496"/>
  <unicode hex="007E"/>
  <outline>
    <contour>
      <point x="231" y="264" type="curve" smooth="yes"/>
      <point x="273" y="244"/>
      <point x="311" y="232"/>
      <point x="350" y="232" type="curve" smooth="yes"/>
      <point x="395" y="232"/>
      <point x="430" y="249"/>
      <point x="462" y="285" type="curve"/>
      <point x="462" y="420" type="line"/>
      <point x="430" y="384"/>
      <point x="393" y="361"/>
      <point x="357" y="361" type="curve" smooth="yes"/>
      <point x="326" y="361"/>
      <point x="300" y="370"/>
      <point x="264" y="387" type="curve" smooth="yes"/>
      <point x="225" y="406"/>
      <point x="185" y="419"/>
      <point x="146" y="419" type="curve" smooth="yes"/>
      <point x="101" y="419"/>
      <point x="66" y="402"/>
      <point x="34" y="366" type="curve"/>
      <point x="34" y="231" type="line"/>
      <point x="66" y="267"/>
      <point x="103" y="290"/>
      <point x="139" y="290" type="curve" smooth="yes"/>
      <point x="171" y="290"/>
      <point x="195" y="281"/>
    </contour>
  </outline>
</glyph>
<glyph name="multiply.telu" format="2">
  <advance width="496"/>
  <unicode hex="00D7"/>
  <outline>
    <contour>
      <point x="29" y="198" type="line"/>
      <point x="120" y="107" type="line"/>
      <point x="247" y="236" type="line"/>
      <point x="375" y="107" type="line"/>
      <point x="466" y="198" type="line"/>
      <point x="336" y="325" type="line"/>
      <point x="466" y="452" type="line"/>
      <point x="375" y="543" type="line"/>
      <point x="247" y="414" type="line"/>
      <point x="120" y="543" type="line"/>
      <point x="29" y="452" type="line"/>
      <point x="158" y="325" type="line"/>
    </contour>
  </outline>
</glyph>
<glyph name="divide.telu" format="2">
  <advance width="496"/>
  <unicode hex="00F7"/>
  <outline>
    <contour>
      <point x="34" y="261" type="line"/>
      <point x="462" y="261" type="line"/>
      <point x="462" y="390" type="line"/>
      <point x="34" y="390" type="line"/>
    </contour>
    <contour>
      <point x="248" y="49" type="curve" smooth="yes"/>
      <point x="298" y="49"/>
      <point x="327" y="81"/>
      <point x="327" y="135" type="curve" smooth="yes"/>
      <point x="327" y="190"/>
      <point x="300" y="221"/>
      <point x="248" y="221" type="curve" smooth="yes"/>
      <point x="196" y="221"/>
      <point x="168" y="190"/>
      <point x="168" y="135" type="curve" smooth="yes"/>
      <point x="168" y="80"/>
      <point x="199" y="49"/>
    </contour>
    <contour>
      <point x="248" y="430" type="curve" smooth="yes"/>
      <point x="298" y="430"/>
      <point x="327" y="462"/>
      <point x="327" y="516" type="curve" smooth="yes"/>
      <point x="327" y="571"/>
      <point x="300" y="602"/>
      <point x="248" y="602" type="curve" smooth="yes"/>
      <point x="196" y="602"/>
      <point x="168" y="571"/>
      <point x="168" y="516" type="curve" smooth="yes"/>
      <point x="168" y="461"/>
      <point x="199" y="430"/>
    </contour>
  </outline>
</glyph>
<glyph name="uni0951" format="2">
  <unicode hex="0951"/>
  <outline>
    <contour>
      <point x="-234" y="599" type="line"/>
      <point x="-234" y="809" type="line"/>
      <point x="-338" y="809" type="line"/>
      <point x="-338" y="599" type="line"/>
    </contour>
  </outline>
</glyph>
<glyph name="uni0952" format="2">
  <unicode hex="0952"/>
  <outline>
    <contour>
      <point x="-472" y="-99" type="line"/>
      <point x="-472" y="-190" type="line"/>
      <point x="-100" y="-190" type="line"/>
      <point x="-100" y="-99" type="line"/>
    </contour>
  </outline>
</glyph>
<glyph name="dandatelu" format="2">
  <advance width="355"/>
  <unicode hex="0964"/>
  <outline>
    <contour>
      <point x="134" y="-139" type="line"/>
      <point x="292" y="-139" type="line"/>
      <point x="292" y="673" type="line"/>
      <point x="134" y="673" type="line"/>
    </contour>
  </outline>
</glyph>
<glyph name="dbldandatelu" format="2">
  <advance width="568"/>
  <unicode hex="0965"/>
  <outline>
    <contour>
      <point x="348" y="-139" type="line"/>
      <point x="505" y="-139" type="line"/>
      <point x="505" y="673" type="line"/>
      <point x="348" y="673" type="line"/>
    </contour>
    <contour>
      <point x="134" y="-139" type="line"/>
      <point x="291" y="-139" type="line"/>
      <point x="291" y="673" type="line"/>
      <point x="134" y="673" type="line"/>
    </contour>
  </outline>
</glyph>
<glyph name="uni0C00" format="2">
  <unicode hex="0C00"/>
  <outline>
    <contour>
      <point x="-286" y="588" type="curve" smooth="yes"/>
      <point x="-170" y="588"/>
      <point x="-104" y="642"/>
      <point x="-104" y="759" type="curve" smooth="yes"/>
      <point x="-104" y="779"/>
      <point x="-107" y="799"/>
      <point x="-111" y="815" type="curve"/>
      <point x="-218" y="794" type="line"/>
      <point x="-215" y="783"/>
      <point x="-213" y="770"/>
      <point x="-213" y="754" type="curve" smooth="yes"/>
      <point x="-213" y="708"/>
      <point x="-241" y="684"/>
      <point x="-286" y="684" type="curve" smooth="yes"/>
      <point x="-327" y="684"/>
      <point x="-360" y="704"/>
      <point x="-360" y="755" type="curve" smooth="yes"/>
      <point x="-360" y="772"/>
      <point x="-358" y="781"/>
      <point x="-355" y="793" type="curve"/>
      <point x="-461" y="815" type="line"/>
      <point x="-466" y="799"/>
      <point x="-469" y="778"/>
      <point x="-469" y="759" type="curve" smooth="yes"/>
      <point x="-469" y="643"/>
      <point x="-396" y="588"/>
    </contour>
    <contour>
      <point x="-287" y="704" type="curve" smooth="yes"/>
      <point x="-254" y="704"/>
      <point x="-238" y="724"/>
      <point x="-238" y="756" type="curve" smooth="yes"/>
      <point x="-238" y="786"/>
      <point x="-254" y="807"/>
      <point x="-287" y="807" type="curve" smooth="yes"/>
      <point x="-319" y="807"/>
      <point x="-335" y="786"/>
      <point x="-335" y="756" type="curve" smooth="yes"/>
      <point x="-335" y="724"/>
      <point x="-319" y="704"/>
    </contour>
  </outline>
</glyph>
<glyph name="candrabindutelu" format="2">
  <advance width="276"/>
  <unicode hex="0C01"/>
  <outline>
    <contour>
      <point x="28" y="210" type="curve" smooth="yes"/>
      <point x="28" y="72"/>
      <point x="96" y="-12"/>
      <point x="243" y="-12" type="curve" smooth="yes"/>
      <point x="255" y="-12" type="line"/>
      <point x="255" y="112" type="line"/>
      <point x="190" y="112"/>
      <point x="180" y="148"/>
      <point x="180" y="212" type="curve" smooth="yes"/>
      <point x="180" y="283"/>
      <point x="202" y="309"/>
      <point x="255" y="309" type="curve"/>
      <point x="255" y="433" type="line"/>
      <point x="242" y="433" type="line" smooth="yes"/>
      <point x="116" y="433"/>
      <point x="28" y="358"/>
    </contour>
  </outline>
</glyph>
<glyph name="anusvaratelu" format="2">
  <advance width="461"/>
  <unicode hex="0C02"/>
  <outline>
    <contour>
      <point x="28" y="210" type="curve" smooth="yes"/>
      <point x="28" y="74"/>
      <point x="96" y="-12"/>
      <point x="229" y="-12" type="curve" smooth="yes"/>
      <point x="354" y="-12"/>
      <point x="433" y="71"/>
      <point x="433" y="210" type="curve" smooth="yes"/>
      <point x="433" y="345"/>
      <point x="364" y="433"/>
      <point x="232" y="433" type="curve" smooth="yes"/>
      <point x="105" y="433"/>
      <point x="28" y="348"/>
    </contour>
    <contour>
      <point x="180" y="211" type="curve" smooth="yes"/>
      <point x="180" y="276"/>
      <point x="198" y="309"/>
      <point x="231" y="309" type="curve" smooth="yes"/>
      <point x="267" y="309"/>
      <point x="281" y="273"/>
      <point x="281" y="212" type="curve" smooth="yes"/>
      <point x="281" y="150"/>
      <point x="267" y="112"/>
      <point x="232" y="112" type="curve" smooth="yes"/>
      <point x="194" y="112"/>
      <point x="180" y="148"/>
    </contour>
  </outline>
</glyph>
<glyph name="visargatelu" format="2">
  <advance width="307"/>
  <unicode hex="0C03"/>
  <outline>
    <contour>
      <point x="25" y="113" type="curve" smooth="yes"/>
      <point x="25" y="42"/>
      <point x="65" y="-12"/>
      <point x="153" y="-12" type="curve" smooth="yes"/>
      <point x="242" y="-12"/>
      <point x="282" y="43"/>
      <point x="282" y="113" type="curve" smooth="yes"/>
      <point x="282" y="188"/>
      <point x="241" y="242"/>
      <point x="153" y="242" type="curve" smooth="yes"/>
      <point x="65" y="242"/>
      <point x="25" y="187"/>
    </contour>
    <contour>
      <point x="127" y="115" type="curve" smooth="yes"/>
      <point x="127" y="143"/>
      <point x="136" y="161"/>
      <point x="153" y="161" type="curve" smooth="yes"/>
      <point x="170" y="161"/>
      <point x="180" y="144"/>
      <point x="180" y="116" type="curve" smooth="yes"/>
      <point x="180" y="87"/>
      <point x="171" y="69"/>
      <point x="153" y="69" type="curve" smooth="yes"/>
      <point x="136" y="69"/>
      <point x="127" y="86"/>
    </contour>
    <contour>
      <point x="25" y="382" type="curve" smooth="yes"/>
      <point x="25" y="311"/>
      <point x="65" y="256"/>
      <point x="153" y="256" type="curve" smooth="yes"/>
      <point x="242" y="256"/>
      <point x="282" y="310"/>
      <point x="282" y="382" type="curve" smooth="yes"/>
      <point x="282" y="457"/>
      <point x="241" y="508"/>
      <point x="153" y="508" type="curve" smooth="yes"/>
      <point x="65" y="508"/>
      <point x="25" y="454"/>
    </contour>
    <contour>
      <point x="127" y="382" type="curve" smooth="yes"/>
      <point x="127" y="410"/>
      <point x="136" y="427"/>
      <point x="153" y="427" type="curve" smooth="yes"/>
      <point x="170" y="427"/>
      <point x="180" y="411"/>
      <point x="180" y="383" type="curve" smooth="yes"/>
      <point x="180" y="355"/>
      <point x="171" y="337"/>
      <point x="153" y="337" type="curve" smooth="yes"/>
      <point x="136" y="337"/>
      <point x="127" y="354"/>
    </contour>
  </outline>
</glyph>
<glyph name="uni0C04" format="2">
  <unicode hex="0C04"/>
  <outline>
    <contour>
      <point x="-415" y="714" type="curve" smooth="yes"/>
      <point x="-415" y="643"/>
      <point x="-375" y="588"/>
      <point x="-287" y="588" type="curve" smooth="yes"/>
      <point x="-198" y="588"/>
      <point x="-158" y="642"/>
      <point x="-158" y="714" type="curve" smooth="yes"/>
      <point x="-158" y="789"/>
      <point x="-199" y="840"/>
      <point x="-287" y="840" type="curve" smooth="yes"/>
      <point x="-375" y="840"/>
      <point x="-415" y="786"/>
    </contour>
    <contour>
      <point x="-313" y="714" type="curve" smooth="yes"/>
      <point x="-313" y="742"/>
      <point x="-304" y="759"/>
      <point x="-287" y="759" type="curve" smooth="yes"/>
      <point x="-270" y="759"/>
      <point x="-260" y="743"/>
      <point x="-260" y="715" type="curve" smooth="yes"/>
      <point x="-260" y="687"/>
      <point x="-269" y="669"/>
      <point x="-287" y="669" type="curve" smooth="yes"/>
      <point x="-304" y="669"/>
      <point x="-313" y="686"/>
    </contour>
  </outline>
</glyph>
<glyph name="atelu" format="2">
  <advance width="796"/>
  <unicode hex="0C05"/>
  <outline>
    <contour>
      <point x="389" y="-12" type="curve" smooth="yes"/>
      <point x="666" y="-12"/>
      <point x="767" y="129"/>
      <point x="767" y="288" type="curve" smooth="yes"/>
      <point x="767" y="417"/>
      <point x="693" y="508"/>
      <point x="561" y="508" type="curve" smooth="yes"/>
      <point x="464" y="508"/>
      <point x="409" y="459"/>
      <point x="409" y="384" type="curve" smooth="yes"/>
      <point x="409" y="339"/>
      <point x="425" y="303"/>
      <point x="465" y="274" type="curve"/>
      <point x="450" y="306" type="line"/>
      <point x="345" y="306" type="line"/>
      <point x="345" y="184" type="line"/>
      <point x="573" y="184" type="line"/>
      <point x="573" y="294" type="line"/>
      <point x="557" y="304"/>
      <point x="541" y="320"/>
      <point x="541" y="347" type="curve" smooth="yes"/>
      <point x="541" y="364"/>
      <point x="550" y="379"/>
      <point x="568" y="379" type="curve" smooth="yes"/>
      <point x="587" y="379"/>
      <point x="608" y="359"/>
      <point x="608" y="293" type="curve" smooth="yes"/>
      <point x="608" y="181"/>
      <point x="546" y="131"/>
      <point x="386" y="131" type="curve" smooth="yes"/>
      <point x="219" y="131"/>
      <point x="177" y="194"/>
      <point x="177" y="281" type="curve" smooth="yes"/>
      <point x="177" y="294" type="line" smooth="yes"/>
      <point x="177" y="357"/>
      <point x="192" y="397"/>
      <point x="214" y="397" type="curve" smooth="yes"/>
      <point x="229" y="397"/>
      <point x="236" y="383"/>
      <point x="236" y="357" type="curve" smooth="yes"/>
      <point x="236" y="321"/>
      <point x="222" y="308"/>
      <point x="198" y="308" type="curve" smooth="yes"/>
      <point x="175" y="308"/>
      <point x="148" y="322"/>
      <point x="118" y="358" type="curve"/>
      <point x="81" y="262" type="line"/>
      <point x="113" y="225"/>
      <point x="159" y="202"/>
      <point x="220" y="202" type="curve" smooth="yes"/>
      <point x="300" y="202"/>
      <point x="368" y="242"/>
      <point x="368" y="362" type="curve" smooth="yes"/>
      <point x="368" y="432"/>
      <point x="329" y="508"/>
      <point x="220" y="508" type="curve" smooth="yes"/>
      <point x="100" y="508"/>
      <point x="29" y="413"/>
      <point x="29" y="284" type="curve" smooth="yes"/>
      <point x="29" y="125"/>
      <point x="126" y="-12"/>
    </contour>
  </outline>
</glyph>
<glyph name="aatelu" format="2">
  <advance width="776"/>
  <unicode hex="0C06"/>
  <outline>
    <contour>
      <point x="402" y="-12" type="curve" smooth="yes"/>
      <point x="610" y="-12"/>
      <point x="734" y="49"/>
      <point x="734" y="163" type="curve" smooth="yes"/>
      <point x="734" y="232"/>
      <point x="682" y="280"/>
      <point x="617" y="297" type="curve"/>
      <point x="568" y="321"/>
      <point x="548" y="337"/>
      <point x="548" y="362" type="curve" smooth="yes"/>
      <point x="548" y="379"/>
      <point x="559" y="392"/>
      <point x="579" y="392" type="curve" smooth="yes"/>
      <point x="594" y="392"/>
      <point x="609" y="382"/>
      <point x="609" y="361" type="curve" smooth="yes"/>
      <point x="609" y="341"/>
      <point x="595" y="319"/>
      <point x="569" y="303" type="curve"/>
      <point x="345" y="303" type="line"/>
      <point x="345" y="184" type="line"/>
      <point x="494" y="184" type="line" smooth="yes"/>
      <point x="553" y="184"/>
      <point x="606" y="194"/>
      <point x="645" y="216" type="curve"/>
      <point x="707" y="251"/>
      <point x="749" y="292"/>
      <point x="749" y="370" type="curve" smooth="yes"/>
      <point x="749" y="455"/>
      <point x="681" y="508"/>
      <point x="581" y="508" type="curve" smooth="yes"/>
      <point x="477" y="508"/>
      <point x="418" y="463"/>
      <point x="418" y="390" type="curve" smooth="yes"/>
      <point x="418" y="334"/>
      <point x="455" y="294"/>
      <point x="535" y="254" type="curve"/>
      <point x="559" y="237"/>
      <point x="574" y="221"/>
      <point x="574" y="192" type="curve" smooth="yes"/>
      <point x="574" y="146"/>
      <point x="496" y="131"/>
      <point x="407" y="131" type="curve" smooth="yes"/>
      <point x="221" y="131"/>
      <point x="177" y="190"/>
      <point x="177" y="281" type="curve" smooth="yes"/>
      <point x="177" y="294" type="line" smooth="yes"/>
      <point x="177" y="357"/>
      <point x="192" y="397"/>
      <point x="214" y="397" type="curve" smooth="yes"/>
      <point x="229" y="397"/>
      <point x="236" y="383"/>
      <point x="236" y="357" type="curve" smooth="yes"/>
      <point x="236" y="321"/>
      <point x="222" y="308"/>
      <point x="198" y="308" type="curve" smooth="yes"/>
      <point x="175" y="308"/>
      <point x="148" y="322"/>
      <point x="118" y="358" type="curve"/>
      <point x="81" y="262" type="line"/>
      <point x="113" y="225"/>
      <point x="159" y="202"/>
      <point x="220" y="202" type="curve" smooth="yes"/>
      <point x="300" y="202"/>
      <point x="368" y="242"/>
      <point x="368" y="362" type="curve" smooth="yes"/>
      <point x="368" y="432"/>
      <point x="329" y="508"/>
      <point x="220" y="508" type="curve" smooth="yes"/>
      <point x="100" y="508"/>
      <point x="29" y="413"/>
      <point x="29" y="284" type="curve" smooth="yes"/>
      <point x="29" y="131"/>
      <point x="121" y="-12"/>
    </contour>
  </outline>
</glyph>
<glyph name="iitelu" format="2">
  <advance width="880"/>
  <unicode hex="0C08"/>
  <outline>
    <contour>
      <point x="711" y="5" type="curve" smooth="yes"/>
      <point x="799" y="5"/>
      <point x="855" y="63"/>
      <point x="855" y="152" type="curve" smooth="yes"/>
      <point x="855" y="223"/>
      <point x="822" y="261"/>
      <point x="790" y="282" type="curve" smooth="yes"/>
      <point x="755" y="305"/>
      <point x="706" y="313"/>
      <point x="636" y="313" type="curve" smooth="yes"/>
      <point x="28" y="313" type="line"/>
      <point x="28" y="207" type="line"/>
      <point x="680" y="207" type="line" smooth="yes"/>
      <point x="723" y="207"/>
      <point x="738" y="184"/>
      <point x="738" y="156" type="curve" smooth="yes"/>
      <point x="738" y="127"/>
      <point x="725" y="119"/>
      <point x="712" y="119" type="curve" smooth="yes"/>
      <point x="694" y="119"/>
      <point x="682" y="131"/>
      <point x="682" y="152" type="curve" smooth="yes"/>
      <point x="682" y="186"/>
      <point x="703" y="204"/>
      <point x="746" y="228" type="curve"/>
      <point x="665" y="277" type="line"/>
      <point x="616" y="249"/>
      <point x="568" y="207"/>
      <point x="568" y="135" type="curve" smooth="yes"/>
      <point x="568" y="74"/>
      <point x="609" y="5"/>
    </contour>
    <contour>
      <point x="707" y="495" type="curve" smooth="yes"/>
      <point x="641" y="495"/>
      <point x="589" y="462"/>
      <point x="557" y="392" type="curve"/>
      <point x="672" y="351" type="line"/>
      <point x="684" y="377"/>
      <point x="696" y="389"/>
      <point x="711" y="389" type="curve" smooth="yes"/>
      <point x="722" y="389"/>
      <point x="727" y="381"/>
      <point x="727" y="368" type="curve" smooth="yes"/>
      <point x="727" y="343"/>
      <point x="702" y="319"/>
      <point x="668" y="291" type="curve"/>
      <point x="756" y="233" type="line"/>
      <point x="814" y="274"/>
      <point x="848" y="315"/>
      <point x="848" y="377" type="curve" smooth="yes"/>
      <point x="848" y="433"/>
      <point x="805" y="495"/>
    </contour>
    <contour>
      <point x="66" y="243" type="curve" smooth="yes"/>
      <point x="66" y="101"/>
      <point x="133" y="-12"/>
      <point x="298" y="-12" type="curve" smooth="yes"/>
      <point x="462" y="-12"/>
      <point x="534" y="95"/>
      <point x="534" y="245" type="curve" smooth="yes"/>
      <point x="534" y="398"/>
      <point x="454" y="508"/>
      <point x="301" y="508" type="curve" smooth="yes"/>
      <point x="138" y="508"/>
      <point x="66" y="388"/>
    </contour>
    <contour>
      <point x="222" y="253" type="curve" smooth="yes"/>
      <point x="222" y="334"/>
      <point x="249" y="374"/>
      <point x="302" y="374" type="curve" smooth="yes"/>
      <point x="351" y="374"/>
      <point x="378" y="332"/>
      <point x="378" y="248" type="curve" smooth="yes"/>
      <point x="378" y="169"/>
      <point x="349" y="132"/>
      <point x="299" y="132" type="curve" smooth="yes"/>
      <point x="246" y="132"/>
      <point x="222" y="170"/>
    </contour>
    <component base="hattelu" xOffset="176"/>
  </outline>
</glyph>
<glyph name="utelu" format="2">
  <advance width="753"/>
  <unicode hex="0C09"/>
  <outline>
    <contour>
      <point x="498" y="-12" type="curve" smooth="yes"/>
      <point x="639" y="-12"/>
      <point x="674" y="84"/>
      <point x="674" y="152" type="curve" smooth="yes"/>
      <point x="674" y="234"/>
      <point x="618" y="275"/>
      <point x="537" y="275" type="curve" smooth="yes"/>
      <point x="463" y="275"/>
      <point x="422" y="230"/>
      <point x="422" y="175" type="curve" smooth="yes"/>
      <point x="422" y="130"/>
      <point x="440" y="92"/>
      <point x="460" y="59" type="curve"/>
      <point x="548" y="86" type="line"/>
      <point x="529" y="110"/>
      <point x="520" y="134"/>
      <point x="520" y="162" type="curve" smooth="yes"/>
      <point x="520" y="173"/>
      <point x="525" y="192"/>
      <point x="540" y="192" type="curve" smooth="yes"/>
      <point x="555" y="192"/>
      <point x="561" y="179"/>
      <point x="561" y="160" type="curve" smooth="yes"/>
      <point x="561" y="131"/>
      <point x="548" y="117"/>
      <point x="519" y="117" type="curve" smooth="yes"/>
      <point x="505" y="117"/>
      <point x="471" y="118"/>
      <point x="456" y="121" type="curve"/>
      <point x="415" y="125"/>
      <point x="390" y="144"/>
      <point x="387" y="191" type="curve"/>
      <point x="262" y="191" type="line"/>
      <point x="258" y="145"/>
      <point x="243" y="131"/>
      <point x="218" y="131" type="curve" smooth="yes"/>
      <point x="190" y="131"/>
      <point x="181" y="155"/>
      <point x="181" y="203" type="curve" smooth="yes"/>
      <point x="181" y="233"/>
      <point x="183" y="259"/>
      <point x="193" y="282" type="curve"/>
      <point x="212" y="342"/>
      <point x="270" y="374"/>
      <point x="354" y="374" type="curve" smooth="yes"/>
      <point x="423" y="374"/>
      <point x="494" y="356"/>
      <point x="557" y="328" type="curve"/>
      <point x="623" y="450" type="line"/>
      <point x="542" y="487"/>
      <point x="451" y="507"/>
      <point x="350" y="507" type="curve" smooth="yes"/>
      <point x="155" y="507"/>
      <point x="31" y="395"/>
      <point x="31" y="201" type="curve" smooth="yes"/>
      <point x="31" y="67"/>
      <point x="85" y="-12"/>
      <point x="198" y="-12" type="curve" smooth="yes"/>
      <point x="274" y="-12"/>
      <point x="312" y="13"/>
      <point x="363" y="94" type="curve"/>
      <point x="312" y="73" type="line"/>
      <point x="347" y="21"/>
      <point x="408" y="-12"/>
    </contour>
    <contour>
      <point x="85" y="220" type="line"/>
      <point x="725" y="220" type="line"/>
      <point x="725" y="326" type="line"/>
      <point x="150" y="326" type="line"/>
    </contour>
    <contour>
      <point x="431" y="628" type="line"/>
      <point x="288" y="628" type="line"/>
      <point x="293" y="490" type="line"/>
      <point x="426" y="490" type="line"/>
    </contour>
  </outline>
</glyph>
<glyph name="uutelu" format="2">
  <advance width="1026"/>
  <unicode hex="0C0A"/>
  <outline>
    <contour>
      <point x="498" y="-12" type="curve" smooth="yes"/>
      <point x="639" y="-12"/>
      <point x="674" y="84"/>
      <point x="674" y="152" type="curve" smooth="yes"/>
      <point x="674" y="234"/>
      <point x="618" y="275"/>
      <point x="537" y="275" type="curve" smooth="yes"/>
      <point x="463" y="275"/>
      <point x="422" y="230"/>
      <point x="422" y="175" type="curve" smooth="yes"/>
      <point x="422" y="130"/>
      <point x="440" y="92"/>
      <point x="460" y="59" type="curve"/>
      <point x="548" y="86" type="line"/>
      <point x="529" y="110"/>
      <point x="520" y="134"/>
      <point x="520" y="162" type="curve" smooth="yes"/>
      <point x="520" y="173"/>
      <point x="525" y="192"/>
      <point x="540" y="192" type="curve" smooth="yes"/>
      <point x="555" y="192"/>
      <point x="561" y="179"/>
      <point x="561" y="160" type="curve" smooth="yes"/>
      <point x="561" y="131"/>
      <point x="548" y="117"/>
      <point x="519" y="117" type="curve" smooth="yes"/>
      <point x="505" y="117"/>
      <point x="471" y="118"/>
      <point x="456" y="121" type="curve"/>
      <point x="415" y="125"/>
      <point x="390" y="144"/>
      <point x="387" y="191" type="curve"/>
      <point x="262" y="191" type="line"/>
      <point x="258" y="145"/>
      <point x="243" y="131"/>
      <point x="218" y="131" type="curve" smooth="yes"/>
      <point x="190" y="131"/>
      <point x="181" y="155"/>
      <point x="181" y="203" type="curve" smooth="yes"/>
      <point x="181" y="233"/>
      <point x="183" y="259"/>
      <point x="193" y="282" type="curve"/>
      <point x="212" y="342"/>
      <point x="270" y="374"/>
      <point x="354" y="374" type="curve" smooth="yes"/>
      <point x="423" y="374"/>
      <point x="494" y="356"/>
      <point x="557" y="328" type="curve"/>
      <point x="623" y="450" type="line"/>
      <point x="542" y="487"/>
      <point x="451" y="507"/>
      <point x="350" y="507" type="curve" smooth="yes"/>
      <point x="155" y="507"/>
      <point x="31" y="395"/>
      <point x="31" y="201" type="curve" smooth="yes"/>
      <point x="31" y="67"/>
      <point x="85" y="-12"/>
      <point x="198" y="-12" type="curve" smooth="yes"/>
      <point x="274" y="-12"/>
      <point x="312" y="13"/>
      <point x="363" y="94" type="curve"/>
      <point x="312" y="73" type="line"/>
      <point x="347" y="21"/>
      <point x="408" y="-12"/>
    </contour>
    <contour>
      <point x="857" y="18" type="curve" smooth="yes"/>
      <point x="945" y="18"/>
      <point x="1001" y="76"/>
      <point x="1001" y="165" type="curve" smooth="yes"/>
      <point x="1001" y="236"/>
      <point x="968" y="274"/>
      <point x="936" y="295" type="curve" smooth="yes"/>
      <point x="901" y="318"/>
      <point x="852" y="326"/>
      <point x="782" y="326" type="curve" smooth="yes"/>
      <point x="148" y="326" type="line"/>
      <point x="118" y="220" type="line"/>
      <point x="826" y="220" type="line" smooth="yes"/>
      <point x="869" y="220"/>
      <point x="884" y="197"/>
      <point x="884" y="169" type="curve" smooth="yes"/>
      <point x="884" y="140"/>
      <point x="871" y="132"/>
      <point x="858" y="132" type="curve" smooth="yes"/>
      <point x="840" y="132"/>
      <point x="828" y="144"/>
      <point x="828" y="165" type="curve" smooth="yes"/>
      <point x="828" y="199"/>
      <point x="849" y="217"/>
      <point x="892" y="241" type="curve"/>
      <point x="811" y="290" type="line"/>
      <point x="762" y="262"/>
      <point x="714" y="220"/>
      <point x="714" y="148" type="curve" smooth="yes"/>
      <point x="714" y="87"/>
      <point x="755" y="18"/>
    </contour>
    <contour>
      <point x="843" y="508" type="curve" smooth="yes"/>
      <point x="777" y="508"/>
      <point x="725" y="475"/>
      <point x="693" y="405" type="curve"/>
      <point x="808" y="364" type="line"/>
      <point x="820" y="390"/>
      <point x="832" y="402"/>
      <point x="847" y="402" type="curve" smooth="yes"/>
      <point x="858" y="402"/>
      <point x="863" y="394"/>
      <point x="863" y="381" type="curve" smooth="yes"/>
      <point x="863" y="356"/>
      <point x="838" y="332"/>
      <point x="804" y="304" type="curve"/>
      <point x="892" y="246" type="line"/>
      <point x="950" y="287"/>
      <point x="984" y="328"/>
      <point x="984" y="390" type="curve" smooth="yes"/>
      <point x="984" y="446"/>
      <point x="941" y="508"/>
    </contour>
    <contour>
      <point x="345" y="628" type="line"/>
      <point x="202" y="628" type="line"/>
      <point x="207" y="480" type="line"/>
      <point x="340" y="490" type="line"/>
    </contour>
    <contour>
      <point x="517" y="628" type="line"/>
      <point x="374" y="628" type="line"/>
      <point x="379" y="490" type="line"/>
      <point x="512" y="483" type="line"/>
    </contour>
  </outline>
</glyph>
<glyph name="lvocalictelu" format="2">
  <advance width="823"/>
  <unicode hex="0C0C"/>
  <outline>
    <contour>
      <point x="500" y="-122" type="curve" smooth="yes"/>
      <point x="695" y="-122"/>
      <point x="789" y="17"/>
      <point x="789" y="228" type="curve" smooth="yes"/>
      <point x="789" y="325"/>
      <point x="757" y="419"/>
      <point x="693" y="508" type="curve"/>
      <point x="565" y="423" type="line"/>
      <point x="605" y="369"/>
      <point x="630" y="302"/>
      <point x="630" y="228" type="curve" smooth="yes"/>
      <point x="630" y="82"/>
      <point x="575" y="20"/>
      <point x="513" y="20" type="curve" smooth="yes"/>
      <point x="480" y="20"/>
      <point x="463" y="40"/>
      <point x="463" y="69" type="curve" smooth="yes"/>
      <point x="463" y="93"/>
      <point x="471" y="117"/>
      <point x="520" y="197" type="curve" smooth="yes"/>
      <point x="548" y="243"/>
      <point x="574" y="300"/>
      <point x="574" y="365" type="curve" smooth="yes"/>
      <point x="574" y="429"/>
      <point x="538" y="508"/>
      <point x="430" y="508" type="curve" smooth="yes"/>
      <point x="365" y="508"/>
      <point x="320" y="478"/>
      <point x="278" y="408" type="curve"/>
      <point x="321" y="409" type="line"/>
      <point x="289" y="468"/>
      <point x="245" y="508"/>
      <point x="175" y="508" type="curve" smooth="yes"/>
      <point x="81" y="508"/>
      <point x="26" y="443"/>
      <point x="26" y="361" type="curve" smooth="yes"/>
      <point x="26" y="313"/>
      <point x="38" y="276"/>
      <point x="50" y="245" type="curve"/>
      <point x="197" y="284" type="line"/>
      <point x="188" y="303"/>
      <point x="185" y="320"/>
      <point x="185" y="336" type="curve" smooth="yes"/>
      <point x="185" y="355"/>
      <point x="195" y="365"/>
      <point x="205" y="365" type="curve" smooth="yes"/>
      <point x="222" y="365"/>
      <point x="229" y="347"/>
      <point x="231" y="299" type="curve"/>
      <point x="369" y="299" type="line"/>
      <point x="372" y="355"/>
      <point x="386" y="366"/>
      <point x="401" y="366" type="curve" smooth="yes"/>
      <point x="412" y="366"/>
      <point x="420" y="356"/>
      <point x="420" y="340" type="curve" smooth="yes"/>
      <point x="420" y="318"/>
      <point x="409" y="298"/>
      <point x="382" y="252" type="curve" smooth="yes"/>
      <point x="326" y="159"/>
      <point x="307" y="113"/>
      <point x="307" y="53" type="curve" smooth="yes"/>
      <point x="307" y="-45"/>
      <point x="372" y="-122"/>
    </contour>
  </outline>
</glyph>
<glyph name="eetelu" format="2">
  <advance width="647"/>
  <unicode hex="0C0F"/>
  <outline>
    <contour>
      <point x="450" y="-12" type="curve" smooth="yes"/>
      <point x="563" y="-12"/>
      <point x="616" y="69"/>
      <point x="616" y="201" type="curve" smooth="yes"/>
      <point x="616" y="436"/>
      <point x="492" y="620"/>
      <point x="353" y="740" type="curve"/>
      <point x="244" y="619" type="line"/>
      <point x="373" y="508"/>
      <point x="457" y="353"/>
      <point x="457" y="190" type="curve" smooth="yes"/>
      <point x="457" y="148"/>
      <point x="447" y="131"/>
      <point x="427" y="131" type="curve" smooth="yes"/>
      <point x="402" y="131"/>
      <point x="392" y="144"/>
      <point x="353" y="208" type="curve" smooth="yes"/>
      <point x="298" y="299"/>
      <point x="249" y="321"/>
      <point x="185" y="321" type="curve" smooth="yes"/>
      <point x="87" y="321"/>
      <point x="26" y="254"/>
      <point x="26" y="150" type="curve" smooth="yes"/>
      <point x="26" y="62"/>
      <point x="72" y="-12"/>
      <point x="178" y="-12" type="curve" smooth="yes"/>
      <point x="266" y="-12"/>
      <point x="304" y="46"/>
      <point x="333" y="104" type="curve"/>
      <point x="244" y="179" type="line"/>
      <point x="229" y="125"/>
      <point x="218" y="104"/>
      <point x="193" y="104" type="curve" smooth="yes"/>
      <point x="179" y="104"/>
      <point x="163" y="116"/>
      <point x="163" y="151" type="curve" smooth="yes"/>
      <point x="163" y="180"/>
      <point x="173" y="197"/>
      <point x="191" y="197" type="curve" smooth="yes"/>
      <point x="205" y="197"/>
      <point x="218" y="188"/>
      <point x="248" y="127" type="curve" smooth="yes"/>
      <point x="305" y="12"/>
      <point x="368" y="-12"/>
    </contour>
    <contour>
      <point x="67" y="684" type="curve" smooth="yes"/>
      <point x="67" y="620"/>
      <point x="90" y="550"/>
      <point x="132" y="468" type="curve"/>
      <point x="269" y="524" type="line"/>
      <point x="236" y="577"/>
      <point x="213" y="627"/>
      <point x="213" y="670" type="curve" smooth="yes"/>
      <point x="213" y="696"/>
      <point x="227" y="715"/>
      <point x="255" y="715" type="curve" smooth="yes"/>
      <point x="267" y="715"/>
      <point x="281" y="712"/>
      <point x="288" y="709" type="curve"/>
      <point x="322" y="826" type="line"/>
      <point x="296" y="836"/>
      <point x="264" y="844"/>
      <point x="227" y="844" type="curve" smooth="yes"/>
      <point x="113" y="844"/>
      <point x="67" y="764"/>
    </contour>
  </outline>
</glyph>
<glyph name="aitelu" format="2">
  <advance width="681"/>
  <unicode hex="0C10"/>
  <outline>
    <contour>
      <point x="472" y="-12" type="curve" smooth="yes"/>
      <point x="596" y="-12"/>
      <point x="649" y="87"/>
      <point x="649" y="247" type="curve" smooth="yes"/>
      <point x="649" y="383"/>
      <point x="598" y="508"/>
      <point x="470" y="508" type="curve" smooth="yes"/>
      <point x="394" y="508"/>
      <point x="352" y="472"/>
      <point x="316" y="410" type="curve"/>
      <point x="355" y="405" type="line"/>
      <point x="309" y="486"/>
      <point x="257" y="516"/>
      <point x="181" y="516" type="curve" smooth="yes"/>
      <point x="75" y="516"/>
      <point x="29" y="454"/>
      <point x="29" y="378" type="curve" smooth="yes"/>
      <point x="29" y="346"/>
      <point x="36" y="324"/>
      <point x="44" y="300" type="curve"/>
      <point x="192" y="335" type="line"/>
      <point x="189" y="344"/>
      <point x="188" y="355"/>
      <point x="188" y="360" type="curve" smooth="yes"/>
      <point x="188" y="379"/>
      <point x="198" y="388"/>
      <point x="214" y="388" type="curve" smooth="yes"/>
      <point x="238" y="388"/>
      <point x="253" y="366"/>
      <point x="264" y="325" type="curve"/>
      <point x="404" y="325" type="line"/>
      <point x="412" y="354"/>
      <point x="423" y="368"/>
      <point x="441" y="368" type="curve" smooth="yes"/>
      <point x="472" y="368"/>
      <point x="490" y="317"/>
      <point x="490" y="244" type="curve" smooth="yes"/>
      <point x="490" y="167"/>
      <point x="478" y="131"/>
      <point x="449" y="131" type="curve" smooth="yes"/>
      <point x="424" y="131"/>
      <point x="415" y="143"/>
      <point x="377" y="204" type="curve" smooth="yes"/>
      <point x="320" y="296"/>
      <point x="271" y="317"/>
      <point x="207" y="317" type="curve" smooth="yes"/>
      <point x="112" y="317"/>
      <point x="48" y="254"/>
      <point x="48" y="150" type="curve" smooth="yes"/>
      <point x="48" y="62"/>
      <point x="94" y="-12"/>
      <point x="200" y="-12" type="curve" smooth="yes"/>
      <point x="288" y="-12"/>
      <point x="326" y="46"/>
      <point x="355" y="104" type="curve"/>
      <point x="266" y="179" type="line"/>
      <point x="251" y="125"/>
      <point x="240" y="104"/>
      <point x="215" y="104" type="curve" smooth="yes"/>
      <point x="201" y="104"/>
      <point x="185" y="116"/>
      <point x="185" y="151" type="curve" smooth="yes"/>
      <point x="185" y="180"/>
      <point x="195" y="197"/>
      <point x="213" y="197" type="curve" smooth="yes"/>
      <point x="227" y="197"/>
      <point x="240" y="188"/>
      <point x="270" y="127" type="curve" smooth="yes"/>
      <point x="327" y="12"/>
      <point x="390" y="-12"/>
    </contour>
  </outline>
</glyph>
<glyph name="autelu" format="2">
  <advance width="681"/>
  <unicode hex="0C14"/>
  <outline>
    <contour>
      <point x="527" y="382" type="curve" smooth="yes"/>
      <point x="615" y="382"/>
      <point x="671" y="440"/>
      <point x="671" y="538" type="curve" smooth="yes"/>
      <point x="671" y="599"/>
      <point x="649" y="643"/>
      <point x="615" y="671" type="curve" smooth="yes"/>
      <point x="575" y="704"/>
      <point x="521" y="718"/>
      <point x="436" y="718" type="curve" smooth="yes"/>
      <point x="34" y="718" type="line"/>
      <point x="34" y="584" type="line"/>
      <point x="135" y="584" type="line" smooth="yes"/>
      <point x="163" y="584"/>
      <point x="179" y="581"/>
      <point x="188" y="574" type="curve" smooth="yes"/>
      <point x="196" y="568"/>
      <point x="200" y="559"/>
      <point x="200" y="546" type="curve" smooth="yes"/>
      <point x="200" y="535"/>
      <point x="198" y="528"/>
      <point x="193" y="522" type="curve" smooth="yes"/>
      <point x="185" y="512"/>
      <point x="169" y="508"/>
      <point x="139" y="508" type="curve" smooth="yes"/>
      <point x="93" y="508" type="line"/>
      <point x="93" y="395" type="line"/>
      <point x="141" y="395" type="line" smooth="yes"/>
      <point x="219" y="395"/>
      <point x="272" y="415"/>
      <point x="296" y="441" type="curve" smooth="yes"/>
      <point x="320" y="467"/>
      <point x="339" y="494"/>
      <point x="339" y="550" type="curve" smooth="yes"/>
      <point x="339" y="562"/>
      <point x="337" y="574"/>
      <point x="334" y="584" type="curve"/>
      <point x="496" y="584" type="line" smooth="yes"/>
      <point x="539" y="584"/>
      <point x="554" y="561"/>
      <point x="554" y="533" type="curve" smooth="yes"/>
      <point x="554" y="505"/>
      <point x="541" y="496"/>
      <point x="528" y="496" type="curve" smooth="yes"/>
      <point x="509" y="496"/>
      <point x="499" y="509"/>
      <point x="499" y="537" type="curve" smooth="yes"/>
      <point x="499" y="570"/>
      <point x="520" y="608"/>
      <point x="543" y="635" type="curve"/>
      <point x="426" y="647" type="line"/>
      <point x="404" y="617"/>
      <point x="385" y="573"/>
      <point x="385" y="523" type="curve" smooth="yes"/>
      <point x="385" y="451"/>
      <point x="422" y="382"/>
    </contour>
    <component base="otelu"/>
  </outline>
</glyph>
<glyph name="khatelu" format="2">
  <advance width="716"/>
  <unicode hex="0C16"/>
  <outline>
    <contour>
      <point x="493" y="-12" type="curve" smooth="yes"/>
      <point x="626" y="-12"/>
      <point x="685" y="67"/>
      <point x="685" y="195" type="curve" smooth="yes"/>
      <point x="685" y="340"/>
      <point x="616" y="443"/>
      <point x="532" y="509" type="curve"/>
      <point x="419" y="393" type="line"/>
      <point x="480" y="345"/>
      <point x="526" y="266"/>
      <point x="526" y="191" type="curve" smooth="yes"/>
      <point x="526" y="144"/>
      <point x="502" y="131"/>
      <point x="469" y="131" type="curve" smooth="yes"/>
      <point x="431" y="131"/>
      <point x="407" y="144"/>
      <point x="368" y="179" type="curve"/>
      <point x="304" y="190" type="line"/>
      <point x="272" y="218"/>
      <point x="222" y="241"/>
      <point x="162" y="241" type="curve" smooth="yes"/>
      <point x="82" y="241"/>
      <point x="25" y="193"/>
      <point x="25" y="119" type="curve" smooth="yes"/>
      <point x="25" y="40"/>
      <point x="75" y="-12"/>
      <point x="176" y="-12" type="curve" smooth="yes"/>
      <point x="347" y="-12"/>
      <point x="420" y="124"/>
      <point x="420" y="264" type="curve" smooth="yes"/>
      <point x="420" y="389"/>
      <point x="353" y="508"/>
      <point x="198" y="508" type="curve" smooth="yes"/>
      <point x="92" y="508"/>
      <point x="33" y="449"/>
      <point x="33" y="372" type="curve" smooth="yes"/>
      <point x="33" y="288"/>
      <point x="85" y="247"/>
      <point x="154" y="247" type="curve" smooth="yes"/>
      <point x="240" y="247"/>
      <point x="265" y="305"/>
      <point x="265" y="357" type="curve" smooth="yes"/>
      <point x="265" y="402"/>
      <point x="245" y="442"/>
      <point x="228" y="472" type="curve"/>
      <point x="146" y="453" type="line"/>
      <point x="168" y="437"/>
      <point x="190" y="403"/>
      <point x="190" y="378" type="curve" smooth="yes"/>
      <point x="190" y="362"/>
      <point x="189" y="345"/>
      <point x="169" y="345" type="curve" smooth="yes"/>
      <point x="158" y="345"/>
      <point x="149" y="355"/>
      <point x="149" y="375" type="curve" smooth="yes"/>
      <point x="149" y="393"/>
      <point x="158" y="407"/>
      <point x="179" y="407" type="curve" smooth="yes"/>
      <point x="190" y="407"/>
      <point x="201" y="405"/>
      <point x="209" y="401" type="curve" smooth="yes"/>
      <point x="214" y="399"/>
      <point x="226" y="403"/>
      <point x="230" y="400" type="curve" smooth="yes"/>
      <point x="266" y="370"/>
      <point x="273" y="311"/>
      <point x="273" y="261" type="curve" smooth="yes"/>
      <point x="273" y="169"/>
      <point x="247" y="98"/>
      <point x="173" y="98" type="curve" smooth="yes"/>
      <point x="156" y="98"/>
      <point x="141" y="104"/>
      <point x="141" y="121" type="curve" smooth="yes"/>
      <point x="141" y="136"/>
      <point x="155" y="142"/>
      <point x="170" y="142" type="curve" smooth="yes"/>
      <point x="199" y="142"/>
      <point x="226" y="124"/>
      <point x="256" y="99" type="curve"/>
      <point x="288" y="72" type="line"/>
      <point x="339" y="25"/>
      <point x="394" y="-12"/>
    </contour>
    <contour>
      <point x="257" y="-137" type="line"/>
      <point x="400" y="-137" type="line"/>
      <point x="395" y="-1" type="line"/>
      <point x="262" y="-1" type="line"/>
    </contour>
  </outline>
</glyph>
<glyph name="ngatelu" format="2">
  <advance width="681"/>
  <unicode hex="0C19"/>
  <outline>
    <contour>
      <point x="490" y="-12" type="curve" smooth="yes"/>
      <point x="603" y="-12"/>
      <point x="655" y="68"/>
      <point x="655" y="150" type="curve" smooth="yes"/>
      <point x="655" y="200"/>
      <point x="645" y="235"/>
      <point x="631" y="263" type="curve"/>
      <point x="483" y="227" type="line"/>
      <point x="491" y="209"/>
      <point x="496" y="190"/>
      <point x="496" y="173" type="curve" smooth="yes"/>
      <point x="496" y="150"/>
      <point x="487" y="131"/>
      <point x="464" y="131" type="curve" smooth="yes"/>
      <point x="438" y="131"/>
      <point x="424" y="153"/>
      <point x="420" y="200" type="curve"/>
      <point x="281" y="200" type="line"/>
      <point x="275" y="164"/>
      <point x="261" y="128"/>
      <point x="226" y="128" type="curve" smooth="yes"/>
      <point x="207" y="128"/>
      <point x="199" y="139"/>
      <point x="199" y="154" type="curve" smooth="yes"/>
      <point x="199" y="171"/>
      <point x="212" y="184"/>
      <point x="253" y="208" type="curve" smooth="yes"/>
      <point x="331" y="254"/>
      <point x="365" y="304"/>
      <point x="365" y="371" type="curve" smooth="yes"/>
      <point x="365" y="441"/>
      <point x="320" y="508"/>
      <point x="198" y="508" type="curve" smooth="yes"/>
      <point x="87" y="508"/>
      <point x="28" y="450"/>
      <point x="28" y="382" type="curve" smooth="yes"/>
      <point x="28" y="348"/>
      <point x="36" y="322"/>
      <point x="48" y="293" type="curve"/>
      <point x="183" y="331" type="line"/>
      <point x="179" y="341"/>
      <point x="175" y="355"/>
      <point x="175" y="369" type="curve" smooth="yes"/>
      <point x="175" y="386"/>
      <point x="183" y="396"/>
      <point x="197" y="396" type="curve" smooth="yes"/>
      <point x="211" y="396"/>
      <point x="218" y="386"/>
      <point x="218" y="370" type="curve" smooth="yes"/>
      <point x="218" y="343"/>
      <point x="204" y="326"/>
      <point x="149" y="292" type="curve" smooth="yes"/>
      <point x="76" y="247"/>
      <point x="40" y="201"/>
      <point x="40" y="132" type="curve" smooth="yes"/>
      <point x="40" y="53"/>
      <point x="84" y="-12"/>
      <point x="190" y="-12" type="curve" smooth="yes"/>
      <point x="280" y="-12"/>
      <point x="332" y="15"/>
      <point x="376" y="94" type="curve"/>
      <point x="318" y="94" type="line"/>
      <point x="366" y="18"/>
      <point x="404" y="-12"/>
    </contour>
    <contour>
      <point x="294" y="269" type="line"/>
      <point x="602" y="269" type="line"/>
      <point x="602" y="380" type="line"/>
      <point x="297" y="380" type="line"/>
    </contour>
    <contour>
      <point x="542" y="508" type="line"/>
      <point x="399" y="508" type="line"/>
      <point x="404" y="370" type="line"/>
      <point x="537" y="370" type="line"/>
    </contour>
  </outline>
</glyph>
<glyph name="jatelu" format="2">
  <advance width="681"/>
  <unicode hex="0C1C"/>
  <outline>
    <contour>
      <point x="490" y="-12" type="curve" smooth="yes"/>
      <point x="603" y="-12"/>
      <point x="655" y="68"/>
      <point x="655" y="150" type="curve" smooth="yes"/>
      <point x="655" y="200"/>
      <point x="645" y="235"/>
      <point x="631" y="263" type="curve"/>
      <point x="483" y="227" type="line"/>
      <point x="491" y="209"/>
      <point x="496" y="190"/>
      <point x="496" y="173" type="curve" smooth="yes"/>
      <point x="496" y="150"/>
      <point x="487" y="131"/>
      <point x="464" y="131" type="curve" smooth="yes"/>
      <point x="438" y="131"/>
      <point x="424" y="153"/>
      <point x="420" y="200" type="curve"/>
      <point x="281" y="200" type="line"/>
      <point x="275" y="164"/>
      <point x="261" y="128"/>
      <point x="226" y="128" type="curve" smooth="yes"/>
      <point x="207" y="128"/>
      <point x="199" y="139"/>
      <point x="199" y="154" type="curve" smooth="yes"/>
      <point x="199" y="171"/>
      <point x="212" y="184"/>
      <point x="253" y="208" type="curve" smooth="yes"/>
      <point x="331" y="254"/>
      <point x="363" y="304"/>
      <point x="363" y="371" type="curve" smooth="yes"/>
      <point x="363" y="441"/>
      <point x="320" y="508"/>
      <point x="198" y="508" type="curve" smooth="yes"/>
      <point x="87" y="508"/>
      <point x="28" y="450"/>
      <point x="28" y="382" type="curve" smooth="yes"/>
      <point x="28" y="348"/>
      <point x="36" y="322"/>
      <point x="48" y="293" type="curve"/>
      <point x="183" y="331" type="line"/>
      <point x="179" y="341"/>
      <point x="175" y="355"/>
      <point x="175" y="369" type="curve" smooth="yes"/>
      <point x="175" y="386"/>
      <point x="183" y="396"/>
      <point x="197" y="396" type="curve" smooth="yes"/>
      <point x="211" y="396"/>
      <point x="218" y="386"/>
      <point x="218" y="370" type="curve" smooth="yes"/>
      <point x="218" y="343"/>
      <point x="204" y="326"/>
      <point x="149" y="292" type="curve" smooth="yes"/>
      <point x="76" y="247"/>
      <point x="40" y="201"/>
      <point x="40" y="132" type="curve" smooth="yes"/>
      <point x="40" y="53"/>
      <point x="84" y="-12"/>
      <point x="190" y="-12" type="curve" smooth="yes"/>
      <point x="280" y="-12"/>
      <point x="332" y="15"/>
      <point x="376" y="94" type="curve"/>
      <point x="318" y="94" type="line"/>
      <point x="366" y="18"/>
      <point x="404" y="-12"/>
    </contour>
    <contour>
      <point x="615" y="376" type="curve" smooth="yes"/>
      <point x="615" y="464"/>
      <point x="557" y="508"/>
      <point x="457" y="508" type="curve" smooth="yes"/>
      <point x="431" y="508"/>
      <point x="406" y="505"/>
      <point x="391" y="501" type="curve"/>
      <point x="407" y="391" type="line"/>
      <point x="417" y="393"/>
      <point x="429" y="394"/>
      <point x="441" y="394" type="curve" smooth="yes"/>
      <point x="463" y="394"/>
      <point x="473" y="386"/>
      <point x="473" y="374" type="curve" smooth="yes"/>
      <point x="473" y="360"/>
      <point x="462" y="353"/>
      <point x="439" y="353" type="curve" smooth="yes"/>
      <point x="390" y="353"/>
      <point x="359" y="381"/>
      <point x="324" y="444" type="curve"/>
      <point x="274" y="350" type="line"/>
      <point x="315" y="281"/>
      <point x="371" y="239"/>
      <point x="458" y="239" type="curve" smooth="yes"/>
      <point x="562" y="239"/>
      <point x="615" y="294"/>
    </contour>
  </outline>
</glyph>
<glyph name="nyatelu" format="2">
  <advance width="851"/>
  <unicode hex="0C1E"/>
  <outline>
    <contour>
      <point x="279" y="-12" type="curve" smooth="yes"/>
      <point x="356" y="-12"/>
      <point x="407" y="5"/>
      <point x="447" y="44" type="curve" smooth="yes"/>
      <point x="459" y="55"/>
      <point x="496" y="50"/>
      <point x="508" y="60" type="curve" smooth="yes"/>
      <point x="571" y="113"/>
      <point x="603" y="199"/>
      <point x="603" y="301" type="curve" smooth="yes"/>
      <point x="603" y="404"/>
      <point x="568" y="508"/>
      <point x="451" y="508" type="curve" smooth="yes"/>
      <point x="374" y="508"/>
      <point x="332" y="472"/>
      <point x="296" y="410" type="curve"/>
      <point x="333" y="412" type="line"/>
      <point x="281" y="496"/>
      <point x="232" y="508"/>
      <point x="178" y="508" type="curve" smooth="yes"/>
      <point x="85" y="508"/>
      <point x="26" y="455"/>
      <point x="26" y="368" type="curve" smooth="yes"/>
      <point x="26" y="331"/>
      <point x="36" y="297"/>
      <point x="48" y="265" type="curve"/>
      <point x="194" y="303" type="line"/>
      <point x="190" y="312"/>
      <point x="185" y="329"/>
      <point x="185" y="345" type="curve" smooth="yes"/>
      <point x="185" y="362"/>
      <point x="193" y="373"/>
      <point x="208" y="373" type="curve" smooth="yes"/>
      <point x="227" y="373"/>
      <point x="239" y="355"/>
      <point x="243" y="315" type="curve"/>
      <point x="384" y="315" type="line"/>
      <point x="386" y="355"/>
      <point x="400" y="367"/>
      <point x="415" y="367" type="curve" smooth="yes"/>
      <point x="442" y="367"/>
      <point x="448" y="327"/>
      <point x="448" y="293" type="curve" smooth="yes"/>
      <point x="448" y="254"/>
      <point x="435" y="205"/>
      <point x="415" y="169" type="curve" smooth="yes"/>
      <point x="393" y="132"/>
      <point x="348" y="105"/>
      <point x="298" y="105" type="curve" smooth="yes"/>
      <point x="254" y="105"/>
      <point x="241" y="119"/>
      <point x="241" y="137" type="curve" smooth="yes"/>
      <point x="241" y="154"/>
      <point x="254" y="167"/>
      <point x="290" y="167" type="curve" smooth="yes"/>
      <point x="366" y="167"/>
      <point x="419" y="99"/>
      <point x="419" y="12" type="curve" smooth="yes"/>
      <point x="419" y="-16"/>
      <point x="414" y="-47"/>
      <point x="408" y="-65" type="curve"/>
      <point x="552" y="-97" type="line"/>
      <point x="560" y="-64"/>
      <point x="568" y="-30"/>
      <point x="568" y="14" type="curve" smooth="yes"/>
      <point x="568" y="104"/>
      <point x="535" y="147"/>
      <point x="498" y="178" type="curve"/>
      <point x="431" y="253"/>
      <point x="358" y="280"/>
      <point x="274" y="280" type="curve" smooth="yes"/>
      <point x="158" y="280"/>
      <point x="83" y="226"/>
      <point x="83" y="138" type="curve" smooth="yes"/>
      <point x="83" y="53"/>
      <point x="140" y="-12"/>
    </contour>
    <contour>
      <point x="518" y="269" type="line"/>
      <point x="826" y="269" type="line"/>
      <point x="826" y="380" type="line"/>
      <point x="521" y="380" type="line"/>
    </contour>
    <contour>
      <point x="766" y="508" type="line"/>
      <point x="623" y="508" type="line"/>
      <point x="628" y="370" type="line"/>
      <point x="761" y="370" type="line"/>
    </contour>
  </outline>
</glyph>
<glyph name="nnatelu" format="2">
  <advance width="760"/>
  <unicode hex="0C23"/>
  <outline>
    <contour>
      <point x="540" y="-12" type="curve" smooth="yes"/>
      <point x="650" y="-12"/>
      <point x="728" y="63"/>
      <point x="728" y="238" type="curve" smooth="yes"/>
      <point x="728" y="410"/>
      <point x="644" y="508"/>
      <point x="520" y="508" type="curve" smooth="yes"/>
      <point x="434" y="508"/>
      <point x="383" y="463"/>
      <point x="349" y="405" type="curve"/>
      <point x="406" y="414" type="line"/>
      <point x="346" y="486"/>
      <point x="286" y="508"/>
      <point x="210" y="508" type="curve" smooth="yes"/>
      <point x="95" y="508"/>
      <point x="34" y="445"/>
      <point x="34" y="368" type="curve" smooth="yes"/>
      <point x="34" y="300"/>
      <point x="70" y="252"/>
      <point x="128" y="236" type="curve"/>
      <point x="129" y="262" type="line"/>
      <point x="62" y="241"/>
      <point x="27" y="187"/>
      <point x="27" y="131" type="curve" smooth="yes"/>
      <point x="27" y="46"/>
      <point x="75" y="-12"/>
      <point x="196" y="-12" type="curve" smooth="yes"/>
      <point x="282" y="-12"/>
      <point x="344" y="17"/>
      <point x="389" y="69" type="curve"/>
      <point x="285" y="156" type="line"/>
      <point x="264" y="128"/>
      <point x="250" y="118"/>
      <point x="223" y="118" type="curve" smooth="yes"/>
      <point x="207" y="118"/>
      <point x="187" y="127"/>
      <point x="187" y="153" type="curve" smooth="yes"/>
      <point x="187" y="165"/>
      <point x="192" y="175"/>
      <point x="200" y="181" type="curve" smooth="yes"/>
      <point x="210" y="189"/>
      <point x="222" y="192"/>
      <point x="250" y="192" type="curve" smooth="yes"/>
      <point x="277" y="192" type="line"/>
      <point x="277" y="302" type="line"/>
      <point x="262" y="302" type="line" smooth="yes"/>
      <point x="228" y="302"/>
      <point x="218" y="305"/>
      <point x="209" y="311" type="curve" smooth="yes"/>
      <point x="200" y="317"/>
      <point x="194" y="327"/>
      <point x="194" y="341" type="curve" smooth="yes"/>
      <point x="194" y="365"/>
      <point x="211" y="377"/>
      <point x="238" y="377" type="curve" smooth="yes"/>
      <point x="279" y="377"/>
      <point x="304" y="351"/>
      <point x="308" y="312" type="curve"/>
      <point x="447" y="312" type="line"/>
      <point x="459" y="351"/>
      <point x="483" y="365"/>
      <point x="508" y="365" type="curve" smooth="yes"/>
      <point x="549" y="365"/>
      <point x="576" y="331"/>
      <point x="576" y="258" type="curve" smooth="yes"/>
      <point x="576" y="201" type="line" smooth="yes"/>
      <point x="576" y="119"/>
      <point x="560" y="99"/>
      <point x="537" y="99" type="curve" smooth="yes"/>
      <point x="517" y="99"/>
      <point x="505" y="109"/>
      <point x="505" y="139" type="curve" smooth="yes"/>
      <point x="505" y="168"/>
      <point x="517" y="180"/>
      <point x="535" y="180" type="curve" smooth="yes"/>
      <point x="561" y="180"/>
      <point x="579" y="159"/>
      <point x="601" y="119" type="curve"/>
      <point x="646" y="203" type="line"/>
      <point x="612" y="248"/>
      <point x="571" y="286"/>
      <point x="510" y="286" type="curve" smooth="yes"/>
      <point x="438" y="286"/>
      <point x="377" y="238"/>
      <point x="377" y="140" type="curve" smooth="yes"/>
      <point x="377" y="64"/>
      <point x="416" y="-12"/>
    </contour>
  </outline>
</glyph>
<glyph name="natelu" format="2">
  <advance width="645"/>
  <unicode hex="0C28"/>
  <outline>
    <contour>
      <point x="444" y="-12" type="curve" smooth="yes"/>
      <point x="561" y="-12"/>
      <point x="614" y="69"/>
      <point x="614" y="195" type="curve" smooth="yes"/>
      <point x="614" y="362"/>
      <point x="511" y="478"/>
      <point x="358" y="508" type="curve"/>
      <point x="248" y="389" type="line"/>
      <point x="253" y="389" type="line"/>
      <point x="375" y="388"/>
      <point x="455" y="299"/>
      <point x="455" y="184" type="curve" smooth="yes"/>
      <point x="455" y="148"/>
      <point x="445" y="131"/>
      <point x="428" y="131" type="curve" smooth="yes"/>
      <point x="405" y="131"/>
      <point x="394" y="140"/>
      <point x="353" y="208" type="curve" smooth="yes"/>
      <point x="299" y="297"/>
      <point x="251" y="321"/>
      <point x="183" y="321" type="curve" smooth="yes"/>
      <point x="84" y="321"/>
      <point x="27" y="250"/>
      <point x="27" y="150" type="curve" smooth="yes"/>
      <point x="27" y="93"/>
      <point x="43" y="34"/>
      <point x="70" y="-16" type="curve"/>
      <point x="216" y="40" type="line"/>
      <point x="194" y="80"/>
      <point x="178" y="116"/>
      <point x="178" y="151" type="curve" smooth="yes"/>
      <point x="178" y="166"/>
      <point x="183" y="178"/>
      <point x="195" y="178" type="curve" smooth="yes"/>
      <point x="210" y="178"/>
      <point x="218" y="165"/>
      <point x="235" y="133" type="curve" smooth="yes"/>
      <point x="300" y="10"/>
      <point x="363" y="-12"/>
    </contour>
    <component base="hattelu" xOffset="145"/>
  </outline>
</glyph>
<glyph name="rratelu" format="2">
  <advance width="825"/>
  <unicode hex="0C31"/>
  <outline>
    <contour>
      <point x="577" y="-12" type="curve" smooth="yes"/>
      <point x="718" y="-12"/>
      <point x="791" y="92"/>
      <point x="791" y="256" type="curve" smooth="yes"/>
      <point x="791" y="404"/>
      <point x="720" y="508"/>
      <point x="579" y="508" type="curve" smooth="yes"/>
      <point x="486" y="508"/>
      <point x="431" y="456"/>
      <point x="431" y="384" type="curve" smooth="yes"/>
      <point x="431" y="343"/>
      <point x="448" y="316"/>
      <point x="467" y="295" type="curve"/>
      <point x="464" y="326" type="line"/>
      <point x="347" y="326" type="line"/>
      <point x="347" y="208" type="line"/>
      <point x="600" y="208" type="line"/>
      <point x="600" y="313" type="line"/>
      <point x="582" y="320"/>
      <point x="565" y="335"/>
      <point x="565" y="354" type="curve" smooth="yes"/>
      <point x="565" y="369"/>
      <point x="573" y="379"/>
      <point x="588" y="379" type="curve" smooth="yes"/>
      <point x="613" y="379"/>
      <point x="632" y="341"/>
      <point x="632" y="254" type="curve" smooth="yes"/>
      <point x="632" y="163"/>
      <point x="604" y="129"/>
      <point x="552" y="129" type="curve" smooth="yes"/>
      <point x="509" y="129"/>
      <point x="490" y="155"/>
      <point x="483" y="187" type="curve"/>
      <point x="344" y="187" type="line"/>
      <point x="333" y="148"/>
      <point x="308" y="129"/>
      <point x="266" y="129" type="curve" smooth="yes"/>
      <point x="215" y="129"/>
      <point x="186" y="161"/>
      <point x="186" y="245" type="curve" smooth="yes"/>
      <point x="186" y="302" type="line" smooth="yes"/>
      <point x="186" y="366"/>
      <point x="208" y="397"/>
      <point x="229" y="397" type="curve" smooth="yes"/>
      <point x="246" y="397"/>
      <point x="251" y="377"/>
      <point x="251" y="357" type="curve" smooth="yes"/>
      <point x="251" y="322"/>
      <point x="236" y="308"/>
      <point x="209" y="308" type="curve" smooth="yes"/>
      <point x="183" y="308"/>
      <point x="153" y="329"/>
      <point x="131" y="358" type="curve"/>
      <point x="91" y="267" type="line"/>
      <point x="118" y="239"/>
      <point x="168" y="202"/>
      <point x="223" y="202" type="curve" smooth="yes"/>
      <point x="319" y="202"/>
      <point x="383" y="244"/>
      <point x="383" y="360" type="curve" smooth="yes"/>
      <point x="383" y="432"/>
      <point x="348" y="508"/>
      <point x="239" y="508" type="curve" smooth="yes"/>
      <point x="124" y="508"/>
      <point x="34" y="425"/>
      <point x="34" y="251" type="curve" smooth="yes"/>
      <point x="34" y="130"/>
      <point x="82" y="-12"/>
      <point x="249" y="-12" type="curve" smooth="yes"/>
      <point x="348" y="-12"/>
      <point x="398" y="25"/>
      <point x="431" y="80" type="curve"/>
      <point x="395" y="80" type="line"/>
      <point x="428" y="29"/>
      <point x="464" y="-12"/>
    </contour>
  </outline>
</glyph>
<glyph name="latelu" format="2">
  <advance width="655"/>
  <unicode hex="0C32"/>
  <outline>
    <contour>
      <point x="333" y="-12" type="curve" smooth="yes"/>
      <point x="539" y="-12"/>
      <point x="624" y="102"/>
      <point x="624" y="262" type="curve" smooth="yes"/>
      <point x="624" y="363"/>
      <point x="580" y="450"/>
      <point x="505" y="508" type="curve"/>
      <point x="394" y="395" type="line"/>
      <point x="435" y="363"/>
      <point x="464" y="317"/>
      <point x="464" y="256" type="curve" smooth="yes"/>
      <point x="464" y="169"/>
      <point x="410" y="131"/>
      <point x="327" y="131" type="curve" smooth="yes"/>
      <point x="226" y="131"/>
      <point x="178" y="189"/>
      <point x="178" y="263" type="curve" smooth="yes"/>
      <point x="178" y="294" type="line" smooth="yes"/>
      <point x="178" y="357"/>
      <point x="193" y="397"/>
      <point x="215" y="397" type="curve" smooth="yes"/>
      <point x="230" y="397"/>
      <point x="237" y="383"/>
      <point x="237" y="357" type="curve" smooth="yes"/>
      <point x="237" y="321"/>
      <point x="223" y="308"/>
      <point x="199" y="308" type="curve" smooth="yes"/>
      <point x="176" y="308"/>
      <point x="149" y="322"/>
      <point x="119" y="358" type="curve"/>
      <point x="82" y="262" type="line"/>
      <point x="114" y="225"/>
      <point x="160" y="202"/>
      <point x="232" y="202" type="curve" smooth="yes"/>
      <point x="311" y="202"/>
      <point x="382" y="246"/>
      <point x="382" y="361" type="curve" smooth="yes"/>
      <point x="382" y="432"/>
      <point x="336" y="508"/>
      <point x="226" y="508" type="curve" smooth="yes"/>
      <point x="102" y="508"/>
      <point x="30" y="412"/>
      <point x="30" y="279" type="curve" smooth="yes"/>
      <point x="30" y="109"/>
      <point x="129" y="-12"/>
    </contour>
  </outline>
</glyph>
<glyph name="llatelu" format="2">
  <advance width="611"/>
  <unicode hex="0C33"/>
  <outline>
    <contour>
      <point x="309" y="-12" type="curve" smooth="yes"/>
      <point x="396" y="-12"/>
      <point x="465" y="14"/>
      <point x="465" y="87" type="curve" smooth="yes"/>
      <point x="465" y="140"/>
      <point x="433" y="166"/>
      <point x="395" y="180" type="curve"/>
      <point x="398" y="198"/>
      <point x="386" y="208"/>
      <point x="395" y="230" type="curve"/>
      <point x="367" y="241"/>
      <point x="326" y="250"/>
      <point x="261" y="255" type="curve" smooth="yes"/>
      <point x="189" y="261"/>
      <point x="167" y="289"/>
      <point x="167" y="314" type="curve" smooth="yes"/>
      <point x="167" y="330"/>
      <point x="177" y="341"/>
      <point x="192" y="341" type="curve" smooth="yes"/>
      <point x="206" y="341"/>
      <point x="213" y="332"/>
      <point x="213" y="317" type="curve" smooth="yes"/>
      <point x="213" y="284"/>
      <point x="177" y="262"/>
      <point x="117" y="254" type="curve"/>
      <point x="180" y="188" type="line"/>
      <point x="294" y="217"/>
      <point x="341" y="266"/>
      <point x="341" y="337" type="curve" smooth="yes"/>
      <point x="341" y="393"/>
      <point x="286" y="454"/>
      <point x="190" y="454" type="curve" smooth="yes"/>
      <point x="82" y="454"/>
      <point x="25" y="389"/>
      <point x="25" y="315" type="curve" smooth="yes"/>
      <point x="25" y="220"/>
      <point x="93" y="159"/>
      <point x="226" y="134" type="curve"/>
      <point x="231" y="141"/>
      <point x="242" y="145"/>
      <point x="251" y="148" type="curve"/>
      <point x="319" y="147"/>
      <point x="338" y="135"/>
      <point x="338" y="117" type="curve" smooth="yes"/>
      <point x="338" y="105"/>
      <point x="331" y="94"/>
      <point x="306" y="94" type="curve" smooth="yes"/>
      <point x="283" y="94"/>
      <point x="275" y="105"/>
      <point x="275" y="116" type="curve" smooth="yes"/>
      <point x="275" y="133"/>
      <point x="296" y="147"/>
      <point x="351" y="149" type="curve"/>
      <point x="381" y="124" type="line"/>
      <point x="526" y="149"/>
      <point x="584" y="225"/>
      <point x="584" y="325" type="curve" smooth="yes"/>
      <point x="584" y="421"/>
      <point x="525" y="483"/>
      <point x="401" y="508" type="curve"/>
      <point x="356" y="392" type="line"/>
      <point x="399" y="386"/>
      <point x="426" y="364"/>
      <point x="426" y="325" type="curve" smooth="yes"/>
      <point x="426" y="292"/>
      <point x="395" y="243"/>
      <point x="287" y="242" type="curve"/>
      <point x="240" y="197" type="line"/>
      <point x="182" y="179"/>
      <point x="146" y="149"/>
      <point x="146" y="96" type="curve" smooth="yes"/>
      <point x="146" y="22"/>
      <point x="216" y="-12"/>
    </contour>
    <component base="hattelu" xOffset="263"/>
  </outline>
</glyph>
<glyph name="lllatelu" format="2">
  <advance width="796"/>
  <unicode hex="0C34"/>
  <outline>
    <contour>
      <point x="555" y="-12" type="curve" smooth="yes"/>
      <point x="696" y="-12"/>
      <point x="762" y="88"/>
      <point x="762" y="234" type="curve" smooth="yes"/>
      <point x="762" y="400"/>
      <point x="687" y="508"/>
      <point x="554" y="508" type="curve" smooth="yes"/>
      <point x="445" y="508"/>
      <point x="405" y="433"/>
      <point x="405" y="360" type="curve" smooth="yes"/>
      <point x="405" y="238"/>
      <point x="473" y="202"/>
      <point x="558" y="202" type="curve" smooth="yes"/>
      <point x="620" y="202"/>
      <point x="668" y="234"/>
      <point x="697" y="263" type="curve"/>
      <point x="655" y="358" type="line"/>
      <point x="625" y="322"/>
      <point x="598" y="308"/>
      <point x="578" y="308" type="curve" smooth="yes"/>
      <point x="551" y="308"/>
      <point x="537" y="321"/>
      <point x="537" y="357" type="curve" smooth="yes"/>
      <point x="537" y="380"/>
      <point x="544" y="397"/>
      <point x="562" y="397" type="curve" smooth="yes"/>
      <point x="585" y="397"/>
      <point x="610" y="366"/>
      <point x="610" y="268" type="curve" smooth="yes"/>
      <point x="610" y="230" type="line" smooth="yes"/>
      <point x="610" y="152"/>
      <point x="583" y="129"/>
      <point x="538" y="129" type="curve" smooth="yes"/>
      <point x="489" y="129"/>
      <point x="472" y="162"/>
      <point x="467" y="200" type="curve"/>
      <point x="329" y="200" type="line"/>
      <point x="324" y="162"/>
      <point x="307" y="129"/>
      <point x="258" y="129" type="curve" smooth="yes"/>
      <point x="213" y="129"/>
      <point x="186" y="152"/>
      <point x="186" y="230" type="curve" smooth="yes"/>
      <point x="186" y="267" type="line" smooth="yes"/>
      <point x="186" y="366"/>
      <point x="211" y="397"/>
      <point x="234" y="397" type="curve" smooth="yes"/>
      <point x="252" y="397"/>
      <point x="259" y="380"/>
      <point x="259" y="357" type="curve" smooth="yes"/>
      <point x="259" y="321"/>
      <point x="245" y="308"/>
      <point x="218" y="308" type="curve" smooth="yes"/>
      <point x="198" y="308"/>
      <point x="171" y="322"/>
      <point x="141" y="358" type="curve"/>
      <point x="99" y="263" type="line"/>
      <point x="128" y="234"/>
      <point x="176" y="202"/>
      <point x="238" y="202" type="curve" smooth="yes"/>
      <point x="323" y="202"/>
      <point x="391" y="238"/>
      <point x="391" y="360" type="curve" smooth="yes"/>
      <point x="391" y="433"/>
      <point x="351" y="508"/>
      <point x="242" y="508" type="curve" smooth="yes"/>
      <point x="109" y="508"/>
      <point x="34" y="400"/>
      <point x="34" y="234" type="curve" smooth="yes"/>
      <point x="34" y="89"/>
      <point x="100" y="-12"/>
      <point x="241" y="-12" type="curve" smooth="yes"/>
      <point x="338" y="-12"/>
      <point x="383" y="25"/>
      <point x="425" y="94" type="curve"/>
      <point x="371" y="94" type="line"/>
      <point x="413" y="25"/>
      <point x="458" y="-12"/>
    </contour>
  </outline>
</glyph>
<glyph name="shatelu" format="2">
  <advance width="566"/>
  <unicode hex="0C36"/>
  <outline>
    <contour>
      <point x="373" y="-12" type="curve" smooth="yes"/>
      <point x="494" y="-12"/>
      <point x="539" y="46"/>
      <point x="539" y="132" type="curve" smooth="yes"/>
      <point x="539" y="214"/>
      <point x="493" y="287"/>
      <point x="409" y="317" type="curve"/>
      <point x="363" y="342"/>
      <point x="314" y="360"/>
      <point x="238" y="360" type="curve" smooth="yes"/>
      <point x="89" y="360"/>
      <point x="26" y="295"/>
      <point x="26" y="212" type="curve" smooth="yes"/>
      <point x="26" y="170"/>
      <point x="35" y="138"/>
      <point x="50" y="105" type="curve"/>
      <point x="194" y="144" type="line"/>
      <point x="188" y="156"/>
      <point x="184" y="173"/>
      <point x="184" y="188" type="curve" smooth="yes"/>
      <point x="184" y="222"/>
      <point x="206" y="243"/>
      <point x="249" y="243" type="curve" smooth="yes"/>
      <point x="326" y="243"/>
      <point x="396" y="206"/>
      <point x="396" y="146" type="curve" smooth="yes"/>
      <point x="396" y="125"/>
      <point x="388" y="115"/>
      <point x="375" y="115" type="curve" smooth="yes"/>
      <point x="363" y="115"/>
      <point x="353" y="123"/>
      <point x="353" y="144" type="curve" smooth="yes"/>
      <point x="353" y="183"/>
      <point x="368" y="200"/>
      <point x="426" y="248" type="curve" smooth="yes"/>
      <point x="488" y="298"/>
      <point x="513" y="329"/>
      <point x="513" y="385" type="curve" smooth="yes"/>
      <point x="513" y="457"/>
      <point x="439" y="496"/>
      <point x="360" y="508" type="curve"/>
      <point x="314" y="403" type="line"/>
      <point x="340" y="398"/>
      <point x="358" y="386"/>
      <point x="358" y="364" type="curve" smooth="yes"/>
      <point x="358" y="342"/>
      <point x="341" y="323"/>
      <point x="307" y="295" type="curve"/>
      <point x="302" y="290"/>
      <point x="308" y="278"/>
      <point x="304" y="276" type="curve"/>
      <point x="248" y="240"/>
      <point x="210" y="195"/>
      <point x="210" y="126" type="curve" smooth="yes"/>
      <point x="210" y="50"/>
      <point x="258" y="-12"/>
    </contour>
    <component base="hattelu" xOffset="191"/>
  </outline>
</glyph>
<glyph name="avagrahatelu" format="2">
  <advance width="519"/>
  <unicode hex="0C3D"/>
  <outline>
    <contour>
      <point x="198" y="508" type="curve" smooth="yes"/>
      <point x="87" y="508"/>
      <point x="28" y="450"/>
      <point x="28" y="382" type="curve" smooth="yes"/>
      <point x="28" y="348"/>
      <point x="36" y="322"/>
      <point x="48" y="293" type="curve"/>
      <point x="183" y="331" type="line"/>
      <point x="179" y="341"/>
      <point x="175" y="355"/>
      <point x="175" y="369" type="curve" smooth="yes"/>
      <point x="175" y="386"/>
      <point x="183" y="396"/>
      <point x="197" y="396" type="curve" smooth="yes"/>
      <point x="211" y="396"/>
      <point x="218" y="386"/>
      <point x="218" y="370" type="curve" smooth="yes"/>
      <point x="218" y="343"/>
      <point x="204" y="326"/>
      <point x="149" y="292" type="curve" smooth="yes"/>
      <point x="76" y="247"/>
      <point x="40" y="201"/>
      <point x="40" y="137" type="curve" smooth="yes"/>
      <point x="40" y="88"/>
      <point x="57" y="55"/>
      <point x="84" y="34" type="curve" smooth="yes"/>
      <point x="115" y="10"/>
      <point x="159" y="0"/>
      <point x="249" y="0" type="curve" smooth="yes"/>
      <point x="501" y="0" type="line"/>
      <point x="501" y="140" type="line"/>
      <point x="226" y="140" type="line" smooth="yes"/>
      <point x="215" y="140"/>
      <point x="207" y="141"/>
      <point x="203" y="146" type="curve" smooth="yes"/>
      <point x="201" y="148"/>
      <point x="199" y="152"/>
      <point x="199" y="158" type="curve" smooth="yes"/>
      <point x="199" y="171"/>
      <point x="212" y="184"/>
      <point x="253" y="208" type="curve" smooth="yes"/>
      <point x="331" y="254"/>
      <point x="365" y="304"/>
      <point x="365" y="371" type="curve" smooth="yes"/>
      <point x="365" y="441"/>
      <point x="320" y="508"/>
    </contour>
  </outline>
</glyph>
<glyph name="aavowelsigntelu" format="2">
  <advance width="254"/>
  <unicode hex="0C3E"/>
  <outline>
    <contour>
      <point x="96" y="172" type="curve" smooth="yes"/>
      <point x="184" y="172"/>
      <point x="240" y="230"/>
      <point x="240" y="328" type="curve" smooth="yes"/>
      <point x="240" y="390"/>
      <point x="218" y="434"/>
      <point x="184" y="462" type="curve" smooth="yes"/>
      <point x="144" y="495"/>
      <point x="90" y="508"/>
      <point x="5" y="508" type="curve" smooth="yes"/>
      <point x="-477" y="508" type="line"/>
      <point x="-477" y="374" type="line"/>
      <point x="65" y="374" type="line" smooth="yes"/>
      <point x="108" y="374"/>
      <point x="123" y="351"/>
      <point x="123" y="323" type="curve" smooth="yes"/>
      <point x="123" y="295"/>
      <point x="110" y="286"/>
      <point x="97" y="286" type="curve" smooth="yes"/>
      <point x="78" y="286"/>
      <point x="68" y="299"/>
      <point x="68" y="327" type="curve" smooth="yes"/>
      <point x="68" y="361"/>
      <point x="89" y="398"/>
      <point x="112" y="425" type="curve"/>
      <point x="-5" y="437" type="line"/>
      <point x="-27" y="407"/>
      <point x="-46" y="363"/>
      <point x="-46" y="313" type="curve" smooth="yes"/>
      <point x="-46" y="241"/>
      <point x="-9" y="172"/>
    </contour>
  </outline>
</glyph>
<glyph name="ivowelsigntelu" format="2">
  <unicode hex="0C3F"/>
  <outline>
    <contour>
      <point x="-270" y="419" type="curve" smooth="yes"/>
      <point x="-151" y="419"/>
      <point x="-95" y="487"/>
      <point x="-95" y="595" type="curve" smooth="yes"/>
      <point x="-95" y="695"/>
      <point x="-153" y="779"/>
      <point x="-273" y="779" type="curve" smooth="yes"/>
      <point x="-375" y="779"/>
      <point x="-422" y="724"/>
      <point x="-422" y="659" type="curve" smooth="yes"/>
      <point x="-422" y="593"/>
      <point x="-385" y="548"/>
      <point x="-290" y="548" type="curve" smooth="yes"/>
      <point x="-229" y="548"/>
      <point x="-196" y="564"/>
      <point x="-153" y="609" type="curve"/>
      <point x="-177" y="698" type="line"/>
      <point x="-207" y="654"/>
      <point x="-230" y="636"/>
      <point x="-264" y="636" type="curve" smooth="yes"/>
      <point x="-286" y="636"/>
      <point x="-293" y="646"/>
      <point x="-293" y="660" type="curve" smooth="yes"/>
      <point x="-293" y="675"/>
      <point x="-284" y="684"/>
      <point x="-269" y="684" type="curve" smooth="yes"/>
      <point x="-241" y="684"/>
      <point x="-221" y="653"/>
      <point x="-221" y="599" type="curve" smooth="yes"/>
      <point x="-221" y="586" type="line" smooth="yes"/>
      <point x="-221" y="535"/>
      <point x="-247" y="519"/>
      <point x="-290" y="519" type="curve" smooth="yes"/>
      <point x="-315" y="519"/>
      <point x="-345" y="524"/>
      <point x="-367" y="537" type="curve"/>
      <point x="-407" y="447" type="line"/>
      <point x="-372" y="431"/>
      <point x="-329" y="419"/>
    </contour>
  </outline>
</glyph>
<glyph name="iivowelsigntelu" format="2">
  <unicode hex="0C40"/>
  <outline>
    <contour>
      <point x="-270" y="417" type="curve" smooth="yes"/>
      <point x="-149" y="417"/>
      <point x="-95" y="482"/>
      <point x="-95" y="585" type="curve" smooth="yes"/>
      <point x="-95" y="680"/>
      <point x="-152" y="751"/>
      <point x="-273" y="751" type="curve" smooth="yes"/>
      <point x="-371" y="751"/>
      <point x="-422" y="703"/>
      <point x="-422" y="641" type="curve" smooth="yes"/>
      <point x="-422" y="583"/>
      <point x="-388" y="542"/>
      <point x="-284" y="542" type="curve" smooth="yes"/>
      <point x="-229" y="542"/>
      <point x="-196" y="557"/>
      <point x="-153" y="600" type="curve"/>
      <point x="-177" y="683" type="line"/>
      <point x="-207" y="641"/>
      <point x="-230" y="624"/>
      <point x="-264" y="624" type="curve" smooth="yes"/>
      <point x="-286" y="624"/>
      <point x="-293" y="633"/>
      <point x="-293" y="645" type="curve" smooth="yes"/>
      <point x="-293" y="659"/>
      <point x="-284" y="666"/>
      <point x="-269" y="666" type="curve" smooth="yes"/>
      <point x="-241" y="666"/>
      <point x="-221" y="640"/>
      <point x="-221" y="588" type="curve" smooth="yes"/>
      <point x="-221" y="576" type="line" smooth="yes"/>
      <point x="-221" y="527"/>
      <point x="-247" y="515"/>
      <point x="-290" y="515" type="curve" smooth="yes"/>
      <point x="-315" y="515"/>
      <point x="-345" y="520"/>
      <point x="-367" y="532" type="curve"/>
      <point x="-407" y="444" type="line"/>
      <point x="-372" y="428"/>
      <point x="-329" y="417"/>
    </contour>
    <contour>
      <point x="-253" y="869" type="curve" smooth="yes"/>
      <point x="-352" y="869"/>
      <point x="-407" y="822"/>
      <point x="-407" y="761" type="curve" smooth="yes"/>
      <point x="-407" y="712"/>
      <point x="-374" y="680"/>
      <point x="-338" y="660" type="curve"/>
      <point x="-238" y="702" type="line"/>
      <point x="-264" y="718"/>
      <point x="-277" y="735"/>
      <point x="-277" y="755" type="curve" smooth="yes"/>
      <point x="-277" y="774"/>
      <point x="-264" y="782"/>
      <point x="-250" y="782" type="curve" smooth="yes"/>
      <point x="-225" y="782"/>
      <point x="-217" y="767"/>
      <point x="-211" y="749" type="curve"/>
      <point x="-85" y="769" type="line"/>
      <point x="-114" y="843"/>
      <point x="-167" y="869"/>
    </contour>
  </outline>
</glyph>
<glyph name="uvowelsigntelu" format="2">
  <advance width="293"/>
  <unicode hex="0C41"/>
  <outline>
    <contour>
      <point x="87" y="-12" type="curve" smooth="yes"/>
      <point x="207" y="-12"/>
      <point x="262" y="72"/>
      <point x="262" y="195" type="curve" smooth="yes"/>
      <point x="262" y="340"/>
      <point x="193" y="443"/>
      <point x="109" y="509" type="curve"/>
      <point x="-4" y="393" type="line"/>
      <point x="57" y="345"/>
      <point x="103" y="264"/>
      <point x="103" y="187" type="curve" smooth="yes"/>
      <point x="103" y="147"/>
      <point x="90" y="131"/>
      <point x="60" y="131" type="curve" smooth="yes"/>
      <point x="28" y="131"/>
      <point x="3" y="147"/>
      <point x="-36" y="202" type="curve"/>
      <point x="-134" y="118" type="line"/>
      <point x="-68" y="34"/>
      <point x="-8" y="-12"/>
    </contour>
  </outline>
</glyph>
<glyph name="uuvowelsigntelu" format="2">
  <advance width="598"/>
  <unicode hex="0C42"/>
  <outline>
    <contour>
      <point x="87" y="-12" type="curve" smooth="yes"/>
      <point x="207" y="-12"/>
      <point x="262" y="72"/>
      <point x="262" y="195" type="curve" smooth="yes"/>
      <point x="262" y="306"/>
      <point x="214" y="378"/>
      <point x="155" y="437" type="curve"/>
      <point x="135" y="482" type="line"/>
      <point x="127" y="490"/>
      <point x="111" y="501"/>
      <point x="102" y="508" type="curve"/>
      <point x="-3" y="396" type="line"/>
      <point x="61" y="338"/>
      <point x="103" y="264"/>
      <point x="103" y="187" type="curve" smooth="yes"/>
      <point x="103" y="147"/>
      <point x="90" y="131"/>
      <point x="60" y="131" type="curve" smooth="yes"/>
      <point x="28" y="131"/>
      <point x="3" y="147"/>
      <point x="-36" y="202" type="curve"/>
      <point x="-134" y="118" type="line"/>
      <point x="-68" y="34"/>
      <point x="-8" y="-12"/>
    </contour>
    <contour>
      <point x="441" y="172" type="curve" smooth="yes"/>
      <point x="529" y="172"/>
      <point x="585" y="230"/>
      <point x="585" y="328" type="curve" smooth="yes"/>
      <point x="585" y="390"/>
      <point x="563" y="434"/>
      <point x="529" y="462" type="curve" smooth="yes"/>
      <point x="489" y="495"/>
      <point x="435" y="508"/>
      <point x="350" y="508" type="curve" smooth="yes"/>
      <point x="102" y="508" type="line"/>
      <point x="76" y="374" type="line"/>
      <point x="410" y="374" type="line" smooth="yes"/>
      <point x="453" y="374"/>
      <point x="468" y="351"/>
      <point x="468" y="323" type="curve" smooth="yes"/>
      <point x="468" y="295"/>
      <point x="455" y="286"/>
      <point x="442" y="286" type="curve" smooth="yes"/>
      <point x="423" y="286"/>
      <point x="413" y="299"/>
      <point x="413" y="327" type="curve" smooth="yes"/>
      <point x="413" y="361"/>
      <point x="434" y="398"/>
      <point x="457" y="425" type="curve"/>
      <point x="340" y="437" type="line"/>
      <point x="318" y="407"/>
      <point x="299" y="363"/>
      <point x="299" y="313" type="curve" smooth="yes"/>
      <point x="299" y="241"/>
      <point x="336" y="172"/>
    </contour>
  </outline>
</glyph>
<glyph name="rvocalicvowelsigntelu" format="2">
  <advance width="370"/>
  <unicode hex="0C43"/>
  <outline>
    <contour>
      <point x="93" y="-410" type="curve" smooth="yes"/>
      <point x="244" y="-410"/>
      <point x="362" y="-325"/>
      <point x="362" y="-74" type="curve" smooth="yes"/>
      <point x="362" y="165"/>
      <point x="254" y="371"/>
      <point x="80" y="511" type="curve"/>
      <point x="-29" y="403" type="line"/>
      <point x="108" y="291"/>
      <point x="217" y="123"/>
      <point x="217" y="-87" type="curve" smooth="yes"/>
      <point x="217" y="-246"/>
      <point x="160" y="-293"/>
      <point x="83" y="-293" type="curve" smooth="yes"/>
      <point x="25" y="-293"/>
      <point x="-5" y="-269"/>
      <point x="-5" y="-207" type="curve" smooth="yes"/>
      <point x="-5" y="-189" type="line" smooth="yes"/>
      <point x="-5" y="-126"/>
      <point x="21" y="-108"/>
      <point x="35" y="-108" type="curve" smooth="yes"/>
      <point x="51" y="-108"/>
      <point x="60" y="-120"/>
      <point x="60" y="-142" type="curve" smooth="yes"/>
      <point x="60" y="-172"/>
      <point x="44" y="-181"/>
      <point x="23" y="-181" type="curve" smooth="yes"/>
      <point x="2" y="-181"/>
      <point x="-16" y="-175"/>
      <point x="-37" y="-155" type="curve"/>
      <point x="-45" y="-244" type="line"/>
      <point x="-23" y="-260"/>
      <point x="10" y="-268"/>
      <point x="48" y="-268" type="curve" smooth="yes"/>
      <point x="117" y="-268"/>
      <point x="177" y="-238"/>
      <point x="177" y="-139" type="curve" smooth="yes"/>
      <point x="177" y="-68"/>
      <point x="132" y="-3"/>
      <point x="43" y="-3" type="curve" smooth="yes"/>
      <point x="-57" y="-3"/>
      <point x="-121" y="-81"/>
      <point x="-121" y="-191" type="curve" smooth="yes"/>
      <point x="-121" y="-341"/>
      <point x="-27" y="-410"/>
    </contour>
  </outline>
</glyph>
<glyph name="rrvocalicvowelsigntelu" format="2">
  <advance width="629"/>
  <unicode hex="0C44"/>
  <outline>
    <contour>
      <point x="93" y="-410" type="curve" smooth="yes"/>
      <point x="244" y="-410"/>
      <point x="362" y="-325"/>
      <point x="362" y="-74" type="curve" smooth="yes"/>
      <point x="362" y="136"/>
      <point x="284" y="300"/>
      <point x="152" y="431" type="curve"/>
      <point x="120" y="478" type="line"/>
      <point x="107" y="489"/>
      <point x="89" y="498"/>
      <point x="75" y="508" type="curve"/>
      <point x="-8" y="391" type="line"/>
      <point x="114" y="277"/>
      <point x="217" y="123"/>
      <point x="217" y="-87" type="curve" smooth="yes"/>
      <point x="217" y="-246"/>
      <point x="160" y="-293"/>
      <point x="83" y="-293" type="curve" smooth="yes"/>
      <point x="25" y="-293"/>
      <point x="-5" y="-269"/>
      <point x="-5" y="-207" type="curve" smooth="yes"/>
      <point x="-5" y="-189" type="line" smooth="yes"/>
      <point x="-5" y="-126"/>
      <point x="21" y="-108"/>
      <point x="35" y="-108" type="curve" smooth="yes"/>
      <point x="51" y="-108"/>
      <point x="60" y="-120"/>
      <point x="60" y="-142" type="curve" smooth="yes"/>
      <point x="60" y="-172"/>
      <point x="44" y="-181"/>
      <point x="23" y="-181" type="curve" smooth="yes"/>
      <point x="2" y="-181"/>
      <point x="-16" y="-175"/>
      <point x="-37" y="-155" type="curve"/>
      <point x="-45" y="-244" type="line"/>
      <point x="-23" y="-260"/>
      <point x="10" y="-268"/>
      <point x="48" y="-268" type="curve" smooth="yes"/>
      <point x="117" y="-268"/>
      <point x="177" y="-238"/>
      <point x="177" y="-139" type="curve" smooth="yes"/>
      <point x="177" y="-68"/>
      <point x="132" y="-3"/>
      <point x="43" y="-3" type="curve" smooth="yes"/>
      <point x="-57" y="-3"/>
      <point x="-121" y="-81"/>
      <point x="-121" y="-191" type="curve" smooth="yes"/>
      <point x="-121" y="-341"/>
      <point x="-27" y="-410"/>
    </contour>
    <contour>
      <point x="472" y="172" type="curve" smooth="yes"/>
      <point x="560" y="172"/>
      <point x="616" y="230"/>
      <point x="616" y="328" type="curve" smooth="yes"/>
      <point x="616" y="390"/>
      <point x="594" y="434"/>
      <point x="560" y="462" type="curve" smooth="yes"/>
      <point x="520" y="495"/>
      <point x="466" y="508"/>
      <point x="381" y="508" type="curve" smooth="yes"/>
      <point x="75" y="508" type="line"/>
      <point x="105" y="387" type="line"/>
      <point x="175" y="377"/>
      <point x="263" y="374"/>
      <point x="314" y="374" type="curve" smooth="yes"/>
      <point x="441" y="374" type="line" smooth="yes"/>
      <point x="484" y="374"/>
      <point x="499" y="351"/>
      <point x="499" y="323" type="curve" smooth="yes"/>
      <point x="499" y="295"/>
      <point x="486" y="286"/>
      <point x="473" y="286" type="curve" smooth="yes"/>
      <point x="454" y="286"/>
      <point x="444" y="299"/>
      <point x="444" y="327" type="curve" smooth="yes"/>
      <point x="444" y="361"/>
      <point x="465" y="398"/>
      <point x="488" y="425" type="curve"/>
      <point x="371" y="437" type="line"/>
      <point x="349" y="407"/>
      <point x="330" y="363"/>
      <point x="330" y="313" type="curve" smooth="yes"/>
      <point x="330" y="241"/>
      <point x="367" y="172"/>
    </contour>
  </outline>
</glyph>
<glyph name="evowelsigntelu" format="2">
  <unicode hex="0C46"/>
  <outline>
    <contour>
      <point x="-37" y="550" type="curve" smooth="yes"/>
      <point x="-37" y="602"/>
      <point x="-54" y="642"/>
      <point x="-84" y="670" type="curve" smooth="yes"/>
      <point x="-120" y="703"/>
      <point x="-168" y="718"/>
      <point x="-252" y="718" type="curve" smooth="yes"/>
      <point x="-502" y="718" type="line"/>
      <point x="-502" y="584" type="line"/>
      <point x="-245" y="584" type="line" smooth="yes"/>
      <point x="-217" y="584"/>
      <point x="-203" y="581"/>
      <point x="-194" y="574" type="curve" smooth="yes"/>
      <point x="-186" y="568"/>
      <point x="-182" y="559"/>
      <point x="-182" y="546" type="curve" smooth="yes"/>
      <point x="-182" y="535"/>
      <point x="-184" y="528"/>
      <point x="-189" y="522" type="curve" smooth="yes"/>
      <point x="-197" y="512"/>
      <point x="-213" y="508"/>
      <point x="-243" y="508" type="curve" smooth="yes"/>
      <point x="-260" y="508" type="line"/>
      <point x="-260" y="385" type="line"/>
      <point x="-241" y="385" type="line" smooth="yes"/>
      <point x="-163" y="385"/>
      <point x="-111" y="402"/>
      <point x="-79" y="437" type="curve" smooth="yes"/>
      <point x="-53" y="465"/>
      <point x="-37" y="502"/>
    </contour>
  </outline>
</glyph>
<glyph name="eevowelsigntelu" format="2">
  <unicode hex="0C47"/>
  <outline>
    <contour>
      <point x="-37" y="550" type="curve" smooth="yes"/>
      <point x="-37" y="602"/>
      <point x="-54" y="642"/>
      <point x="-84" y="670" type="curve" smooth="yes"/>
      <point x="-120" y="703"/>
      <point x="-168" y="718"/>
      <point x="-252" y="718" type="curve" smooth="yes"/>
      <point x="-502" y="718" type="line"/>
      <point x="-502" y="584" type="line"/>
      <point x="-245" y="584" type="line" smooth="yes"/>
      <point x="-217" y="584"/>
      <point x="-203" y="581"/>
      <point x="-194" y="574" type="curve" smooth="yes"/>
      <point x="-186" y="568"/>
      <point x="-182" y="559"/>
      <point x="-182" y="546" type="curve" smooth="yes"/>
      <point x="-182" y="535"/>
      <point x="-184" y="528"/>
      <point x="-189" y="522" type="curve" smooth="yes"/>
      <point x="-197" y="512"/>
      <point x="-213" y="508"/>
      <point x="-243" y="508" type="curve" smooth="yes"/>
      <point x="-260" y="508" type="line"/>
      <point x="-260" y="385" type="line"/>
      <point x="-241" y="385" type="line" smooth="yes"/>
      <point x="-163" y="385"/>
      <point x="-111" y="402"/>
      <point x="-79" y="437" type="curve" smooth="yes"/>
      <point x="-53" y="465"/>
      <point x="-37" y="502"/>
    </contour>
    <contour>
      <point x="-147" y="856" type="curve" smooth="yes"/>
      <point x="-251" y="856"/>
      <point x="-295" y="791"/>
      <point x="-295" y="726" type="curve" smooth="yes"/>
      <point x="-295" y="676"/>
      <point x="-272" y="634"/>
      <point x="-248" y="609" type="curve"/>
      <point x="-137" y="652" type="line"/>
      <point x="-154" y="668"/>
      <point x="-170" y="692"/>
      <point x="-170" y="719" type="curve" smooth="yes"/>
      <point x="-170" y="737"/>
      <point x="-160" y="750"/>
      <point x="-143" y="750" type="curve" smooth="yes"/>
      <point x="-127" y="750"/>
      <point x="-114" y="738"/>
      <point x="-107" y="709" type="curve"/>
      <point x="6" y="738" type="line"/>
      <point x="-10" y="806"/>
      <point x="-55" y="856"/>
    </contour>
  </outline>
</glyph>
<glyph name="ovowelsigntelu" format="2">
  <advance width="242"/>
  <unicode hex="0C4A"/>
  <outline>
    <contour>
      <point x="85" y="389" type="curve" smooth="yes"/>
      <point x="173" y="389"/>
      <point x="229" y="447"/>
      <point x="229" y="545" type="curve" smooth="yes"/>
      <point x="229" y="608"/>
      <point x="207" y="651"/>
      <point x="173" y="679" type="curve" smooth="yes"/>
      <point x="133" y="712"/>
      <point x="73" y="725"/>
      <point x="16" y="725" type="curve" smooth="yes"/>
      <point x="-34" y="725" type="line" smooth="yes"/>
      <point x="-121" y="725"/>
      <point x="-164" y="692"/>
      <point x="-192" y="639" type="curve"/>
      <point x="-160" y="614" type="line"/>
      <point x="-185" y="688"/>
      <point x="-233" y="724"/>
      <point x="-301" y="724" type="curve" smooth="yes"/>
      <point x="-305" y="724" type="line" smooth="yes"/>
      <point x="-400" y="724"/>
      <point x="-464" y="655"/>
      <point x="-464" y="559" type="curve" smooth="yes"/>
      <point x="-464" y="452"/>
      <point x="-390" y="385"/>
      <point x="-269" y="385" type="curve" smooth="yes"/>
      <point x="-259" y="385" type="line"/>
      <point x="-259" y="508" type="line"/>
      <point x="-273" y="508" type="line" smooth="yes"/>
      <point x="-307" y="508"/>
      <point x="-325" y="521"/>
      <point x="-325" y="551" type="curve" smooth="yes"/>
      <point x="-325" y="576"/>
      <point x="-309" y="590"/>
      <point x="-290" y="590" type="curve" smooth="yes"/>
      <point x="-288" y="590" type="line" smooth="yes"/>
      <point x="-261" y="590"/>
      <point x="-249" y="568"/>
      <point x="-243" y="538" type="curve"/>
      <point x="-121" y="538" type="line"/>
      <point x="-117" y="576"/>
      <point x="-94" y="591"/>
      <point x="-59" y="591" type="curve" smooth="yes"/>
      <point x="54" y="591" type="line" smooth="yes"/>
      <point x="97" y="591"/>
      <point x="112" y="568"/>
      <point x="112" y="540" type="curve" smooth="yes"/>
      <point x="112" y="512"/>
      <point x="100" y="503"/>
      <point x="86" y="503" type="curve" smooth="yes"/>
      <point x="67" y="503"/>
      <point x="57" y="516"/>
      <point x="57" y="544" type="curve" smooth="yes"/>
      <point x="57" y="578"/>
      <point x="78" y="615"/>
      <point x="101" y="642" type="curve"/>
      <point x="-16" y="654" type="line"/>
      <point x="-38" y="624"/>
      <point x="-57" y="580"/>
      <point x="-57" y="530" type="curve" smooth="yes"/>
      <point x="-57" y="458"/>
      <point x="-20" y="389"/>
    </contour>
  </outline>
</glyph>
<glyph name="oovowelsigntelu" format="2">
  <advance width="242"/>
  <unicode hex="0C4B"/>
  <outline>
    <contour>
      <point x="85" y="389" type="curve" smooth="yes"/>
      <point x="173" y="389"/>
      <point x="229" y="447"/>
      <point x="229" y="545" type="curve" smooth="yes"/>
      <point x="229" y="608"/>
      <point x="207" y="651"/>
      <point x="173" y="679" type="curve" smooth="yes"/>
      <point x="133" y="712"/>
      <point x="73" y="725"/>
      <point x="16" y="725" type="curve" smooth="yes"/>
      <point x="-34" y="725" type="line" smooth="yes"/>
      <point x="-121" y="725"/>
      <point x="-164" y="692"/>
      <point x="-192" y="639" type="curve"/>
      <point x="-160" y="614" type="line"/>
      <point x="-185" y="688"/>
      <point x="-233" y="724"/>
      <point x="-301" y="724" type="curve" smooth="yes"/>
      <point x="-305" y="724" type="line" smooth="yes"/>
      <point x="-400" y="724"/>
      <point x="-464" y="655"/>
      <point x="-464" y="559" type="curve" smooth="yes"/>
      <point x="-464" y="452"/>
      <point x="-390" y="385"/>
      <point x="-269" y="385" type="curve" smooth="yes"/>
      <point x="-259" y="385" type="line"/>
      <point x="-259" y="508" type="line"/>
      <point x="-273" y="508" type="line" smooth="yes"/>
      <point x="-307" y="508"/>
      <point x="-325" y="521"/>
      <point x="-325" y="551" type="curve" smooth="yes"/>
      <point x="-325" y="576"/>
      <point x="-309" y="590"/>
      <point x="-290" y="590" type="curve" smooth="yes"/>
      <point x="-288" y="590" type="line" smooth="yes"/>
      <point x="-261" y="590"/>
      <point x="-249" y="568"/>
      <point x="-243" y="538" type="curve"/>
      <point x="-121" y="538" type="line"/>
      <point x="-117" y="576"/>
      <point x="-94" y="591"/>
      <point x="-59" y="591" type="curve" smooth="yes"/>
      <point x="54" y="591" type="line" smooth="yes"/>
      <point x="97" y="591"/>
      <point x="112" y="568"/>
      <point x="112" y="540" type="curve" smooth="yes"/>
      <point x="112" y="512"/>
      <point x="100" y="503"/>
      <point x="86" y="503" type="curve" smooth="yes"/>
      <point x="67" y="503"/>
      <point x="57" y="516"/>
      <point x="57" y="544" type="curve" smooth="yes"/>
      <point x="57" y="578"/>
      <point x="78" y="615"/>
      <point x="101" y="642" type="curve"/>
      <point x="-16" y="654" type="line"/>
      <point x="-38" y="624"/>
      <point x="-57" y="580"/>
      <point x="-57" y="530" type="curve" smooth="yes"/>
      <point x="-57" y="458"/>
      <point x="-20" y="389"/>
    </contour>
    <contour>
      <point x="117" y="861" type="curve" smooth="yes"/>
      <point x="13" y="861"/>
      <point x="-31" y="796"/>
      <point x="-31" y="731" type="curve" smooth="yes"/>
      <point x="-31" y="681"/>
      <point x="-8" y="639"/>
      <point x="16" y="614" type="curve"/>
      <point x="127" y="657" type="line"/>
      <point x="110" y="673"/>
      <point x="94" y="697"/>
      <point x="94" y="724" type="curve" smooth="yes"/>
      <point x="94" y="742"/>
      <point x="104" y="755"/>
      <point x="121" y="755" type="curve" smooth="yes"/>
      <point x="137" y="755"/>
      <point x="150" y="743"/>
      <point x="157" y="714" type="curve"/>
      <point x="270" y="743" type="line"/>
      <point x="254" y="811"/>
      <point x="209" y="861"/>
    </contour>
  </outline>
</glyph>
<glyph name="auvowelsigntelu" format="2">
  <advance width="252"/>
  <unicode hex="0C4C"/>
  <outline>
    <contour>
      <point x="95" y="382" type="curve" smooth="yes"/>
      <point x="183" y="382"/>
      <point x="239" y="440"/>
      <point x="239" y="538" type="curve" smooth="yes"/>
      <point x="239" y="600"/>
      <point x="217" y="644"/>
      <point x="183" y="672" type="curve" smooth="yes"/>
      <point x="143" y="705"/>
      <point x="89" y="718"/>
      <point x="4" y="718" type="curve" smooth="yes"/>
      <point x="-446" y="718" type="line"/>
      <point x="-446" y="584" type="line"/>
      <point x="-302" y="584" type="line" smooth="yes"/>
      <point x="-274" y="584"/>
      <point x="-260" y="581"/>
      <point x="-251" y="574" type="curve" smooth="yes"/>
      <point x="-243" y="568"/>
      <point x="-239" y="559"/>
      <point x="-239" y="546" type="curve" smooth="yes"/>
      <point x="-239" y="535"/>
      <point x="-241" y="528"/>
      <point x="-246" y="522" type="curve" smooth="yes"/>
      <point x="-254" y="512"/>
      <point x="-270" y="508"/>
      <point x="-300" y="508" type="curve" smooth="yes"/>
      <point x="-353" y="508" type="line"/>
      <point x="-353" y="385" type="line"/>
      <point x="-304" y="385" type="line" smooth="yes"/>
      <point x="-226" y="385"/>
      <point x="-174" y="402"/>
      <point x="-142" y="437" type="curve" smooth="yes"/>
      <point x="-116" y="465"/>
      <point x="-100" y="499"/>
      <point x="-100" y="546" type="curve" smooth="yes"/>
      <point x="-100" y="562"/>
      <point x="-102" y="572"/>
      <point x="-106" y="584" type="curve"/>
      <point x="64" y="584" type="line" smooth="yes"/>
      <point x="107" y="584"/>
      <point x="122" y="561"/>
      <point x="122" y="533" type="curve" smooth="yes"/>
      <point x="122" y="505"/>
      <point x="109" y="496"/>
      <point x="96" y="496" type="curve" smooth="yes"/>
      <point x="77" y="496"/>
      <point x="67" y="509"/>
      <point x="67" y="537" type="curve" smooth="yes"/>
      <point x="67" y="571"/>
      <point x="88" y="608"/>
      <point x="111" y="635" type="curve"/>
      <point x="-6" y="647" type="line"/>
      <point x="-28" y="617"/>
      <point x="-47" y="573"/>
      <point x="-47" y="523" type="curve" smooth="yes"/>
      <point x="-47" y="451"/>
      <point x="-10" y="382"/>
    </contour>
  </outline>
</glyph>
<glyph name="viramatelu" format="2">
  <unicode hex="0C4D"/>
  <outline>
    <contour>
      <point x="-354" y="524" type="curve" smooth="yes"/>
      <point x="-354" y="429"/>
      <point x="-286" y="386"/>
      <point x="-175" y="386" type="curve" smooth="yes"/>
      <point x="-166" y="386" type="line"/>
      <point x="-166" y="508" type="line"/>
      <point x="-166" y="508" type="line" smooth="yes"/>
      <point x="-188" y="508"/>
      <point x="-198" y="510"/>
      <point x="-206" y="516" type="curve" smooth="yes"/>
      <point x="-212" y="521"/>
      <point x="-215" y="527"/>
      <point x="-215" y="535" type="curve" smooth="yes"/>
      <point x="-215" y="544"/>
      <point x="-211" y="550"/>
      <point x="-205" y="554" type="curve" smooth="yes"/>
      <point x="-198" y="559"/>
      <point x="-189" y="561"/>
      <point x="-171" y="561" type="curve" smooth="yes"/>
      <point x="-82" y="561" type="line"/>
      <point x="-82" y="682" type="line"/>
      <point x="-170" y="682" type="line" smooth="yes"/>
      <point x="-192" y="682"/>
      <point x="-201" y="685"/>
      <point x="-209" y="691" type="curve" smooth="yes"/>
      <point x="-215" y="696"/>
      <point x="-219" y="703"/>
      <point x="-219" y="712" type="curve" smooth="yes"/>
      <point x="-219" y="721"/>
      <point x="-216" y="729"/>
      <point x="-208" y="734" type="curve" smooth="yes"/>
      <point x="-202" y="738"/>
      <point x="-192" y="740"/>
      <point x="-174" y="740" type="curve" smooth="yes"/>
      <point x="38" y="740" type="line"/>
      <point x="38" y="862" type="line"/>
      <point x="-133" y="862" type="line" smooth="yes"/>
      <point x="-219" y="862"/>
      <point x="-271" y="852"/>
      <point x="-306" y="828" type="curve" smooth="yes"/>
      <point x="-340" y="805"/>
      <point x="-360" y="771"/>
      <point x="-360" y="724" type="curve" smooth="yes"/>
      <point x="-360" y="673"/>
      <point x="-335" y="637"/>
      <point x="-292" y="608" type="curve"/>
      <point x="-294" y="628" type="line"/>
      <point x="-332" y="603"/>
      <point x="-354" y="567"/>
    </contour>
  </outline>
</glyph>
<glyph name="lengthmarktelu" format="2">
  <unicode hex="0C55"/>
  <outline>
    <contour>
      <point x="-183" y="693" type="curve" smooth="yes"/>
      <point x="-287" y="693"/>
      <point x="-331" y="628"/>
      <point x="-331" y="563" type="curve" smooth="yes"/>
      <point x="-331" y="513"/>
      <point x="-308" y="471"/>
      <point x="-284" y="446" type="curve"/>
      <point x="-173" y="489" type="line"/>
      <point x="-190" y="505"/>
      <point x="-206" y="529"/>
      <point x="-206" y="556" type="curve" smooth="yes"/>
      <point x="-206" y="574"/>
      <point x="-196" y="587"/>
      <point x="-179" y="587" type="curve" smooth="yes"/>
      <point x="-163" y="587"/>
      <point x="-150" y="575"/>
      <point x="-143" y="546" type="curve"/>
      <point x="-30" y="575" type="line"/>
      <point x="-46" y="643"/>
      <point x="-91" y="693"/>
    </contour>
  </outline>
</glyph>
<glyph name="ailengthmarktelu" format="2">
  <unicode hex="0C56"/>
  <outline>
    <contour>
      <point x="-405" y="-42" type="curve" smooth="yes"/>
      <point x="-494" y="-42"/>
      <point x="-546" y="-105"/>
      <point x="-546" y="-189" type="curve" smooth="yes"/>
      <point x="-546" y="-248"/>
      <point x="-526" y="-291"/>
      <point x="-491" y="-319" type="curve" smooth="yes"/>
      <point x="-449" y="-353"/>
      <point x="-399" y="-363"/>
      <point x="-307" y="-363" type="curve" smooth="yes"/>
      <point x="-23" y="-363" type="line"/>
      <point x="-23" y="-233" type="line"/>
      <point x="-377" y="-233" type="line" smooth="yes"/>
      <point x="-417" y="-233"/>
      <point x="-432" y="-210"/>
      <point x="-432" y="-184" type="curve" smooth="yes"/>
      <point x="-432" y="-158"/>
      <point x="-419" y="-149"/>
      <point x="-406" y="-149" type="curve" smooth="yes"/>
      <point x="-386" y="-149"/>
      <point x="-379" y="-166"/>
      <point x="-379" y="-188" type="curve" smooth="yes"/>
      <point x="-379" y="-222"/>
      <point x="-400" y="-257"/>
      <point x="-421" y="-282" type="curve"/>
      <point x="-315" y="-305" type="line"/>
      <point x="-290" y="-270"/>
      <point x="-266" y="-222"/>
      <point x="-266" y="-174" type="curve" smooth="yes"/>
      <point x="-266" y="-104"/>
      <point x="-308" y="-42"/>
    </contour>
  </outline>
</glyph>
<glyph name="tsatelu" format="2">
  <advance width="706"/>
  <unicode hex="0C58"/>
  <outline>
    <contour>
      <point x="504" y="-12" type="curve" smooth="yes"/>
      <point x="614" y="-12"/>
      <point x="675" y="65"/>
      <point x="675" y="172" type="curve" smooth="yes"/>
      <point x="675" y="333"/>
      <point x="577" y="413"/>
      <point x="468" y="451" type="curve"/>
      <point x="349" y="346" type="line"/>
      <point x="455" y="322"/>
      <point x="516" y="262"/>
      <point x="516" y="176" type="curve" smooth="yes"/>
      <point x="516" y="150"/>
      <point x="506" y="131"/>
      <point x="478" y="131" type="curve" smooth="yes"/>
      <point x="448" y="131"/>
      <point x="438" y="153"/>
      <point x="435" y="200" type="curve"/>
      <point x="296" y="200" type="line"/>
      <point x="294" y="157"/>
      <point x="283" y="131"/>
      <point x="250" y="131" type="curve" smooth="yes"/>
      <point x="228" y="131"/>
      <point x="220" y="146"/>
      <point x="220" y="165" type="curve" smooth="yes"/>
      <point x="220" y="197"/>
      <point x="244" y="221"/>
      <point x="275" y="237" type="curve"/>
      <point x="275" y="361" type="line"/>
      <point x="25" y="361" type="line"/>
      <point x="25" y="221" type="line"/>
      <point x="128" y="221" type="line"/>
      <point x="130" y="258" type="line"/>
      <point x="95" y="232"/>
      <point x="66" y="188"/>
      <point x="66" y="136" type="curve" smooth="yes"/>
      <point x="66" y="39"/>
      <point x="131" y="-12"/>
      <point x="220" y="-12" type="curve" smooth="yes"/>
      <point x="302" y="-12"/>
      <point x="342" y="13"/>
      <point x="393" y="94" type="curve"/>
      <point x="334" y="95" type="line"/>
      <point x="385" y="14"/>
      <point x="428" y="-12"/>
    </contour>
    <contour>
      <point x="394" y="339" type="curve" smooth="yes"/>
      <point x="478" y="339"/>
      <point x="521" y="382"/>
      <point x="553" y="437" type="curve" smooth="yes"/>
      <point x="582" y="486" type="line" smooth="yes"/>
      <point x="607" y="529"/>
      <point x="625" y="549"/>
      <point x="678" y="553" type="curve"/>
      <point x="663" y="685" type="line"/>
      <point x="568" y="684"/>
      <point x="534" y="654"/>
      <point x="484" y="569" type="curve" smooth="yes"/>
      <point x="434" y="484" type="line" smooth="yes"/>
      <point x="424" y="468"/>
      <point x="417" y="459"/>
      <point x="405" y="459" type="curve" smooth="yes"/>
      <point x="385" y="459"/>
      <point x="374" y="481"/>
      <point x="364" y="558" type="curve"/>
      <point x="219" y="525" type="line"/>
      <point x="247" y="398"/>
      <point x="297" y="339"/>
    </contour>
    <contour>
      <point x="404" y="869" type="curve" smooth="yes"/>
      <point x="307" y="869"/>
      <point x="265" y="810"/>
      <point x="265" y="742" type="curve" smooth="yes"/>
      <point x="265" y="694"/>
      <point x="289" y="646"/>
      <point x="314" y="611" type="curve"/>
      <point x="420" y="634" type="line"/>
      <point x="399" y="659"/>
      <point x="378" y="694"/>
      <point x="378" y="728" type="curve" smooth="yes"/>
      <point x="378" y="750"/>
      <point x="385" y="767"/>
      <point x="405" y="767" type="curve" smooth="yes"/>
      <point x="418" y="767"/>
      <point x="431" y="760"/>
      <point x="431" y="742" type="curve" smooth="yes"/>
      <point x="431" y="723"/>
      <point x="416" y="706"/>
      <point x="376" y="706" type="curve" smooth="yes"/>
      <point x="62" y="706" type="line"/>
      <point x="62" y="578" type="line"/>
      <point x="295" y="578" type="line" smooth="yes"/>
      <point x="398" y="578"/>
      <point x="448" y="588"/>
      <point x="490" y="619" type="curve" smooth="yes"/>
      <point x="525" y="645"/>
      <point x="546" y="686"/>
      <point x="546" y="740" type="curve" smooth="yes"/>
      <point x="546" y="813"/>
      <point x="493" y="869"/>
    </contour>
  </outline>
</glyph>
<glyph name="rrratelu" format="2">
  <advance width="651"/>
  <unicode hex="0C5A"/>
  <outline>
    <contour>
      <point x="455" y="-12" type="curve" smooth="yes"/>
      <point x="565" y="-12"/>
      <point x="620" y="67"/>
      <point x="620" y="201" type="curve" smooth="yes"/>
      <point x="620" y="387"/>
      <point x="509" y="508"/>
      <point x="328" y="508" type="curve" smooth="yes"/>
      <point x="142" y="508"/>
      <point x="31" y="387"/>
      <point x="31" y="201" type="curve" smooth="yes"/>
      <point x="31" y="67"/>
      <point x="86" y="-12"/>
      <point x="196" y="-12" type="curve" smooth="yes"/>
      <point x="269" y="-12"/>
      <point x="307" y="13"/>
      <point x="358" y="94" type="curve"/>
      <point x="293" y="94" type="line"/>
      <point x="344" y="13"/>
      <point x="382" y="-12"/>
    </contour>
    <contour>
      <point x="432" y="131" type="curve" smooth="yes"/>
      <point x="408" y="131"/>
      <point x="398" y="144"/>
      <point x="395" y="196" type="curve"/>
      <point x="256" y="196" type="line"/>
      <point x="253" y="144"/>
      <point x="242" y="131"/>
      <point x="219" y="131" type="curve" smooth="yes"/>
      <point x="193" y="131"/>
      <point x="185" y="155"/>
      <point x="185" y="206" type="curve" smooth="yes"/>
      <point x="185" y="323"/>
      <point x="245" y="374"/>
      <point x="320" y="374" type="curve" smooth="yes"/>
      <point x="334" y="374" type="line" smooth="yes"/>
      <point x="406" y="374"/>
      <point x="466" y="322"/>
      <point x="466" y="206" type="curve" smooth="yes"/>
      <point x="466" y="155"/>
      <point x="458" y="131"/>
    </contour>
    <contour>
      <point x="69" y="221" type="line"/>
      <point x="521" y="221" type="line"/>
      <point x="521" y="328" type="line"/>
      <point x="129" y="328" type="line"/>
    </contour>
  </outline>
</glyph>
<glyph name="llvocalictelu" format="2">
  <advance width="1132"/>
  <unicode hex="0C61"/>
  <outline>
    <contour>
      <point x="500" y="-122" type="curve" smooth="yes"/>
      <point x="695" y="-122"/>
      <point x="789" y="17"/>
      <point x="789" y="222" type="curve" smooth="yes"/>
      <point x="789" y="331"/>
      <point x="752" y="405"/>
      <point x="687" y="485" type="curve"/>
      <point x="569" y="418" type="line"/>
      <point x="606" y="364"/>
      <point x="630" y="302"/>
      <point x="630" y="228" type="curve" smooth="yes"/>
      <point x="630" y="82"/>
      <point x="575" y="20"/>
      <point x="513" y="20" type="curve" smooth="yes"/>
      <point x="480" y="20"/>
      <point x="463" y="40"/>
      <point x="463" y="69" type="curve" smooth="yes"/>
      <point x="463" y="93"/>
      <point x="471" y="117"/>
      <point x="520" y="197" type="curve" smooth="yes"/>
      <point x="548" y="243"/>
      <point x="574" y="300"/>
      <point x="574" y="365" type="curve" smooth="yes"/>
      <point x="574" y="429"/>
      <point x="538" y="508"/>
      <point x="430" y="508" type="curve" smooth="yes"/>
      <point x="365" y="508"/>
      <point x="320" y="478"/>
      <point x="278" y="408" type="curve"/>
      <point x="321" y="409" type="line"/>
      <point x="289" y="468"/>
      <point x="245" y="508"/>
      <point x="175" y="508" type="curve" smooth="yes"/>
      <point x="81" y="508"/>
      <point x="26" y="443"/>
      <point x="26" y="361" type="curve" smooth="yes"/>
      <point x="26" y="313"/>
      <point x="38" y="276"/>
      <point x="50" y="245" type="curve"/>
      <point x="197" y="284" type="line"/>
      <point x="188" y="303"/>
      <point x="185" y="320"/>
      <point x="185" y="336" type="curve" smooth="yes"/>
      <point x="185" y="355"/>
      <point x="195" y="365"/>
      <point x="205" y="365" type="curve" smooth="yes"/>
      <point x="222" y="365"/>
      <point x="229" y="347"/>
      <point x="231" y="299" type="curve"/>
      <point x="369" y="299" type="line"/>
      <point x="372" y="355"/>
      <point x="386" y="366"/>
      <point x="401" y="366" type="curve" smooth="yes"/>
      <point x="412" y="366"/>
      <point x="420" y="356"/>
      <point x="420" y="340" type="curve" smooth="yes"/>
      <point x="420" y="318"/>
      <point x="409" y="298"/>
      <point x="382" y="252" type="curve" smooth="yes"/>
      <point x="326" y="159"/>
      <point x="307" y="113"/>
      <point x="307" y="53" type="curve" smooth="yes"/>
      <point x="307" y="-45"/>
      <point x="372" y="-122"/>
    </contour>
    <contour>
      <point x="975" y="172" type="curve" smooth="yes"/>
      <point x="1063" y="172"/>
      <point x="1119" y="230"/>
      <point x="1119" y="328" type="curve" smooth="yes"/>
      <point x="1119" y="390"/>
      <point x="1097" y="434"/>
      <point x="1063" y="462" type="curve" smooth="yes"/>
      <point x="1023" y="495"/>
      <point x="969" y="508"/>
      <point x="884" y="508" type="curve" smooth="yes"/>
      <point x="673" y="508" type="line"/>
      <point x="569" y="418" type="line"/>
      <point x="693" y="374" type="line"/>
      <point x="944" y="374" type="line" smooth="yes"/>
      <point x="987" y="374"/>
      <point x="1002" y="351"/>
      <point x="1002" y="323" type="curve" smooth="yes"/>
      <point x="1002" y="295"/>
      <point x="989" y="286"/>
      <point x="976" y="286" type="curve" smooth="yes"/>
      <point x="957" y="286"/>
      <point x="947" y="299"/>
      <point x="947" y="327" type="curve" smooth="yes"/>
      <point x="947" y="361"/>
      <point x="968" y="398"/>
      <point x="991" y="425" type="curve"/>
      <point x="874" y="437" type="line"/>
      <point x="852" y="407"/>
      <point x="833" y="363"/>
      <point x="833" y="313" type="curve" smooth="yes"/>
      <point x="833" y="241"/>
      <point x="870" y="172"/>
    </contour>
  </outline>
</glyph>
<glyph name="lvocalicvowelsigntelu" format="2">
  <unicode hex="0C62"/>
  <outline>
    <contour>
      <point x="-173" y="-474" type="curve" smooth="yes"/>
      <point x="-47" y="-474"/>
      <point x="26" y="-378"/>
      <point x="26" y="-239" type="curve" smooth="yes"/>
      <point x="26" y="-165"/>
      <point x="0" y="-100"/>
      <point x="-38" y="-50" type="curve"/>
      <point x="-136" y="-114" type="line"/>
      <point x="-107" y="-144"/>
      <point x="-88" y="-196"/>
      <point x="-88" y="-248" type="curve" smooth="yes"/>
      <point x="-88" y="-320"/>
      <point x="-123" y="-372"/>
      <point x="-171" y="-372" type="curve" smooth="yes"/>
      <point x="-193" y="-372"/>
      <point x="-203" y="-361"/>
      <point x="-203" y="-344" type="curve" smooth="yes"/>
      <point x="-203" y="-328"/>
      <point x="-200" y="-316"/>
      <point x="-169" y="-264" type="curve" smooth="yes"/>
      <point x="-143" y="-220"/>
      <point x="-132" y="-189"/>
      <point x="-132" y="-154" type="curve" smooth="yes"/>
      <point x="-132" y="-113"/>
      <point x="-163" y="-50"/>
      <point x="-245" y="-50" type="curve" smooth="yes"/>
      <point x="-292" y="-50"/>
      <point x="-329" y="-76"/>
      <point x="-353" y="-124" type="curve"/>
      <point x="-320" y="-120" type="line"/>
      <point x="-343" y="-73"/>
      <point x="-379" y="-50"/>
      <point x="-426" y="-50" type="curve" smooth="yes"/>
      <point x="-504" y="-50"/>
      <point x="-539" y="-100"/>
      <point x="-539" y="-163" type="curve" smooth="yes"/>
      <point x="-539" y="-191"/>
      <point x="-530" y="-219"/>
      <point x="-523" y="-239" type="curve"/>
      <point x="-417" y="-211" type="line"/>
      <point x="-422" y="-199"/>
      <point x="-426" y="-183"/>
      <point x="-426" y="-169" type="curve" smooth="yes"/>
      <point x="-426" y="-157"/>
      <point x="-421" y="-147"/>
      <point x="-410" y="-147" type="curve" smooth="yes"/>
      <point x="-397" y="-147"/>
      <point x="-389" y="-162"/>
      <point x="-387" y="-201" type="curve"/>
      <point x="-288" y="-201" type="line"/>
      <point x="-283" y="-162"/>
      <point x="-272" y="-147"/>
      <point x="-255" y="-147" type="curve" smooth="yes"/>
      <point x="-249" y="-147"/>
      <point x="-241" y="-150"/>
      <point x="-241" y="-163" type="curve" smooth="yes"/>
      <point x="-241" y="-180"/>
      <point x="-252" y="-200"/>
      <point x="-269" y="-227" type="curve" smooth="yes"/>
      <point x="-305" y="-287"/>
      <point x="-315" y="-317"/>
      <point x="-315" y="-354" type="curve" smooth="yes"/>
      <point x="-315" y="-422"/>
      <point x="-273" y="-474"/>
    </contour>
  </outline>
</glyph>
<glyph name="zerotelu" format="2">
  <advance width="588"/>
  <unicode hex="0C66"/>
  <outline>
    <contour>
      <point x="35" y="312" type="curve" smooth="yes"/>
      <point x="35" y="112"/>
      <point x="119" y="-12"/>
      <point x="294" y="-12" type="curve" smooth="yes"/>
      <point x="468" y="-12"/>
      <point x="553" y="101"/>
      <point x="553" y="312" type="curve" smooth="yes"/>
      <point x="553" y="512"/>
      <point x="462" y="633"/>
      <point x="294" y="633" type="curve" smooth="yes"/>
      <point x="121" y="633"/>
      <point x="35" y="512"/>
    </contour>
    <contour>
      <point x="199" y="310" type="curve" smooth="yes"/>
      <point x="199" y="427"/>
      <point x="229" y="493"/>
      <point x="294" y="493" type="curve" smooth="yes"/>
      <point x="359" y="493"/>
      <point x="389" y="427"/>
      <point x="389" y="310" type="curve" smooth="yes"/>
      <point x="389" y="194"/>
      <point x="359" y="128"/>
      <point x="294" y="128" type="curve" smooth="yes"/>
      <point x="227" y="128"/>
      <point x="199" y="194"/>
    </contour>
  </outline>
</glyph>
<glyph name="onetelu" format="2">
  <advance width="578"/>
  <unicode hex="0C67"/>
  <outline>
    <contour>
      <point x="290" y="633" type="curve" smooth="yes"/>
      <point x="117" y="633"/>
      <point x="35" y="508"/>
      <point x="35" y="318" type="curve" smooth="yes"/>
      <point x="35" y="193"/>
      <point x="62" y="92"/>
      <point x="103" y="-9" type="curve"/>
      <point x="258" y="41" type="line"/>
      <point x="227" y="109"/>
      <point x="199" y="213"/>
      <point x="199" y="314" type="curve" smooth="yes"/>
      <point x="199" y="415"/>
      <point x="226" y="493"/>
      <point x="290" y="493" type="curve" smooth="yes"/>
      <point x="362" y="493"/>
      <point x="379" y="402"/>
      <point x="379" y="313" type="curve" smooth="yes"/>
      <point x="379" y="206"/>
      <point x="350" y="102"/>
      <point x="321" y="42" type="curve"/>
      <point x="475" y="-9" type="line"/>
      <point x="512" y="77"/>
      <point x="543" y="184"/>
      <point x="543" y="317" type="curve" smooth="yes"/>
      <point x="543" y="516"/>
      <point x="456" y="633"/>
    </contour>
  </outline>
</glyph>
<glyph name="twotelu" format="2">
  <advance width="632"/>
  <unicode hex="0C68"/>
  <outline>
    <contour>
      <point x="325" y="633" type="curve" smooth="yes"/>
      <point x="213" y="633"/>
      <point x="136" y="564"/>
      <point x="136" y="457" type="curve" smooth="yes"/>
      <point x="136" y="359"/>
      <point x="191" y="298"/>
      <point x="287" y="298" type="curve" smooth="yes"/>
      <point x="391" y="298"/>
      <point x="425" y="364"/>
      <point x="425" y="432" type="curve" smooth="yes"/>
      <point x="425" y="460"/>
      <point x="419" y="492"/>
      <point x="410" y="514" type="curve"/>
      <point x="343" y="561" type="line"/>
      <point x="276" y="549" type="line"/>
      <point x="298" y="529"/>
      <point x="326" y="499"/>
      <point x="326" y="457" type="curve" smooth="yes"/>
      <point x="326" y="427"/>
      <point x="311" y="416"/>
      <point x="293" y="416" type="curve" smooth="yes"/>
      <point x="274" y="416"/>
      <point x="259" y="427"/>
      <point x="259" y="458" type="curve" smooth="yes"/>
      <point x="259" y="477"/>
      <point x="269" y="507"/>
      <point x="313" y="507" type="curve" smooth="yes"/>
      <point x="326" y="507"/>
      <point x="345" y="505"/>
      <point x="356" y="501" type="curve" smooth="yes"/>
      <point x="419" y="475"/>
      <point x="440" y="421"/>
      <point x="440" y="313" type="curve" smooth="yes"/>
      <point x="440" y="254"/>
      <point x="425" y="213"/>
      <point x="399" y="188" type="curve" smooth="yes"/>
      <point x="361" y="150"/>
      <point x="305" y="143"/>
      <point x="219" y="143" type="curve" smooth="yes"/>
      <point x="17" y="143" type="line"/>
      <point x="17" y="0" type="line"/>
      <point x="232" y="0" type="line" smooth="yes"/>
      <point x="383" y="0"/>
      <point x="468" y="30"/>
      <point x="526" y="90" type="curve" smooth="yes"/>
      <point x="575" y="141"/>
      <point x="597" y="213"/>
      <point x="597" y="306" type="curve" smooth="yes"/>
      <point x="597" y="478"/>
      <point x="508" y="633"/>
    </contour>
  </outline>
</glyph>
<glyph name="threetelu" format="2">
  <advance width="459"/>
  <unicode hex="0C69"/>
  <outline>
    <contour>
      <point x="219" y="-12" type="curve" smooth="yes"/>
      <point x="359" y="-12"/>
      <point x="428" y="60"/>
      <point x="428" y="160" type="curve" smooth="yes"/>
      <point x="428" y="243"/>
      <point x="381" y="294"/>
      <point x="322" y="317" type="curve"/>
      <point x="320" y="293" type="line"/>
      <point x="392" y="324"/>
      <point x="428" y="381"/>
      <point x="428" y="455" type="curve" smooth="yes"/>
      <point x="428" y="540"/>
      <point x="382" y="633"/>
      <point x="225" y="633" type="curve" smooth="yes"/>
      <point x="148" y="633"/>
      <point x="83" y="614"/>
      <point x="10" y="571" type="curve"/>
      <point x="69" y="445" type="line"/>
      <point x="112" y="477"/>
      <point x="156" y="495"/>
      <point x="198" y="495" type="curve" smooth="yes"/>
      <point x="245" y="495"/>
      <point x="262" y="472"/>
      <point x="262" y="442" type="curve" smooth="yes"/>
      <point x="262" y="421"/>
      <point x="253" y="406"/>
      <point x="240" y="396" type="curve" smooth="yes"/>
      <point x="223" y="383"/>
      <point x="198" y="379"/>
      <point x="152" y="379" type="curve" smooth="yes"/>
      <point x="131" y="379" type="line"/>
      <point x="131" y="243" type="line"/>
      <point x="162" y="243" type="line" smooth="yes"/>
      <point x="207" y="243"/>
      <point x="225" y="238"/>
      <point x="240" y="227" type="curve" smooth="yes"/>
      <point x="254" y="217"/>
      <point x="262" y="202"/>
      <point x="262" y="181" type="curve" smooth="yes"/>
      <point x="262" y="152"/>
      <point x="245" y="126"/>
      <point x="198" y="126" type="curve" smooth="yes"/>
      <point x="151" y="126"/>
      <point x="112" y="145"/>
      <point x="70" y="176" type="curve"/>
      <point x="10" y="48" type="line"/>
      <point x="75" y="8"/>
      <point x="135" y="-12"/>
    </contour>
  </outline>
</glyph>
<glyph name="fourtelu" format="2">
  <advance width="602"/>
  <unicode hex="0C6A"/>
  <outline>
    <contour>
      <point x="303" y="-12" type="curve" smooth="yes"/>
      <point x="412" y="-12"/>
      <point x="476" y="32"/>
      <point x="476" y="113" type="curve" smooth="yes"/>
      <point x="476" y="200"/>
      <point x="416" y="229"/>
      <point x="373" y="246" type="curve"/>
      <point x="373" y="286" type="line"/>
      <point x="243" y="288"/>
      <point x="192" y="340"/>
      <point x="192" y="412" type="curve" smooth="yes"/>
      <point x="192" y="454"/>
      <point x="213" y="490"/>
      <point x="251" y="520" type="curve"/>
      <point x="155" y="633" type="line"/>
      <point x="72" y="576"/>
      <point x="28" y="502"/>
      <point x="28" y="419" type="curve" smooth="yes"/>
      <point x="28" y="291"/>
      <point x="98" y="208"/>
      <point x="212" y="184" type="curve"/>
      <point x="233" y="178" type="line"/>
      <point x="287" y="172"/>
      <point x="334" y="156"/>
      <point x="334" y="122" type="curve" smooth="yes"/>
      <point x="334" y="101"/>
      <point x="315" y="96"/>
      <point x="301" y="96" type="curve" smooth="yes"/>
      <point x="288" y="96"/>
      <point x="267" y="100"/>
      <point x="267" y="122" type="curve" smooth="yes"/>
      <point x="267" y="150"/>
      <point x="296" y="164"/>
      <point x="364" y="179" type="curve"/>
      <point x="390" y="184" type="line"/>
      <point x="504" y="208"/>
      <point x="574" y="291"/>
      <point x="574" y="419" type="curve" smooth="yes"/>
      <point x="574" y="502"/>
      <point x="530" y="576"/>
      <point x="447" y="633" type="curve"/>
      <point x="351" y="520" type="line"/>
      <point x="389" y="490"/>
      <point x="410" y="454"/>
      <point x="410" y="412" type="curve" smooth="yes"/>
      <point x="410" y="340"/>
      <point x="360" y="289"/>
      <point x="229" y="286" type="curve"/>
      <point x="226" y="265"/>
      <point x="233" y="248"/>
      <point x="229" y="246" type="curve"/>
      <point x="186" y="229"/>
      <point x="125" y="200"/>
      <point x="125" y="119" type="curve" smooth="yes"/>
      <point x="125" y="32"/>
      <point x="187" y="-12"/>
    </contour>
  </outline>
</glyph>
<glyph name="fivetelu" format="2">
  <advance width="636"/>
  <unicode hex="0C6B"/>
  <outline>
    <contour>
      <point x="192" y="-12" type="curve" smooth="yes"/>
      <point x="326" y="-12"/>
      <point x="424" y="72"/>
      <point x="424" y="310" type="curve" smooth="yes"/>
      <point x="424" y="549"/>
      <point x="326" y="633"/>
      <point x="192" y="633" type="curve" smooth="yes"/>
      <point x="122" y="633"/>
      <point x="67" y="615"/>
      <point x="10" y="582" type="curve"/>
      <point x="74" y="455" type="line"/>
      <point x="107" y="478"/>
      <point x="137" y="493"/>
      <point x="171" y="493" type="curve" smooth="yes"/>
      <point x="244" y="493"/>
      <point x="268" y="429"/>
      <point x="268" y="310" type="curve" smooth="yes"/>
      <point x="268" y="192"/>
      <point x="244" y="128"/>
      <point x="171" y="128" type="curve" smooth="yes"/>
      <point x="138" y="128"/>
      <point x="107" y="143"/>
      <point x="74" y="166" type="curve"/>
      <point x="10" y="39" type="line"/>
      <point x="67" y="6"/>
      <point x="122" y="-12"/>
    </contour>
    <contour>
      <point x="607" y="163" type="curve" smooth="yes"/>
      <point x="607" y="240"/>
      <point x="577" y="291"/>
      <point x="519" y="317" type="curve"/>
      <point x="519" y="304" type="line"/>
      <point x="577" y="330"/>
      <point x="607" y="381"/>
      <point x="607" y="458" type="curve" smooth="yes"/>
      <point x="607" y="523"/>
      <point x="576" y="592"/>
      <point x="545" y="633" type="curve"/>
      <point x="411" y="563" type="line"/>
      <point x="432" y="532"/>
      <point x="450" y="489"/>
      <point x="450" y="452" type="curve" smooth="yes"/>
      <point x="450" y="405"/>
      <point x="433" y="382"/>
      <point x="385" y="382" type="curve"/>
      <point x="385" y="239" type="line"/>
      <point x="433" y="239"/>
      <point x="450" y="217"/>
      <point x="450" y="169" type="curve" smooth="yes"/>
      <point x="450" y="132"/>
      <point x="432" y="89"/>
      <point x="411" y="58" type="curve"/>
      <point x="545" y="-12" type="line"/>
      <point x="576" y="29"/>
      <point x="607" y="98"/>
    </contour>
  </outline>
</glyph>
<glyph name="sixtelu" format="2">
  <advance width="566"/>
  <unicode hex="0C6C"/>
  <outline>
    <contour>
      <point x="31" y="180" type="curve" smooth="yes"/>
      <point x="31" y="112"/>
      <point x="59" y="69"/>
      <point x="100" y="42" type="curve" smooth="yes"/>
      <point x="149" y="10"/>
      <point x="215" y="0"/>
      <point x="313" y="0" type="curve" smooth="yes"/>
      <point x="549" y="0" type="line"/>
      <point x="549" y="143" type="line"/>
      <point x="273" y="143" type="line" smooth="yes"/>
      <point x="237" y="143"/>
      <point x="223" y="148"/>
      <point x="212" y="156" type="curve" smooth="yes"/>
      <point x="201" y="165"/>
      <point x="196" y="177"/>
      <point x="196" y="190" type="curve" smooth="yes"/>
      <point x="196" y="207"/>
      <point x="201" y="218"/>
      <point x="212" y="227" type="curve" smooth="yes"/>
      <point x="222" y="235"/>
      <point x="239" y="239"/>
      <point x="271" y="239" type="curve" smooth="yes"/>
      <point x="396" y="239" type="line"/>
      <point x="396" y="379" type="line"/>
      <point x="287" y="379" type="line" smooth="yes"/>
      <point x="249" y="379"/>
      <point x="235" y="384"/>
      <point x="224" y="392" type="curve" smooth="yes"/>
      <point x="212" y="400"/>
      <point x="206" y="413"/>
      <point x="206" y="428" type="curve" smooth="yes"/>
      <point x="206" y="441"/>
      <point x="210" y="455"/>
      <point x="222" y="464" type="curve" smooth="yes"/>
      <point x="234" y="473"/>
      <point x="253" y="477"/>
      <point x="293" y="477" type="curve" smooth="yes"/>
      <point x="299" y="477" type="line"/>
      <point x="299" y="620" type="line"/>
      <point x="290" y="620" type="line" smooth="yes"/>
      <point x="211" y="620"/>
      <point x="144" y="608"/>
      <point x="99" y="573" type="curve" smooth="yes"/>
      <point x="63" y="545"/>
      <point x="41" y="501"/>
      <point x="41" y="440" type="curve" smooth="yes"/>
      <point x="41" y="369"/>
      <point x="83" y="325"/>
      <point x="134" y="296" type="curve"/>
      <point x="136" y="338" type="line"/>
      <point x="73" y="306"/>
      <point x="31" y="254"/>
    </contour>
  </outline>
</glyph>
<glyph name="seventelu" format="2">
  <advance width="518"/>
  <unicode hex="0C6D"/>
  <outline>
    <contour>
      <point x="254" y="-12" type="curve" smooth="yes"/>
      <point x="440" y="-12"/>
      <point x="493" y="62"/>
      <point x="493" y="161" type="curve" smooth="yes"/>
      <point x="493" y="200"/>
      <point x="484" y="233"/>
      <point x="470" y="261" type="curve"/>
      <point x="321" y="224" type="line"/>
      <point x="325" y="215"/>
      <point x="330" y="198"/>
      <point x="330" y="180" type="curve" smooth="yes"/>
      <point x="330" y="153"/>
      <point x="320" y="125"/>
      <point x="258" y="125" type="curve" smooth="yes"/>
      <point x="214" y="125"/>
      <point x="192" y="141"/>
      <point x="192" y="171" type="curve" smooth="yes"/>
      <point x="192" y="202"/>
      <point x="213" y="220"/>
      <point x="316" y="267" type="curve" smooth="yes"/>
      <point x="433" y="320"/>
      <point x="481" y="367"/>
      <point x="481" y="467" type="curve" smooth="yes"/>
      <point x="481" y="543"/>
      <point x="432" y="633"/>
      <point x="257" y="633" type="curve" smooth="yes"/>
      <point x="98" y="633"/>
      <point x="37" y="554"/>
      <point x="37" y="477" type="curve" smooth="yes"/>
      <point x="37" y="431"/>
      <point x="49" y="401"/>
      <point x="61" y="373" type="curve"/>
      <point x="208" y="420" type="line"/>
      <point x="203" y="430"/>
      <point x="199" y="443"/>
      <point x="199" y="456" type="curve" smooth="yes"/>
      <point x="199" y="478"/>
      <point x="214" y="496"/>
      <point x="261" y="496" type="curve" smooth="yes"/>
      <point x="307" y="496"/>
      <point x="319" y="480"/>
      <point x="319" y="463" type="curve" smooth="yes"/>
      <point x="319" y="435"/>
      <point x="295" y="421"/>
      <point x="212" y="384" type="curve" smooth="yes"/>
      <point x="92" y="330"/>
      <point x="30" y="270"/>
      <point x="30" y="178" type="curve" smooth="yes"/>
      <point x="30" y="69"/>
      <point x="94" y="-12"/>
    </contour>
  </outline>
</glyph>
<glyph name="eighttelu" format="2">
  <advance width="640"/>
  <unicode hex="0C6E"/>
  <outline>
    <contour>
      <point x="288" y="-12" type="curve" smooth="yes"/>
      <point x="478" y="-12"/>
      <point x="540" y="127"/>
      <point x="540" y="275" type="curve" smooth="yes"/>
      <point x="540" y="358"/>
      <point x="523" y="422"/>
      <point x="495" y="477" type="curve"/>
      <point x="623" y="477" type="line"/>
      <point x="623" y="620" type="line"/>
      <point x="386" y="620" type="line"/>
      <point x="320" y="491" type="line"/>
      <point x="359" y="431"/>
      <point x="376" y="360"/>
      <point x="376" y="280" type="curve" smooth="yes"/>
      <point x="376" y="172"/>
      <point x="342" y="128"/>
      <point x="286" y="128" type="curve" smooth="yes"/>
      <point x="216" y="128"/>
      <point x="200" y="196"/>
      <point x="200" y="276" type="curve" smooth="yes"/>
      <point x="200" y="356"/>
      <point x="225" y="423"/>
      <point x="264" y="490" type="curve"/>
      <point x="123" y="573" type="line"/>
      <point x="63" y="472"/>
      <point x="35" y="378"/>
      <point x="35" y="279" type="curve" smooth="yes"/>
      <point x="35" y="113"/>
      <point x="114" y="-12"/>
    </contour>
  </outline>
</glyph>
<glyph name="ninetelu" format="2">
  <advance width="566"/>
  <unicode hex="0C6F"/>
  <outline>
    <contour>
      <point x="41" y="180" type="curve" smooth="yes"/>
      <point x="41" y="119"/>
      <point x="63" y="75"/>
      <point x="99" y="47" type="curve" smooth="yes"/>
      <point x="144" y="12"/>
      <point x="211" y="0"/>
      <point x="290" y="0" type="curve" smooth="yes"/>
      <point x="299" y="0" type="line"/>
      <point x="299" y="143" type="line"/>
      <point x="293" y="143" type="line" smooth="yes"/>
      <point x="253" y="143"/>
      <point x="234" y="147"/>
      <point x="222" y="156" type="curve" smooth="yes"/>
      <point x="210" y="165"/>
      <point x="206" y="179"/>
      <point x="206" y="192" type="curve" smooth="yes"/>
      <point x="206" y="207"/>
      <point x="212" y="220"/>
      <point x="224" y="228" type="curve" smooth="yes"/>
      <point x="235" y="236"/>
      <point x="249" y="241"/>
      <point x="287" y="241" type="curve" smooth="yes"/>
      <point x="396" y="241" type="line"/>
      <point x="396" y="381" type="line"/>
      <point x="271" y="381" type="line" smooth="yes"/>
      <point x="239" y="381"/>
      <point x="222" y="385"/>
      <point x="212" y="393" type="curve" smooth="yes"/>
      <point x="201" y="402"/>
      <point x="196" y="413"/>
      <point x="196" y="430" type="curve" smooth="yes"/>
      <point x="196" y="443"/>
      <point x="201" y="455"/>
      <point x="212" y="464" type="curve" smooth="yes"/>
      <point x="223" y="472"/>
      <point x="237" y="477"/>
      <point x="273" y="477" type="curve" smooth="yes"/>
      <point x="549" y="477" type="line"/>
      <point x="549" y="620" type="line"/>
      <point x="313" y="620" type="line" smooth="yes"/>
      <point x="215" y="620"/>
      <point x="149" y="610"/>
      <point x="100" y="578" type="curve" smooth="yes"/>
      <point x="59" y="551"/>
      <point x="31" y="508"/>
      <point x="31" y="440" type="curve" smooth="yes"/>
      <point x="31" y="366"/>
      <point x="73" y="314"/>
      <point x="136" y="282" type="curve"/>
      <point x="134" y="324" type="line"/>
      <point x="83" y="295"/>
      <point x="41" y="251"/>
    </contour>
  </outline>
</glyph>
<glyph name="uni0C77" format="2">
  <advance width="1018"/>
  <unicode hex="0C77"/>
  <outline>
    <contour>
      <point x="193" y="517" type="curve"/>
      <point x="60" y="525" type="line"/>
      <point x="46" y="451"/>
      <point x="39" y="383"/>
      <point x="39" y="319" type="curve" smooth="yes"/>
      <point x="39" y="-34"/>
      <point x="237" y="-228"/>
      <point x="521" y="-228" type="curve" smooth="yes"/>
      <point x="807" y="-228"/>
      <point x="979" y="-58"/>
      <point x="979" y="248" type="curve" smooth="yes"/>
      <point x="979" y="540"/>
      <point x="816" y="697"/>
      <point x="587" y="697" type="curve" smooth="yes"/>
      <point x="380" y="697"/>
      <point x="233" y="560"/>
      <point x="233" y="334" type="curve" smooth="yes"/>
      <point x="233" y="128"/>
      <point x="349" y="9"/>
      <point x="528" y="9" type="curve" smooth="yes"/>
      <point x="687" y="9"/>
      <point x="789" y="101"/>
      <point x="789" y="268" type="curve" smooth="yes"/>
      <point x="789" y="417"/>
      <point x="701" y="499"/>
      <point x="584" y="499" type="curve" smooth="yes"/>
      <point x="483" y="499"/>
      <point x="409" y="438"/>
      <point x="409" y="334" type="curve" smooth="yes"/>
      <point x="409" y="240"/>
      <point x="466" y="181"/>
      <point x="542" y="181" type="curve" smooth="yes"/>
      <point x="586" y="181"/>
      <point x="609" y="189"/>
      <point x="630" y="201" type="curve"/>
      <point x="593" y="313" type="line"/>
      <point x="582" y="307"/>
      <point x="573" y="305"/>
      <point x="565" y="305" type="curve" smooth="yes"/>
      <point x="556" y="305"/>
      <point x="540" y="310"/>
      <point x="540" y="338" type="curve" smooth="yes"/>
      <point x="540" y="365"/>
      <point x="557" y="376"/>
      <point x="583" y="376" type="curve" smooth="yes"/>
      <point x="626" y="376"/>
      <point x="656" y="334"/>
      <point x="656" y="268" type="curve" smooth="yes"/>
      <point x="656" y="181"/>
      <point x="618" y="133"/>
      <point x="522" y="133" type="curve" smooth="yes"/>
      <point x="418" y="133"/>
      <point x="366" y="208"/>
      <point x="366" y="333" type="curve" smooth="yes"/>
      <point x="366" y="501"/>
      <point x="458" y="573"/>
      <point x="588" y="573" type="curve" smooth="yes"/>
      <point x="737" y="573"/>
      <point x="843" y="462"/>
      <point x="843" y="250" type="curve" smooth="yes"/>
      <point x="843" y="13"/>
      <point x="718" y="-100"/>
      <point x="522" y="-100" type="curve" smooth="yes"/>
      <point x="312" y="-100"/>
      <point x="172" y="40"/>
      <point x="172" y="324" type="curve" smooth="yes"/>
      <point x="172" y="399"/>
      <point x="179" y="455"/>
    </contour>
  </outline>
</glyph>
<glyph name="uni0C78" format="2">
  <advance width="557"/>
  <unicode hex="0C78"/>
  <outline>
    <contour>
      <point x="31" y="366" type="curve" smooth="yes"/>
      <point x="31" y="207"/>
      <point x="126" y="115"/>
      <point x="275" y="115" type="curve" smooth="yes"/>
      <point x="423" y="115"/>
      <point x="519" y="204"/>
      <point x="519" y="368" type="curve" smooth="yes"/>
      <point x="519" y="543"/>
      <point x="421" y="633"/>
      <point x="275" y="633" type="curve" smooth="yes"/>
      <point x="131" y="633"/>
      <point x="31" y="540"/>
    </contour>
    <contour>
      <point x="195" y="373" type="curve" smooth="yes"/>
      <point x="195" y="448"/>
      <point x="221" y="494"/>
      <point x="275" y="494" type="curve" smooth="yes"/>
      <point x="329" y="494"/>
      <point x="355" y="448"/>
      <point x="355" y="372" type="curve" smooth="yes"/>
      <point x="355" y="294"/>
      <point x="328" y="254"/>
      <point x="275" y="254" type="curve" smooth="yes"/>
      <point x="224" y="254"/>
      <point x="195" y="294"/>
    </contour>
    <contour>
      <point x="525" y="98" type="curve" smooth="yes"/>
      <point x="525" y="162"/>
      <point x="498" y="214"/>
      <point x="452" y="261" type="curve"/>
      <point x="319" y="178" type="line"/>
      <point x="349" y="152"/>
      <point x="361" y="128"/>
      <point x="361" y="99" type="curve" smooth="yes"/>
      <point x="361" y="59"/>
      <point x="328" y="34"/>
      <point x="264" y="4" type="curve"/>
      <point x="341" y="-129" type="line"/>
      <point x="462" y="-67"/>
      <point x="525" y="-7"/>
    </contour>
  </outline>
</glyph>
<glyph name="uni0C79" format="2">
  <advance width="273"/>
  <unicode hex="0C79"/>
  <outline>
    <contour>
      <point x="218" y="0" type="line"/>
      <point x="218" y="620" type="line"/>
      <point x="55" y="620" type="line"/>
      <point x="55" y="0" type="line"/>
    </contour>
  </outline>
</glyph>
<glyph name="uni0C7A" format="2">
  <advance width="473"/>
  <unicode hex="0C7A"/>
  <outline>
    <contour>
      <point x="199" y="189" type="curve" smooth="yes"/>
      <point x="264" y="189"/>
      <point x="293" y="219"/>
      <point x="331" y="274" type="curve"/>
      <point x="409" y="373" type="line"/>
      <point x="409" y="620" type="line"/>
      <point x="255" y="620" type="line"/>
      <point x="255" y="368" type="line" smooth="yes"/>
      <point x="255" y="347"/>
      <point x="254" y="337"/>
      <point x="249" y="331" type="curve" smooth="yes"/>
      <point x="245" y="326"/>
      <point x="240" y="324"/>
      <point x="233" y="324" type="curve" smooth="yes"/>
      <point x="227" y="324"/>
      <point x="222" y="326"/>
      <point x="218" y="331" type="curve" smooth="yes"/>
      <point x="213" y="338"/>
      <point x="211" y="346"/>
      <point x="211" y="368" type="curve" smooth="yes"/>
      <point x="211" y="620" type="line"/>
      <point x="48" y="620" type="line"/>
      <point x="48" y="388" type="line" smooth="yes"/>
      <point x="48" y="307"/>
      <point x="61" y="264"/>
      <point x="92" y="231" type="curve" smooth="yes"/>
      <point x="116" y="205"/>
      <point x="151" y="189"/>
    </contour>
    <contour>
      <point x="418" y="0" type="line"/>
      <point x="418" y="620" type="line"/>
      <point x="255" y="620" type="line"/>
      <point x="255" y="0" type="line"/>
    </contour>
  </outline>
</glyph>
<glyph name="uni0C7B" format="2">
  <advance width="680"/>
  <unicode hex="0C7B"/>
  <outline>
    <contour>
      <point x="406" y="189" type="curve" smooth="yes"/>
      <point x="471" y="189"/>
      <point x="500" y="219"/>
      <point x="538" y="274" type="curve"/>
      <point x="616" y="373" type="line"/>
      <point x="616" y="620" type="line"/>
      <point x="462" y="620" type="line"/>
      <point x="462" y="368" type="line" smooth="yes"/>
      <point x="462" y="347"/>
      <point x="461" y="337"/>
      <point x="456" y="331" type="curve" smooth="yes"/>
      <point x="452" y="326"/>
      <point x="447" y="324"/>
      <point x="440" y="324" type="curve" smooth="yes"/>
      <point x="434" y="324"/>
      <point x="429" y="326"/>
      <point x="425" y="331" type="curve" smooth="yes"/>
      <point x="420" y="338"/>
      <point x="418" y="346"/>
      <point x="418" y="368" type="curve" smooth="yes"/>
      <point x="418" y="620" type="line"/>
      <point x="257" y="620" type="line"/>
      <point x="257" y="388" type="line" smooth="yes"/>
      <point x="257" y="307"/>
      <point x="270" y="264"/>
      <point x="301" y="231" type="curve" smooth="yes"/>
      <point x="325" y="205"/>
      <point x="358" y="189"/>
    </contour>
    <contour>
      <point x="625" y="0" type="line"/>
      <point x="625" y="620" type="line"/>
      <point x="462" y="620" type="line"/>
      <point x="462" y="0" type="line"/>
    </contour>
    <contour>
      <point x="199" y="189" type="curve" smooth="yes"/>
      <point x="274" y="189"/>
      <point x="310" y="218"/>
      <point x="348" y="273" type="curve"/>
      <point x="409" y="373" type="line"/>
      <point x="409" y="620" type="line"/>
      <point x="255" y="620" type="line"/>
      <point x="255" y="368" type="line" smooth="yes"/>
      <point x="255" y="347"/>
      <point x="254" y="337"/>
      <point x="249" y="331" type="curve" smooth="yes"/>
      <point x="245" y="326"/>
      <point x="240" y="324"/>
      <point x="233" y="324" type="curve" smooth="yes"/>
      <point x="227" y="324"/>
      <point x="222" y="326"/>
      <point x="218" y="331" type="curve" smooth="yes"/>
      <point x="213" y="338"/>
      <point x="211" y="346"/>
      <point x="211" y="368" type="curve" smooth="yes"/>
      <point x="211" y="620" type="line"/>
      <point x="48" y="620" type="line"/>
      <point x="48" y="388" type="line" smooth="yes"/>
      <point x="48" y="307"/>
      <point x="61" y="264"/>
      <point x="92" y="231" type="curve" smooth="yes"/>
      <point x="116" y="205"/>
      <point x="151" y="189"/>
    </contour>
  </outline>
</glyph>
<glyph name="uni0C7C" format="2">
  <advance width="503"/>
  <unicode hex="0C7C"/>
  <outline>
    <contour>
      <point x="32" y="244" type="line"/>
      <point x="471" y="244" type="line"/>
      <point x="471" y="385" type="line"/>
      <point x="32" y="385" type="line"/>
    </contour>
  </outline>
</glyph>
<glyph name="uni0C7D" format="2">
  <advance width="513"/>
  <unicode hex="0C7D"/>
  <outline>
    <contour>
      <point x="36" y="145" type="curve" smooth="yes"/>
      <point x="36" y="97"/>
      <point x="52" y="64"/>
      <point x="81" y="41" type="curve" smooth="yes"/>
      <point x="116" y="13"/>
      <point x="164" y="0"/>
      <point x="251" y="0" type="curve" smooth="yes"/>
      <point x="491" y="0" type="line"/>
      <point x="491" y="121" type="line"/>
      <point x="241" y="121" type="line" smooth="yes"/>
      <point x="214" y="121"/>
      <point x="204" y="128"/>
      <point x="204" y="144" type="curve" smooth="yes"/>
      <point x="204" y="161"/>
      <point x="211" y="170"/>
      <point x="290" y="196" type="curve" smooth="yes"/>
      <point x="434" y="244"/>
      <point x="475" y="287"/>
      <point x="475" y="364" type="curve" smooth="yes"/>
      <point x="475" y="411"/>
      <point x="458" y="442"/>
      <point x="431" y="463" type="curve" smooth="yes"/>
      <point x="394" y="491"/>
      <point x="348" y="500"/>
      <point x="267" y="500" type="curve" smooth="yes"/>
      <point x="37" y="500" type="line"/>
      <point x="37" y="381" type="line"/>
      <point x="274" y="381" type="line" smooth="yes"/>
      <point x="299" y="381"/>
      <point x="307" y="375"/>
      <point x="307" y="361" type="curve" smooth="yes"/>
      <point x="307" y="345"/>
      <point x="294" y="337"/>
      <point x="222" y="313" type="curve" smooth="yes"/>
      <point x="86" y="268"/>
      <point x="36" y="225"/>
    </contour>
  </outline>
</glyph>
<glyph name="uni0C7E" format="2">
  <advance width="508"/>
  <unicode hex="0C7E"/>
  <outline>
    <contour>
      <point x="36" y="98" type="curve" smooth="yes"/>
      <point x="36" y="61"/>
      <point x="50" y="37"/>
      <point x="80" y="21" type="curve" smooth="yes"/>
      <point x="107" y="6"/>
      <point x="150" y="0"/>
      <point x="217" y="0" type="curve" smooth="yes"/>
      <point x="490" y="0" type="line"/>
      <point x="490" y="104" type="line"/>
      <point x="222" y="104" type="line" smooth="yes"/>
      <point x="212" y="104"/>
      <point x="209" y="108"/>
      <point x="209" y="112" type="curve" smooth="yes"/>
      <point x="209" y="120"/>
      <point x="216" y="126"/>
      <point x="300" y="149" type="curve" smooth="yes"/>
      <point x="421" y="182"/>
      <point x="474" y="204"/>
      <point x="474" y="272" type="curve" smooth="yes"/>
      <point x="474" y="305"/>
      <point x="462" y="329"/>
      <point x="439" y="344" type="curve" smooth="yes"/>
      <point x="415" y="360"/>
      <point x="381" y="367"/>
      <point x="320" y="367" type="curve" smooth="yes"/>
      <point x="222" y="367" type="line" smooth="yes"/>
      <point x="212" y="367"/>
      <point x="209" y="370"/>
      <point x="209" y="374" type="curve" smooth="yes"/>
      <point x="209" y="382"/>
      <point x="216" y="387"/>
      <point x="300" y="410" type="curve" smooth="yes"/>
      <point x="420" y="443"/>
      <point x="474" y="466"/>
      <point x="474" y="535" type="curve" smooth="yes"/>
      <point x="474" y="572"/>
      <point x="460" y="595"/>
      <point x="437" y="610" type="curve" smooth="yes"/>
      <point x="407" y="629"/>
      <point x="367" y="633"/>
      <point x="291" y="633" type="curve" smooth="yes"/>
      <point x="36" y="633" type="line"/>
      <point x="36" y="531" type="line"/>
      <point x="290" y="531" type="line" smooth="yes"/>
      <point x="301" y="531"/>
      <point x="304" y="528"/>
      <point x="304" y="522" type="curve" smooth="yes"/>
      <point x="304" y="513"/>
      <point x="292" y="509"/>
      <point x="224" y="491" type="curve" smooth="yes"/>
      <point x="87" y="455"/>
      <point x="36" y="427"/>
      <point x="36" y="363" type="curve" smooth="yes"/>
      <point x="36" y="324"/>
      <point x="54" y="303"/>
      <point x="79" y="289" type="curve" smooth="yes"/>
      <point x="104" y="275"/>
      <point x="151" y="269"/>
      <point x="211" y="269" type="curve" smooth="yes"/>
      <point x="290" y="269" type="line" smooth="yes"/>
      <point x="301" y="269"/>
      <point x="304" y="266"/>
      <point x="304" y="260" type="curve" smooth="yes"/>
      <point x="304" y="251"/>
      <point x="292" y="248"/>
      <point x="224" y="230" type="curve" smooth="yes"/>
      <point x="87" y="194"/>
      <point x="36" y="165"/>
    </contour>
  </outline>
</glyph>
<glyph name="uni0C7F" format="2">
  <advance width="673"/>
  <unicode hex="0C7F"/>
  <outline>
    <contour>
      <point x="300" y="-12" type="curve" smooth="yes"/>
      <point x="511" y="-12"/>
      <point x="609" y="135"/>
      <point x="657" y="288" type="curve"/>
      <point x="484" y="339" type="line"/>
      <point x="448" y="202"/>
      <point x="397" y="131"/>
      <point x="296" y="131" type="curve" smooth="yes"/>
      <point x="227" y="131"/>
      <point x="188" y="176"/>
      <point x="188" y="245" type="curve" smooth="yes"/>
      <point x="188" y="293" type="line" smooth="yes"/>
      <point x="188" y="343"/>
      <point x="205" y="395"/>
      <point x="235" y="395" type="curve" smooth="yes"/>
      <point x="250" y="395"/>
      <point x="257" y="381"/>
      <point x="257" y="357" type="curve" smooth="yes"/>
      <point x="257" y="321"/>
      <point x="243" y="308"/>
      <point x="219" y="308" type="curve" smooth="yes"/>
      <point x="196" y="308"/>
      <point x="169" y="322"/>
      <point x="139" y="358" type="curve"/>
      <point x="102" y="258" type="line"/>
      <point x="131" y="227"/>
      <point x="177" y="199"/>
      <point x="249" y="199" type="curve" smooth="yes"/>
      <point x="337" y="199"/>
      <point x="405" y="244"/>
      <point x="405" y="360" type="curve" smooth="yes"/>
      <point x="405" y="441"/>
      <point x="360" y="508"/>
      <point x="246" y="508" type="curve" smooth="yes"/>
      <point x="128" y="508"/>
      <point x="37" y="421"/>
      <point x="37" y="260" type="curve" smooth="yes"/>
      <point x="37" y="88"/>
      <point x="138" y="-12"/>
    </contour>
  </outline>
</glyph>
<glyph name="uni1CDA" format="2">
  <unicode hex="1CDA"/>
  <outline>
    <contour>
      <point x="-309" y="599" type="line"/>
      <point x="-309" y="809" type="line"/>
      <point x="-405" y="809" type="line"/>
      <point x="-405" y="599" type="line"/>
    </contour>
    <contour>
      <point x="-167" y="599" type="line"/>
      <point x="-167" y="809" type="line"/>
      <point x="-263" y="809" type="line"/>
      <point x="-263" y="599" type="line"/>
    </contour>
  </outline>
</glyph>
<glyph name="uni1CF2" format="2">
  <advance width="460"/>
  <unicode hex="1CF2"/>
  <outline>
    <contour>
      <point x="230" y="247" type="curve" smooth="yes"/>
      <point x="341" y="247"/>
      <point x="409" y="305"/>
      <point x="441" y="453" type="curve"/>
      <point x="310" y="472" type="line"/>
      <point x="295" y="397"/>
      <point x="271" y="375"/>
      <point x="230" y="375" type="curve" smooth="yes"/>
      <point x="189" y="375"/>
      <point x="165" y="397"/>
      <point x="150" y="472" type="curve"/>
      <point x="19" y="453" type="line"/>
      <point x="51" y="305"/>
      <point x="119" y="247"/>
    </contour>
    <contour>
      <point x="230" y="217" type="curve" smooth="yes"/>
      <point x="119" y="217"/>
      <point x="51" y="159"/>
      <point x="19" y="11" type="curve"/>
      <point x="150" y="-8" type="line"/>
      <point x="165" y="67"/>
      <point x="189" y="89"/>
      <point x="230" y="89" type="curve" smooth="yes"/>
      <point x="271" y="89"/>
      <point x="295" y="67"/>
      <point x="310" y="-8" type="curve"/>
      <point x="441" y="11" type="line"/>
      <point x="409" y="159"/>
      <point x="341" y="217"/>
    </contour>
  </outline>
</glyph>
<glyph name="endash.telu" format="2">
  <advance width="500"/>
  <unicode hex="2013"/>
  <outline>
    <contour>
      <point x="37" y="199" type="line"/>
      <point x="463" y="199" type="line"/>
      <point x="463" y="330" type="line"/>
      <point x="37" y="330" type="line"/>
    </contour>
  </outline>
</glyph>
<glyph name="emdash.telu" format="2">
  <advance width="1000"/>
  <unicode hex="2014"/>
  <outline>
    <contour>
      <point x="37" y="199" type="line"/>
      <point x="963" y="199" type="line"/>
      <point x="963" y="330" type="line"/>
      <point x="37" y="330" type="line"/>
    </contour>
  </outline>
</glyph>
<glyph name="quoteleft.telu" format="2">
  <advance width="283"/>
  <unicode hex="2018"/>
  <outline>
    <contour>
      <point x="46" y="521" type="line"/>
      <point x="203" y="521" type="line"/>
      <point x="210" y="611"/>
      <point x="222" y="676"/>
      <point x="243" y="773" type="curve"/>
      <point x="111" y="773" type="line"/>
      <point x="80" y="700"/>
      <point x="57" y="642"/>
      <point x="40" y="532" type="curve"/>
    </contour>
  </outline>
</glyph>
<glyph name="quoteright.telu" format="2">
  <advance width="283"/>
  <unicode hex="2019"/>
  <outline>
    <contour>
      <point x="238" y="773" type="line"/>
      <point x="79" y="773" type="line"/>
      <point x="76" y="706"/>
      <point x="56" y="591"/>
      <point x="40" y="521" type="curve"/>
      <point x="173" y="521" type="line"/>
      <point x="204" y="594"/>
      <point x="226" y="652"/>
      <point x="243" y="762" type="curve"/>
    </contour>
  </outline>
</glyph>
<glyph name="quotedblleft.telu" format="2">
  <advance width="513"/>
  <unicode hex="201C"/>
  <outline>
    <contour>
      <point x="275" y="521" type="line"/>
      <point x="434" y="521" type="line"/>
      <point x="437" y="588"/>
      <point x="457" y="703"/>
      <point x="473" y="773" type="curve"/>
      <point x="340" y="773" type="line"/>
      <point x="309" y="700"/>
      <point x="287" y="642"/>
      <point x="270" y="532" type="curve"/>
    </contour>
    <contour>
      <point x="46" y="521" type="line"/>
      <point x="203" y="521" type="line"/>
      <point x="210" y="611"/>
      <point x="222" y="676"/>
      <point x="243" y="773" type="curve"/>
      <point x="111" y="773" type="line"/>
      <point x="80" y="700"/>
      <point x="57" y="642"/>
      <point x="40" y="532" type="curve"/>
    </contour>
  </outline>
</glyph>
<glyph name="quotedblright.telu" format="2">
  <advance width="513"/>
  <unicode hex="201D"/>
  <outline>
    <contour>
      <point x="467" y="773" type="line"/>
      <point x="310" y="773" type="line"/>
      <point x="303" y="683"/>
      <point x="291" y="618"/>
      <point x="270" y="521" type="curve"/>
      <point x="402" y="521" type="line"/>
      <point x="433" y="594"/>
      <point x="456" y="652"/>
      <point x="473" y="762" type="curve"/>
    </contour>
    <contour>
      <point x="238" y="773" type="line"/>
      <point x="79" y="773" type="line"/>
      <point x="76" y="706"/>
      <point x="56" y="591"/>
      <point x="40" y="521" type="curve"/>
      <point x="173" y="521" type="line"/>
      <point x="204" y="594"/>
      <point x="226" y="652"/>
      <point x="243" y="762" type="curve"/>
    </contour>
  </outline>
</glyph>
<glyph name="ellipsis.telu" format="2">
  <advance width="812"/>
  <unicode hex="2026"/>
  <outline>
    <contour>
      <point x="52" y="81" type="curve" smooth="yes"/>
      <point x="52" y="22"/>
      <point x="88" y="-12"/>
      <point x="145" y="-12" type="curve" smooth="yes"/>
      <point x="202" y="-12"/>
      <point x="236" y="22"/>
      <point x="236" y="81" type="curve" smooth="yes"/>
      <point x="236" y="141"/>
      <point x="203" y="176"/>
      <point x="145" y="176" type="curve" smooth="yes"/>
      <point x="85" y="176"/>
      <point x="52" y="141"/>
    </contour>
    <contour>
      <point x="314" y="81" type="curve" smooth="yes"/>
      <point x="314" y="22"/>
      <point x="350" y="-12"/>
      <point x="407" y="-12" type="curve" smooth="yes"/>
      <point x="464" y="-12"/>
      <point x="498" y="22"/>
      <point x="498" y="81" type="curve" smooth="yes"/>
      <point x="498" y="141"/>
      <point x="465" y="176"/>
      <point x="407" y="176" type="curve" smooth="yes"/>
      <point x="347" y="176"/>
      <point x="314" y="141"/>
    </contour>
    <contour>
      <point x="576" y="81" type="curve" smooth="yes"/>
      <point x="576" y="22"/>
      <point x="612" y="-12"/>
      <point x="669" y="-12" type="curve" smooth="yes"/>
      <point x="726" y="-12"/>
      <point x="760" y="22"/>
      <point x="760" y="81" type="curve" smooth="yes"/>
      <point x="760" y="141"/>
      <point x="727" y="176"/>
      <point x="669" y="176" type="curve" smooth="yes"/>
      <point x="609" y="176"/>
      <point x="576" y="141"/>
    </contour>
  </outline>
</glyph>
<glyph name="uni20B9.telu" format="2">
  <advance width="496"/>
  <unicode hex="20B9"/>
  <outline>
    <contour>
      <point x="181" y="0" type="line"/>
      <point x="359" y="0" type="line"/>
      <point x="202" y="219" type="line"/>
      <point x="285" y="234"/>
      <point x="334" y="283"/>
      <point x="345" y="368" type="curve"/>
      <point x="454" y="368" type="line"/>
      <point x="454" y="480" type="line"/>
      <point x="337" y="480" type="line"/>
      <point x="329" y="502"/>
      <point x="316" y="522"/>
      <point x="296" y="536" type="curve"/>
      <point x="454" y="536" type="line"/>
      <point x="454" y="649" type="line"/>
      <point x="46" y="649" type="line"/>
      <point x="46" y="536" type="line"/>
      <point x="89" y="536" type="line" smooth="yes"/>
      <point x="129" y="536"/>
      <point x="149" y="530"/>
      <point x="162" y="519" type="curve" smooth="yes"/>
      <point x="175" y="508"/>
      <point x="183" y="496"/>
      <point x="187" y="480" type="curve"/>
      <point x="46" y="480" type="line"/>
      <point x="46" y="368" type="line"/>
      <point x="190" y="368" type="line"/>
      <point x="176" y="328"/>
      <point x="155" y="313"/>
      <point x="92" y="313" type="curve" smooth="yes"/>
      <point x="65" y="313" type="line"/>
      <point x="47" y="208" type="line"/>
    </contour>
  </outline>
</glyph>
<glyph name="minus.telu" format="2">
  <advance width="496"/>
  <unicode hex="2212"/>
  <outline>
    <contour>
      <point x="34" y="261" type="line"/>
      <point x="462" y="261" type="line"/>
      <point x="462" y="390" type="line"/>
      <point x="34" y="390" type="line"/>
    </contour>
  </outline>
</glyph>
<glyph name="aavowelsign1telu" format="2">
  <outline>
    <contour>
      <point x="783" y="238" type="curve" smooth="yes"/>
      <point x="871" y="238"/>
      <point x="927" y="296"/>
      <point x="927" y="394" type="curve" smooth="yes"/>
      <point x="927" y="456"/>
      <point x="905" y="500"/>
      <point x="871" y="528" type="curve" smooth="yes"/>
      <point x="831" y="561"/>
      <point x="771" y="572"/>
      <point x="692" y="572" type="curve" smooth="yes"/>
      <point x="353" y="572" type="line"/>
      <point x="353" y="440" type="line"/>
      <point x="752" y="440" type="line" smooth="yes"/>
      <point x="795" y="440"/>
      <point x="810" y="417"/>
      <point x="810" y="389" type="curve" smooth="yes"/>
      <point x="810" y="361"/>
      <point x="797" y="352"/>
      <point x="784" y="352" type="curve" smooth="yes"/>
      <point x="765" y="352"/>
      <point x="755" y="365"/>
      <point x="755" y="393" type="curve" smooth="yes"/>
      <point x="755" y="427"/>
      <point x="776" y="464"/>
      <point x="799" y="491" type="curve"/>
      <point x="682" y="503" type="line"/>
      <point x="660" y="473"/>
      <point x="641" y="429"/>
      <point x="641" y="379" type="curve" smooth="yes"/>
      <point x="641" y="307"/>
      <point x="678" y="238"/>
    </contour>
  </outline>
</glyph>
<glyph name="aavowelsign2telu" format="2">
  <advance width="964"/>
  <outline>
    <contour>
      <point x="807" y="172" type="curve" smooth="yes"/>
      <point x="895" y="172"/>
      <point x="951" y="230"/>
      <point x="951" y="328" type="curve" smooth="yes"/>
      <point x="951" y="390"/>
      <point x="929" y="434"/>
      <point x="895" y="462" type="curve" smooth="yes"/>
      <point x="855" y="495"/>
      <point x="801" y="508"/>
      <point x="716" y="508" type="curve" smooth="yes"/>
      <point x="122" y="508" type="line"/>
      <point x="122" y="374" type="line"/>
      <point x="776" y="374" type="line" smooth="yes"/>
      <point x="819" y="374"/>
      <point x="834" y="351"/>
      <point x="834" y="323" type="curve" smooth="yes"/>
      <point x="834" y="295"/>
      <point x="821" y="286"/>
      <point x="808" y="286" type="curve" smooth="yes"/>
      <point x="789" y="286"/>
      <point x="779" y="299"/>
      <point x="779" y="327" type="curve" smooth="yes"/>
      <point x="779" y="361"/>
      <point x="800" y="398"/>
      <point x="823" y="425" type="curve"/>
      <point x="706" y="437" type="line"/>
      <point x="684" y="407"/>
      <point x="665" y="363"/>
      <point x="665" y="313" type="curve" smooth="yes"/>
      <point x="665" y="241"/>
      <point x="702" y="172"/>
    </contour>
  </outline>
</glyph>
<glyph name="ailengthmarkUItelu" format="2">
  <outline>
    <contour>
      <point x="-405" y="-32" type="curve" smooth="yes"/>
      <point x="-494" y="-32"/>
      <point x="-546" y="-95"/>
      <point x="-546" y="-179" type="curve" smooth="yes"/>
      <point x="-546" y="-238"/>
      <point x="-526" y="-281"/>
      <point x="-491" y="-309" type="curve" smooth="yes"/>
      <point x="-449" y="-343"/>
      <point x="-399" y="-353"/>
      <point x="-307" y="-353" type="curve" smooth="yes"/>
      <point x="-23" y="-353" type="line"/>
      <point x="-23" y="-223" type="line"/>
      <point x="-377" y="-223" type="line" smooth="yes"/>
      <point x="-417" y="-223"/>
      <point x="-432" y="-200"/>
      <point x="-432" y="-174" type="curve" smooth="yes"/>
      <point x="-432" y="-148"/>
      <point x="-419" y="-139"/>
      <point x="-406" y="-139" type="curve" smooth="yes"/>
      <point x="-386" y="-139"/>
      <point x="-379" y="-156"/>
      <point x="-379" y="-178" type="curve" smooth="yes"/>
      <point x="-379" y="-212"/>
      <point x="-400" y="-247"/>
      <point x="-421" y="-272" type="curve"/>
      <point x="-315" y="-295" type="line"/>
      <point x="-290" y="-260"/>
      <point x="-266" y="-212"/>
      <point x="-266" y="-164" type="curve" smooth="yes"/>
      <point x="-266" y="-94"/>
      <point x="-308" y="-32"/>
    </contour>
  </outline>
</glyph>
<glyph name="ailengthmarknarrowUItelu" format="2">
  <outline>
    <contour>
      <point x="-362" y="-32" type="curve" smooth="yes"/>
      <point x="-451" y="-32"/>
      <point x="-503" y="-95"/>
      <point x="-503" y="-179" type="curve" smooth="yes"/>
      <point x="-503" y="-238"/>
      <point x="-483" y="-281"/>
      <point x="-448" y="-309" type="curve" smooth="yes"/>
      <point x="-406" y="-343"/>
      <point x="-356" y="-353"/>
      <point x="-264" y="-353" type="curve" smooth="yes"/>
      <point x="-46" y="-353" type="line"/>
      <point x="-46" y="-223" type="line"/>
      <point x="-334" y="-223" type="line" smooth="yes"/>
      <point x="-374" y="-223"/>
      <point x="-389" y="-200"/>
      <point x="-389" y="-174" type="curve" smooth="yes"/>
      <point x="-389" y="-148"/>
      <point x="-376" y="-139"/>
      <point x="-363" y="-139" type="curve" smooth="yes"/>
      <point x="-343" y="-139"/>
      <point x="-336" y="-156"/>
      <point x="-336" y="-178" type="curve" smooth="yes"/>
      <point x="-336" y="-212"/>
      <point x="-357" y="-247"/>
      <point x="-378" y="-272" type="curve"/>
      <point x="-272" y="-295" type="line"/>
      <point x="-247" y="-260"/>
      <point x="-223" y="-212"/>
      <point x="-223" y="-164" type="curve" smooth="yes"/>
      <point x="-223" y="-94"/>
      <point x="-265" y="-32"/>
    </contour>
  </outline>
</glyph>
<glyph name="ailengthmarknarrowtelu" format="2">
  <outline>
    <contour>
      <point x="-362" y="-42" type="curve" smooth="yes"/>
      <point x="-451" y="-42"/>
      <point x="-503" y="-105"/>
      <point x="-503" y="-189" type="curve" smooth="yes"/>
      <point x="-503" y="-248"/>
      <point x="-483" y="-291"/>
      <point x="-448" y="-319" type="curve" smooth="yes"/>
      <point x="-406" y="-353"/>
      <point x="-356" y="-363"/>
      <point x="-264" y="-363" type="curve" smooth="yes"/>
      <point x="-46" y="-363" type="line"/>
      <point x="-46" y="-233" type="line"/>
      <point x="-334" y="-233" type="line" smooth="yes"/>
      <point x="-374" y="-233"/>
      <point x="-389" y="-210"/>
      <point x="-389" y="-184" type="curve" smooth="yes"/>
      <point x="-389" y="-158"/>
      <point x="-376" y="-149"/>
      <point x="-363" y="-149" type="curve" smooth="yes"/>
      <point x="-343" y="-149"/>
      <point x="-336" y="-166"/>
      <point x="-336" y="-188" type="curve" smooth="yes"/>
      <point x="-336" y="-222"/>
      <point x="-357" y="-257"/>
      <point x="-378" y="-282" type="curve"/>
      <point x="-272" y="-305" type="line"/>
      <point x="-247" y="-270"/>
      <point x="-223" y="-222"/>
      <point x="-223" y="-174" type="curve" smooth="yes"/>
      <point x="-223" y="-104"/>
      <point x="-265" y="-42"/>
    </contour>
  </outline>
</glyph>
